<svg xmlns="http://www.w3.org/2000/svg" width="185.903" height="186.082" viewBox="0 0 185.903 186.082" fill="none">
<g transform="translate(-3.848,-27.649)">
<path d="M174.029 120.29C174.029 146.304 161.19 169.317 141.51 183.33C128.891 192.314 113.464 197.594 96.7977 197.594C80.1317 197.594 64.7907 192.341 52.1923 183.406C32.4499 169.4 19.5659 146.352 19.5659 120.29C19.5659 77.5939 54.1435 42.9824 96.7977 42.9824C139.452 42.9824 174.029 77.5939 174.029 120.29Z" fill="#2441FF"/>
<g filter="url(#filter0_d_2838_5000)">
<path d="M147.112 77.7135C148.485 76.3287 149.074 74.7786 149.339 73.8417C148.592 73.6212 147.473 73.2527 146.176 72.6705C140.767 70.2386 137.783 66.5632 136.217 64.9305C133.712 62.3195 129.397 59.2813 121.461 57.6348C121.12 57.5624 120.773 57.4935 120.418 57.4281C120.415 57.4281 120.408 57.4247 120.405 57.4247C120.429 57.4143 120.47 57.4005 120.525 57.3799C120.556 57.3661 120.587 57.3523 120.618 57.3385C120.745 57.2869 120.914 57.2076 121.11 57.1043C121.114 57.1009 121.117 57.1009 121.12 57.0974C122.022 56.6221 123.481 55.5921 123.918 53.7906C124.128 52.9294 124.039 52.1647 123.918 51.6377C116.203 51.7341 105.859 52.926 94.7468 57.5418C91.5396 58.8783 88.6352 60.3457 86.0301 61.8441C86.006 61.8544 85.9854 61.8682 85.9613 61.882C86.2229 61.417 86.4809 60.9554 86.7425 60.4904C88.3943 57.5383 90.0495 54.5863 91.7013 51.6377C86.4259 53.7079 81.9798 55.0479 78.8173 55.9021C70.3346 58.1928 66.1914 58.3134 63.0014 61.882C60.6751 64.4792 59.9593 67.6724 59.7219 69.9734C59.4397 69.5325 58.5346 68.2339 56.7934 67.6276C54.3088 66.7665 52.1718 68.0306 51.8724 68.2132C51.0121 70.5073 49.7526 73.2665 47.8874 76.1875C45.6437 79.7148 43.2211 82.374 41.2114 84.2789C42.2163 84.5717 44.8144 85.1711 47.6534 84.0447C48.6858 83.6348 49.5014 83.0939 50.1036 82.6083C50.1896 82.5359 50.2722 82.4705 50.3479 82.4016C50.1518 82.8976 49.9419 83.4625 49.7319 84.086C48.7064 87.1173 47.6465 91.6125 47.915 97.0619C48.1524 101.809 49.3224 105.787 50.5888 108.825C50.4925 109.452 50.4408 110.096 50.4408 110.751C50.4408 117.116 55.1691 122.332 61.1878 122.841V122.852C61.4528 137.374 71.7421 149.051 84.3955 149.051H85.421C85.9992 151.084 86.1334 153.23 85.8512 155.331C85.7652 155.968 85.6413 156.602 85.483 157.226C85.4589 157.219 85.4348 157.219 85.4107 157.222L79.1098 158.304C79.0547 158.314 79.0066 158.349 78.9825 158.404C78.074 160.408 77.6748 162.627 77.7884 164.818C64.8562 168.272 55.1863 175.124 52.1959 183.401C64.722 192.285 80.0045 197.528 96.5122 197.586C96.5122 197.683 96.5879 197.762 96.6842 197.762C96.7806 197.762 96.8563 197.686 96.8563 197.59C113.502 197.576 128.908 192.299 141.513 183.325C138.478 175.048 128.763 168.204 115.797 164.776C115.904 162.599 115.501 160.395 114.599 158.404C114.575 158.352 114.53 158.314 114.472 158.304L108.171 157.222C108.147 157.219 108.126 157.222 108.106 157.222C107.421 154.563 107.431 151.673 108.171 149.051H109.317C121.957 149.051 132.239 137.391 132.521 122.886H132.528C138.998 122.886 144.242 117.454 144.242 110.751C144.242 109.607 144.087 108.501 143.802 107.451C146.094 102.577 148.32 94.9848 144.999 87.6753C143.802 85.0367 142.14 83.0044 140.515 81.4784C140.058 81.0513 139.607 80.662 139.17 80.3107C139.163 80.3073 139.159 80.3004 139.153 80.2969C139.786 80.3693 144.063 80.7895 147.116 77.71L147.112 77.7135ZM96.0958 154.229C101.292 152.934 105.253 150.781 107.865 149.058C105.253 150.781 101.289 152.934 96.0923 154.229H96.0958Z" fill="black"/>
</g>
<path d="M141.51 183.33C128.891 192.314 113.464 197.594 96.7979 197.594C80.132 197.594 64.7909 192.341 52.1926 183.406C56.5251 171.412 74.8807 162.404 96.8667 162.404C118.853 162.404 137.126 171.371 141.51 183.33Z" fill="#99D3FF"/>
<path d="M139.149 80.3004C139.149 80.3004 139.159 80.3107 139.166 80.3141C139.603 80.6655 140.054 81.0547 140.512 81.4819C142.136 83.0078 143.798 85.0402 144.996 87.6787C150.323 99.4111 141.365 111.867 140.777 112.656C111.54 113 82.2998 113.345 53.0631 113.689C51.37 110.92 48.3141 105.071 47.915 97.0619C47.6465 91.6125 48.7064 87.1173 49.7319 84.086C49.9419 83.4625 50.1518 82.8976 50.3479 82.4016C50.2722 82.4705 50.1896 82.5359 50.1036 82.6083C49.5014 83.0939 48.6858 83.6348 47.6534 84.0447C44.8144 85.1711 42.2163 84.5717 41.2114 84.2789C43.2211 82.374 45.6437 79.7148 47.8874 76.1875C49.7526 73.2665 51.0121 70.5073 51.8724 68.2132C52.1718 68.0306 54.3088 66.7665 56.7934 67.6276C58.5346 68.2339 59.4397 69.5325 59.7219 69.9734C59.9593 67.6724 60.6751 64.4792 63.0014 61.882C66.1914 58.3134 70.3346 58.1928 78.8173 55.9021C81.9798 55.0479 86.4259 53.7079 91.7013 51.6377C90.0495 54.5863 88.3943 57.5383 86.7425 60.4904C86.4809 60.9554 86.2229 61.417 85.9613 61.882C85.9854 61.8682 86.006 61.8544 86.0301 61.8441C88.6352 60.3457 91.5396 58.8783 94.7468 57.5418C105.859 52.926 116.203 51.7341 123.918 51.6377C124.039 52.1647 124.128 52.9294 123.918 53.7906C123.481 55.5921 122.022 56.6221 121.12 57.0974C121.117 57.0974 121.114 57.0974 121.11 57.1043C120.914 57.2076 120.745 57.2869 120.618 57.3385C120.587 57.3523 120.556 57.3661 120.525 57.3799C120.47 57.4005 120.429 57.4143 120.405 57.4247C120.408 57.4247 120.415 57.4281 120.418 57.4281C120.773 57.4935 121.12 57.5624 121.461 57.6348C129.397 59.2813 133.712 62.3195 136.217 64.9305C137.783 66.5632 140.767 70.2386 146.176 72.6705C147.473 73.2527 148.592 73.6212 149.339 73.8417C149.074 74.7786 148.485 76.3287 147.112 77.7135C144.06 80.7929 139.782 80.3727 139.149 80.3004Z" fill="#523333"/>
<path d="M110.563 144.376H83.0326C83.3561 144.751 83.6348 145.123 83.8654 145.498C83.9273 145.598 83.9789 145.698 84.0374 145.798C92.1037 146.801 100.17 147.803 108.236 148.809C105.635 150.565 101.54 152.87 96.0921 154.227C92.0659 155.229 88.5145 155.412 85.851 155.34C85.851 155.34 85.851 155.336 85.851 155.333C85.6307 156.969 85.1662 158.574 84.4607 160.073C84.0856 160.82 83.6658 161.568 83.036 162.315C88.807 166.5 93.4079 167.227 96.684 167.007C102.933 166.586 110.566 162.315 110.566 162.315C106.677 157.396 106.547 149.236 110.566 144.372L110.563 144.376Z" fill="#F2BCA2"/>
<path d="M108.24 148.807C105.638 150.564 101.543 152.868 96.0956 154.225C92.0694 155.231 88.5215 155.414 85.8545 155.341C85.8545 155.338 85.851 155.335 85.851 155.335C86.2915 152.066 85.7237 148.68 84.041 145.8C92.1072 146.802 100.173 147.805 108.24 148.807Z" fill="#E3917B"/>
<path d="M132.521 103.023V122.275C132.521 122.481 132.518 122.685 132.514 122.891C132.232 137.397 121.95 149.057 109.31 149.057H84.3922C71.7387 149.057 61.4494 137.379 61.1844 122.857V122.847C61.1844 122.657 61.1776 122.464 61.1776 122.275V103.023C61.5905 99.0132 62.9016 91.1974 67.9774 84.0808C76.8111 71.6974 90.2079 71.0223 94.9533 70.7846C108.987 70.0784 120.515 77.5843 125.725 84.0808C129.927 89.327 131.479 95.0554 131.479 95.0554C132.157 97.5699 132.521 100.246 132.521 103.023Z" fill="#F2BCA2"/>
<path d="M62.1547 122.889C68.6241 122.889 73.8686 117.456 73.8686 110.754C73.8686 104.051 68.6241 98.6182 62.1547 98.6182C55.6852 98.6182 50.4407 104.051 50.4407 110.754C50.4407 117.456 55.6852 122.889 62.1547 122.889Z" fill="#F2BCA2"/>
<path d="M132.521 122.889C138.991 122.889 144.235 117.456 144.235 110.754C144.235 104.051 138.991 98.6182 132.521 98.6182C126.052 98.6182 120.807 104.051 120.807 110.754C120.807 117.456 126.052 122.889 132.521 122.889Z" fill="#F2BCA2"/>
<path d="M125.89 97.1221C123.041 95.8855 120.03 95.1311 117.015 94.8727C114.001 94.6109 110.983 94.8486 108.116 95.5444L107.531 91.8243C114.097 91.2524 120.794 92.8576 126.303 96.347L125.894 97.1221H125.89Z" fill="#3D0000"/>
<path d="M66.9656 96.3488C72.4751 92.8628 79.1717 91.2576 85.7376 91.826L85.1526 95.5462C82.286 94.8504 79.2681 94.6092 76.2535 94.8745C73.239 95.1328 70.2245 95.8872 67.3786 97.1238L66.9691 96.3488H66.9656Z" fill="#3D0000"/>
<path d="M97.9025 113.741L97.3347 120.072H95.9307L95.3663 113.741H97.9025Z" fill="#FF9873"/>
<path d="M85.5035 127.905L97.0523 133.761L96.2195 133.768L107.176 127.905L108.264 130.055L97.0695 135.449L96.6566 135.649L96.2367 135.456L84.4608 130.079L85.5035 127.905Z" fill="#FF9873"/>
<path d="M79.0135 109.893C79.0376 112.873 79.1822 115.839 79.75 118.78H72.8675C73.4353 115.839 73.5764 112.873 73.6039 109.893V109.811C73.5936 106.803 73.4628 103.81 72.8675 100.841H79.75C79.1546 103.81 79.0204 106.803 79.0135 109.811V109.893Z" fill="#3D0000"/>
<path d="M119.665 109.893C119.689 112.873 119.833 115.839 120.401 118.78H113.519C114.086 115.839 114.228 112.873 114.255 109.893V109.811C114.245 106.803 114.111 103.81 113.519 100.841H120.401C119.806 103.81 119.672 106.803 119.665 109.811V109.893Z" fill="#3D0000"/>
<path d="M79.7499 118.782H72.8674C73.4352 115.84 73.5763 112.874 73.6038 109.895H79.0134C79.0375 112.874 79.182 115.84 79.7499 118.782Z" fill="#800000"/>
<path d="M120.401 118.782H113.519C114.086 115.84 114.228 112.874 114.255 109.895H119.665C119.689 112.874 119.833 115.84 120.401 118.782Z" fill="#800000"/>
<path d="M96.6429 166.804C94.6263 166.287 91.6531 165.247 88.6489 163.022C87.0659 161.85 85.8443 160.621 84.9186 159.539C85.0906 158.826 85.2627 158.113 85.4348 157.396C83.3356 157.758 81.233 158.116 79.1338 158.478C78.6142 159.646 78.0361 161.361 77.9397 163.473C77.8365 165.729 78.3252 167.579 78.776 168.805C79.9322 170.486 82.7884 174.051 88.2979 176.139C90.2594 176.883 92.1073 177.268 93.6421 177.472C93.2636 176.511 92.5134 174.161 93.4735 171.337C94.2512 169.053 95.786 167.537 96.6394 166.804H96.6429Z" fill="#99D3FF"/>
<path d="M96.4777 166.841C96.3401 166.855 96.3057 166.91 96.1715 166.872L95.7413 166.769C91.3606 165.67 87.3481 163.28 84.2889 159.925C84.1443 159.77 84.1202 159.542 84.2131 159.363L85.2696 157.355C85.2696 157.348 85.4658 157.565 85.4658 157.565L79.1648 158.647L79.2922 158.547C78.5833 160.142 78.1669 161.867 78.1084 163.61C78.0155 165.291 78.3974 167.282 78.9171 168.705C82.2551 173.586 87.8643 176.572 93.6662 177.299L93.4838 177.534C93.1122 176.597 92.8988 175.601 92.8472 174.592C92.6752 171.671 94.1067 168.846 96.2506 166.921L96.3194 166.859C96.3435 166.838 96.3676 166.81 96.371 166.817C96.3848 166.817 96.4158 166.845 96.4777 166.845V166.841ZM96.8115 166.762C96.7702 166.903 96.6051 167.076 96.4846 167.176C94.4164 169.032 93.0296 171.757 93.1948 174.575C93.243 175.543 93.4529 176.504 93.8073 177.406C93.8589 177.523 93.7523 177.661 93.6249 177.64C87.7267 176.9 81.9867 173.851 78.6177 168.863C77.3582 165.505 77.5027 161.671 78.979 158.406C79.0031 158.35 79.0513 158.316 79.1063 158.306L85.4073 157.224C85.5071 157.207 85.6034 157.286 85.6034 157.386V157.434L85.6275 159.704C85.6275 159.704 85.4692 159.053 85.4726 159.06C86.8698 160.841 88.556 162.412 90.4521 163.693C92.2347 164.899 94.2134 165.849 96.2678 166.504C96.4227 166.542 96.6739 166.666 96.8081 166.759L96.8115 166.762Z" fill="#9992FF"/>
<path d="M96.643 166.802C98.694 166.33 101.798 165.321 104.923 163.02C106.509 161.848 107.734 160.619 108.653 159.537C108.481 158.824 108.309 158.111 108.137 157.395C110.236 157.756 112.339 158.114 114.438 158.476C114.957 159.644 115.535 161.359 115.632 163.471C115.735 165.727 115.246 167.577 114.796 168.803C113.639 170.484 110.783 174.049 105.274 176.137C103.312 176.881 101.464 177.267 99.9294 177.47C100.194 176.798 101.093 174.294 100.098 171.335C99.193 168.648 97.2796 167.232 96.6464 166.802H96.643Z" fill="#99D3FF"/>
<path d="M96.4744 166.771C96.6086 166.675 96.8736 166.544 97.0319 166.513C99.1379 165.889 101.168 164.952 102.996 163.743C104.94 162.451 106.657 160.86 108.071 159.041L107.91 159.716L107.968 157.44C107.968 157.44 107.968 157.391 107.968 157.388C107.968 157.288 108.064 157.209 108.164 157.226L114.465 158.308C114.524 158.318 114.572 158.356 114.593 158.407C116.069 161.673 116.213 165.507 114.954 168.865C111.585 173.853 105.845 176.902 99.9466 177.642C99.8193 177.659 99.7126 177.525 99.7642 177.408C101.227 173.819 99.9879 169.427 96.8426 167.16C96.7153 167.071 96.5191 166.943 96.4709 166.771H96.4744ZM96.8116 166.833C96.8426 166.823 96.8667 166.795 96.8701 166.774C96.8805 166.757 96.8564 166.74 96.8942 166.768L97.0491 166.881C100.318 169.237 101.605 173.805 100.084 177.532L99.9019 177.298C105.704 176.571 111.316 173.584 114.651 168.703C115.167 167.281 115.553 165.29 115.46 163.609C115.401 161.866 114.985 160.14 114.276 158.545L114.403 158.645L108.102 157.564C108.102 157.564 108.298 157.347 108.298 157.353L109.389 159.355C109.496 159.548 109.458 159.782 109.317 159.933C106.199 163.368 102.06 165.769 97.5584 166.785L97.1179 166.881C96.9734 166.919 96.9493 166.85 96.8082 166.833H96.8116Z" fill="#9992FF"/>
<path d="M96.6806 197.765C96.5843 197.765 96.5085 197.689 96.5085 197.593V167.256C96.5085 167.16 96.5843 167.084 96.6806 167.084C96.777 167.084 96.8527 167.16 96.8527 167.256V197.593C96.8527 197.689 96.777 197.765 96.6806 197.765Z" fill="#9992FF"/>
<path opacity="0.64" d="M127.662 123.155C120.47 124.244 116.912 127.96 114.341 126.355C112.934 125.48 113.701 124.185 112.297 122.8C109.517 120.058 105.033 123.679 97.1109 123.599C89.3543 123.524 85.5173 119.969 81.5702 122.711C79.9528 123.837 80.2591 124.667 78.6383 125.377C75.6341 126.696 72.974 124.533 67.1824 123.424C64.6634 122.941 62.5539 122.848 61.1843 122.845V122.855C61.4493 137.378 71.7386 149.055 84.3921 149.055H109.31C121.95 149.055 132.232 137.395 132.514 122.89C131.472 122.845 129.748 122.838 127.662 123.155ZM110.353 133.155C110.353 135.428 108.494 137.288 106.223 137.288H87.0418C84.7706 137.288 82.9123 135.428 82.9123 133.155V129.69C82.9123 127.416 84.7706 125.556 87.0418 125.556H106.223C108.494 125.556 110.353 127.416 110.353 129.69V133.155Z" fill="#523333"/>
<path d="M65.3998 86.0127C70.3208 83.164 81.5977 77.5183 96.9938 77.4666C112.204 77.415 123.405 82.8506 128.361 85.6407C129.448 82.203 130.539 78.7687 131.626 75.331C126.829 72.1998 113.88 64.6596 95.7481 64.8421C78.3905 65.0178 66.0089 72.1757 61.174 75.331L65.3963 86.0127H65.3998Z" fill="#523333"/>
<path d="M49.7319 84.0856C49.9418 83.4621 50.1517 82.8972 50.3479 82.4012C52.6087 80.3964 53.882 77.3066 53.4002 74.2236C54.3156 77.8887 52.6879 81.819 49.7319 84.0856Z" fill="#3D2424"/>
<path d="M85.9612 61.8828C85.9853 61.8691 86.0059 61.8553 86.03 61.8449C84.2061 63.178 82.2309 64.2975 80.1558 65.169C78.6657 65.7994 77.1206 66.2988 75.5514 66.6709C73.9822 67.0429 72.3855 67.284 70.7819 67.3977C72.3786 67.2254 73.965 66.9292 75.5101 66.5021C77.0552 66.0784 78.5659 65.5307 80.0147 64.8555C82.458 63.7257 84.7258 62.248 86.7423 60.4912C86.4808 60.9562 86.2227 61.4178 85.9612 61.8828Z" fill="#3D2424"/>
<path d="M121.111 57.1055C120.914 57.209 120.745 57.2883 120.618 57.34C120.783 57.2642 120.949 57.1848 121.111 57.1055Z" fill="#3D2424"/>
<path d="M121.461 57.6364C116.017 60.0683 109.85 60.7434 104.007 59.5929C109.534 60.4782 115.325 59.7307 120.418 57.4297C120.773 57.4951 121.12 57.564 121.461 57.6364Z" fill="#3D2424"/>
<path d="M140.512 81.4824L140.505 81.4997C134.362 79.3812 129.042 75.1375 125.549 69.6777C127.383 72.3129 129.637 74.6552 132.218 76.5566C134.352 78.1308 136.695 79.395 139.166 80.3147C139.603 80.6661 140.054 81.0553 140.512 81.4824Z" fill="#3D2424"/>
<path d="M189.681 120.671C189.681 151.948 174.229 179.617 150.543 196.465C135.356 207.266 116.789 213.615 96.7316 213.615C76.6739 213.615 58.2108 207.299 43.0485 196.556C19.2883 179.717 3.78223 152.006 3.78223 120.671C3.78223 69.336 45.3968 27.7217 96.7316 27.7217C148.066 27.7217 189.681 69.336 189.681 120.671Z" fill="#2441FF"/>
<g filter="url(#filter1_d_2838_5000)">
<path d="M119.593 174.159C119.721 171.542 119.237 168.891 118.152 166.497C118.123 166.435 118.069 166.39 117.999 166.377L110.415 165.077C110.386 165.073 110.361 165.077 110.337 165.077C109.512 161.88 109.525 158.405 110.415 155.253H111.794C127.006 155.253 139.382 141.234 139.721 123.794H139.729C147.516 123.794 153.827 117.263 153.827 109.203C153.827 103.384 150.535 98.3606 145.772 96.0165C146.352 91.117 146.302 86.9548 146.302 86.9548C146.232 81.3015 146.078 74.6543 142.455 67.5019C141.519 65.6589 140.545 64.1638 139.738 63.0373C139.568 62.7971 139.402 62.5776 139.249 62.3705C139.763 62.2835 140.346 62.209 140.997 62.1675C141.577 62.1303 142.206 62.122 142.881 62.1593C144.032 62.2172 145.043 62.387 145.875 62.5858C144.84 60.7967 143.051 58.2828 140.102 56.1706C134.631 52.2609 128.589 52.1823 125.362 52.4887H125.354C124.484 52.5716 123.822 52.6834 123.428 52.7538C123.453 52.7207 123.478 52.6875 123.507 52.6544C124.029 51.9586 124.903 50.9978 126.207 50.186C128.183 48.9601 130.092 48.7282 131.061 48.6785C129.288 47.7301 127.098 46.7858 124.497 46.1273C118.007 44.479 112.296 45.4647 108.734 46.4752C108.154 46.6409 107.628 46.8065 107.168 46.9598C107.21 46.8893 107.251 46.8272 107.284 46.7527C107.284 46.7527 107.287 46.7499 107.293 46.7444C107.827 45.8374 108.361 44.918 108.891 43.9861C109.55 42.8389 110.192 41.7 110.817 40.5693C105.578 42.3336 100.339 44.0979 95.0998 45.8622C93.3769 44.5991 90.2252 42.6277 85.8061 41.6379C81.5858 40.6894 78.0489 41.0539 75.974 41.4225C77.3449 43.2779 78.7199 45.1292 80.0907 46.9846C80.1446 47.055 80.1943 47.1254 80.2481 47.1958C79.8505 47.0716 79.4364 46.9515 79.0056 46.8314C76.1148 46.032 72.4827 45.3487 68.279 45.27C59.4201 45.1043 52.4954 47.7135 48.6148 49.5441C50.4246 49.5151 53.8539 49.7429 57.163 51.8965C58.0286 52.4597 58.7451 53.0603 59.3414 53.6525V53.6566C59.3994 53.7105 59.4574 53.7643 59.5112 53.8223C59.2793 53.814 58.8942 53.8016 58.393 53.8223C56.4465 53.8927 52.7729 54.4187 49.6833 57.2391C47.6871 59.0655 46.7221 61.1239 46.2624 62.3705C46.8339 62.1344 48.184 61.6706 49.8945 61.9439C51.3731 62.18 52.4002 62.855 52.8889 63.2278C52.8847 63.2402 52.8806 63.2485 52.8764 63.2609C52.7936 63.4514 52.7108 63.6461 52.6321 63.849C50.4329 69.1916 47.4386 78.6758 48.6148 90.3715C48.6148 90.3715 48.8426 92.637 49.4969 95.7845C44.4649 98.0127 40.9404 103.181 40.9404 109.203C40.9404 116.857 46.631 123.127 53.8746 123.74V123.752C54.1935 141.213 66.5768 155.253 81.8053 155.253H83.0395C83.7353 157.697 83.8968 160.277 83.5572 162.803C83.4537 163.569 83.3046 164.331 83.1141 165.081C83.0851 165.073 83.0561 165.073 83.0271 165.077L75.4439 166.377C75.3776 166.39 75.3196 166.431 75.2906 166.497C74.1973 168.908 73.7168 171.575 73.8535 174.209C58.2895 178.363 46.6517 186.601 43.0526 196.553C58.128 207.234 76.5207 213.537 96.3878 213.608C96.3878 213.724 96.4789 213.819 96.5949 213.819C96.7109 213.819 96.802 213.728 96.802 213.612C116.835 213.595 135.377 207.25 150.547 196.462C146.894 186.509 135.203 178.28 119.597 174.159H119.593ZM110.055 155.253C106.912 157.324 102.14 159.912 95.8867 161.47C102.14 159.912 106.907 157.324 110.051 155.253H110.055Z" fill="black"/>
</g>
<path d="M150.543 196.468C135.356 207.269 116.789 213.618 96.7315 213.618C76.6739 213.618 58.2108 207.302 43.0485 196.559C48.2627 182.138 70.3539 171.308 96.8144 171.308C123.275 171.308 145.267 182.088 150.543 196.468Z" fill="#FBD3FF"/>
<path d="M113.298 149.629H80.1653C80.5547 150.081 80.8901 150.528 81.1676 150.979C81.2422 151.099 81.3043 151.219 81.3747 151.34C91.0825 152.545 100.79 153.75 110.498 154.959C107.367 157.072 102.439 159.842 95.8826 161.474C91.037 162.679 86.7629 162.899 83.5573 162.812C83.5573 162.812 83.5573 162.808 83.5573 162.803C83.2922 164.771 82.7331 166.701 81.8841 168.502C81.4327 169.401 80.9274 170.3 80.1695 171.198C87.1149 176.23 92.6522 177.104 96.595 176.839C104.116 176.334 113.302 171.198 113.302 171.198C108.622 165.284 108.465 155.473 113.302 149.625L113.298 149.629Z" fill="#E6AA8F"/>
<path d="M110.502 154.96C107.371 157.073 102.443 159.843 95.8868 161.475C91.0411 162.684 86.7712 162.904 83.5615 162.817C83.5615 162.813 83.5573 162.809 83.5573 162.809C84.0874 158.878 83.4041 154.807 81.3788 151.345C91.0867 152.55 100.795 153.755 110.502 154.96Z" fill="#E3917B"/>
<path d="M144.803 101.704C142.301 112.447 128.87 144.892 99.0385 145.587C67.1691 146.333 52.0317 104.603 51.3939 102.772C49.2402 96.597 48.6149 90.3723 48.6149 90.3723C47.4387 78.6765 50.433 69.1924 52.6322 63.8498C52.7109 63.6468 52.7937 63.4522 52.8765 63.2617C52.8807 63.2492 52.8848 63.2409 52.889 63.2285C52.4003 62.8558 51.3732 62.1807 49.8946 61.9446C48.1841 61.6713 46.834 62.1352 46.2625 62.3712C46.7222 61.1246 47.6872 59.0663 49.6834 57.2398C52.773 54.4194 56.4466 53.8935 58.3931 53.8231H58.3973C58.8984 53.8023 59.2836 53.8148 59.5155 53.8231C59.4617 53.7651 59.4037 53.7112 59.3457 53.6574C59.3457 53.6574 59.3457 53.6574 59.3415 53.6574C58.7452 53.0651 58.0287 52.4646 57.1631 51.9014C53.854 49.7478 50.4247 49.52 48.6149 49.549C52.4955 47.7184 59.4202 45.1092 68.2791 45.2749C72.4828 45.3536 76.1149 46.0369 79.0057 46.8363C79.4365 46.9564 79.8506 47.0765 80.2482 47.2007C80.1944 47.1303 80.1447 47.0599 80.0908 46.9895C78.72 45.1341 77.345 43.2828 75.9741 41.4274C78.049 41.0588 81.5859 40.6943 85.8062 41.6427C90.2253 42.6326 93.377 44.604 95.0999 45.8671C100.339 44.1028 105.578 42.3385 110.817 40.5742C110.192 41.7049 109.55 42.8438 108.891 43.991C108.361 44.9229 107.827 45.8423 107.293 46.7493C107.293 46.7493 107.29 46.752 107.284 46.7576C107.251 46.8321 107.21 46.8942 107.168 46.9646C107.628 46.8114 108.154 46.6457 108.734 46.4801C112.296 45.4695 118.007 44.4838 124.497 46.1322C127.098 46.7907 129.289 47.735 131.061 48.6834C130.092 48.7331 128.183 48.965 126.207 50.1909C124.903 51.0027 124.029 51.9635 123.507 52.6593C123.478 52.6924 123.453 52.7255 123.428 52.7587C123.822 52.6883 124.484 52.5764 125.354 52.4936C125.354 52.4936 125.358 52.4936 125.362 52.4936C128.589 52.1871 134.631 52.2658 140.102 56.1755C143.051 58.2876 144.84 60.8016 145.876 62.5907C145.043 62.3919 144.033 62.2221 142.881 62.1641C142.206 62.1269 141.577 62.1352 140.997 62.1724C140.347 62.2138 139.763 62.2884 139.249 62.3754C139.402 62.5824 139.568 62.8019 139.738 63.0422C140.545 64.1687 141.519 65.6638 142.455 67.5068C146.079 74.6592 146.232 81.3064 146.302 86.9596C146.302 86.9596 146.397 94.87 144.803 101.708V101.704Z" fill="#291919"/>
<path d="M55.0384 123.795C62.8245 123.795 69.1363 117.262 69.1363 109.204C69.1363 101.146 62.8245 94.6133 55.0384 94.6133C47.2523 94.6133 40.9405 101.146 40.9405 109.204C40.9405 117.262 47.2523 123.795 55.0384 123.795Z" fill="#E6AA8F"/>
<path d="M139.725 123.795C147.511 123.795 153.823 117.262 153.823 109.204C153.823 101.146 147.511 94.6133 139.725 94.6133C131.939 94.6133 125.627 101.146 125.627 109.204C125.627 117.262 131.939 123.795 139.725 123.795Z" fill="#E6AA8F"/>
<path d="M139.725 99.9102V123.057C139.725 123.306 139.721 123.55 139.717 123.799C139.377 141.239 127.002 155.258 111.79 155.258H81.8012C66.5727 155.258 54.1894 141.218 53.8705 123.757V123.745C53.8705 123.517 53.8622 123.285 53.8622 123.057V99.9102C54.3592 95.0895 55.9371 85.6923 62.0459 77.1358C72.6774 62.2469 88.8005 61.4352 94.5117 61.1494C111.401 60.3004 125.275 69.3249 131.546 77.1358C136.603 83.4434 138.47 90.3308 138.47 90.3308C139.286 93.3541 139.725 96.5721 139.725 99.9102Z" fill="#E6AA8F"/>
<path d="M61.3958 92.688C63.3878 90.7249 66.1047 89.2671 68.9665 89.0725C70.6149 88.9524 72.8016 89.1222 74.4459 89.1677C76.2599 89.2174 80.5795 89.2547 82.4474 89.2837L82.3397 92.249C79.2211 91.926 74.6612 91.5036 71.5965 91.0646C68.0471 90.435 64.9119 91.135 62.0998 93.4708L61.3958 92.6839V92.688Z" fill="#291919"/>
<path d="M130.966 93.4735C128.162 91.1418 125.01 90.4378 121.469 91.0673C118.421 91.5063 113.828 91.9287 110.726 92.2518L110.618 89.2864C112.519 89.2574 116.785 89.2243 118.62 89.1705C120.272 89.1249 122.442 88.9551 124.099 89.0711C126.961 89.2657 129.678 90.7235 131.67 92.6866L130.966 93.4735Z" fill="#291919"/>
<path d="M98.061 112.798L97.3776 120.41H95.6879L95.0087 112.798H98.061Z" fill="#EB8C6A"/>
<path d="M83.1391 129.827L97.0382 136.868L96.0359 136.876L109.223 129.827L110.531 132.411L97.0589 138.897L96.5619 139.137L96.0566 138.905L81.8842 132.44L83.1391 129.827Z" fill="#EB8C6A"/>
<path d="M75.3279 108.172C75.3569 111.755 75.5309 115.32 76.2142 118.857H67.9311C68.6145 115.32 68.7843 111.755 68.8174 108.172V108.073C68.805 104.457 68.6476 100.858 67.9311 97.2881H76.2142C75.4977 100.858 75.3362 104.457 75.3279 108.073V108.172Z" fill="#3D0000"/>
<path d="M124.252 108.172C124.281 111.755 124.455 115.32 125.139 118.857H116.855C117.539 115.32 117.709 111.755 117.742 108.172V108.073C117.729 104.457 117.568 100.858 116.855 97.2881H125.139C124.422 100.858 124.261 104.457 124.252 108.073V108.172Z" fill="#3D0000"/>
<path d="M76.2142 118.857H67.9311C68.6145 115.32 68.7843 111.754 68.8174 108.172H75.3279C75.3569 111.754 75.5309 115.32 76.2142 118.857Z" fill="#525428"/>
<path d="M125.139 118.857H116.855C117.539 115.32 117.709 111.754 117.742 108.172H124.252C124.281 111.754 124.455 115.32 125.139 118.857Z" fill="#525428"/>
<path d="M96.5455 176.595C94.1186 175.974 90.5403 174.723 86.9247 172.047C85.0195 170.639 83.5493 169.161 82.4352 167.86C82.6423 167.003 82.8494 166.146 83.0564 165.284C80.5301 165.719 77.9996 166.15 75.4732 166.585C74.8478 167.989 74.152 170.051 74.0361 172.59C73.9118 175.303 74.4999 177.527 75.0425 179.001C76.4341 181.022 79.8716 185.309 86.5022 187.818C88.8629 188.713 91.0869 189.177 92.9341 189.421C92.4785 188.266 91.5756 185.441 92.7311 182.045C93.6671 179.299 95.5143 177.477 96.5414 176.595H96.5455Z" fill="#FBD3FF"/>
<path d="M96.3466 176.639C96.1809 176.656 96.1395 176.722 95.978 176.677L95.4603 176.552C90.188 175.231 85.359 172.357 81.6771 168.323C81.5032 168.137 81.4742 167.863 81.586 167.648L82.8575 165.233C82.8575 165.225 83.0935 165.486 83.0935 165.486L75.5103 166.787L75.6635 166.666C74.8104 168.584 74.3092 170.659 74.2388 172.755C74.127 174.776 74.5867 177.169 75.2121 178.88C79.2294 184.748 85.9802 188.339 92.9629 189.213L92.7434 189.495C92.2961 188.368 92.0393 187.171 91.9772 185.958C91.7701 182.446 93.493 179.05 96.0732 176.735L96.156 176.66C96.185 176.635 96.214 176.602 96.2182 176.61C96.2347 176.61 96.272 176.643 96.3466 176.643V176.639ZM96.7483 176.544C96.6986 176.714 96.4998 176.921 96.3548 177.041C93.8658 179.273 92.1967 182.549 92.3955 185.937C92.4535 187.101 92.7061 188.256 93.1327 189.341C93.1948 189.482 93.0664 189.648 92.9132 189.623C85.8145 188.733 78.9064 185.067 74.8518 179.07C73.336 175.032 73.5099 170.423 75.2867 166.497C75.3156 166.43 75.3736 166.389 75.4399 166.377L83.0231 165.076C83.1432 165.055 83.2592 165.151 83.2592 165.271V165.329L83.2882 168.058C83.2882 168.058 83.0977 167.275 83.1018 167.284C84.7833 169.425 86.8127 171.313 89.0947 172.854C91.24 174.303 93.6214 175.447 96.0939 176.233C96.2803 176.279 96.5826 176.428 96.7442 176.54L96.7483 176.544Z" fill="#D092FF"/>
<path d="M96.5452 176.596C99.0136 176.028 102.749 174.815 106.51 172.048C108.419 170.64 109.894 169.162 110.999 167.861C110.792 167.004 110.585 166.147 110.378 165.285C112.904 165.72 115.435 166.151 117.961 166.586C118.587 167.99 119.282 170.052 119.398 172.591C119.523 175.304 118.935 177.528 118.392 179.002C117 181.023 113.563 185.31 106.932 187.819C104.572 188.714 102.348 189.178 100.5 189.422C100.819 188.615 101.9 185.604 100.703 182.046C99.6141 178.816 97.3114 177.113 96.5494 176.596H96.5452Z" fill="#FBD3FF"/>
<path d="M96.3423 176.557C96.5038 176.441 96.8227 176.284 97.0132 176.247C99.5479 175.497 101.991 174.37 104.191 172.917C106.531 171.364 108.601 169.45 110.299 167.264L110.105 168.075L110.175 165.338C110.175 165.338 110.175 165.28 110.175 165.276C110.175 165.156 110.291 165.06 110.411 165.081L117.994 166.381C118.065 166.394 118.123 166.439 118.148 166.502C119.924 170.428 120.098 175.037 118.583 179.075C114.528 185.072 107.62 188.738 100.521 189.628C100.368 189.649 100.24 189.487 100.302 189.346C102.062 185.031 100.571 179.75 96.7854 177.025C96.6322 176.918 96.3961 176.764 96.3381 176.557H96.3423ZM96.7482 176.632C96.7854 176.619 96.8144 176.586 96.8227 176.561C96.8351 176.541 96.8061 176.52 96.8517 176.553L97.0381 176.69C100.973 179.523 102.522 185.014 100.691 189.495L100.471 189.214C107.454 188.34 114.205 184.749 118.222 178.881C118.843 177.17 119.307 174.776 119.195 172.755C119.125 170.66 118.624 168.585 117.771 166.667L117.924 166.787L110.341 165.487C110.341 165.487 110.577 165.226 110.577 165.234L111.89 167.64C112.018 167.872 111.973 168.154 111.803 168.336C108.051 172.465 103.068 175.352 97.651 176.574L97.1209 176.69C96.9469 176.735 96.918 176.652 96.7482 176.632Z" fill="#D092FF"/>
<path d="M96.5907 213.823C96.4748 213.823 96.3837 213.732 96.3837 213.616V177.142C96.3837 177.026 96.4748 176.935 96.5907 176.935C96.7067 176.935 96.7978 177.026 96.7978 177.142V213.616C96.7978 213.732 96.7067 213.823 96.5907 213.823Z" fill="#D092FF"/>
<path opacity="0.22" d="M133.877 124.117C125.222 125.426 120.939 129.894 117.845 127.964C116.151 126.912 117.075 125.355 115.385 123.69C112.039 120.394 106.642 124.746 97.1085 124.651C87.7734 124.56 83.1556 120.286 78.4052 123.583C76.4586 124.937 76.8272 125.935 74.8765 126.788C71.261 128.374 68.0595 125.773 61.0892 124.44C58.0576 123.86 55.5188 123.748 53.8705 123.744V123.757C54.1894 141.217 66.5727 155.257 81.8013 155.257H111.79C127.002 155.257 139.377 141.238 139.717 123.798C138.462 123.744 136.387 123.736 133.877 124.117ZM113.045 136.14C113.045 138.873 110.809 141.11 108.075 141.11H84.9903C82.2568 141.11 80.0204 138.873 80.0204 136.14V131.973C80.0204 129.24 82.2568 127.004 84.9903 127.004H108.075C110.809 127.004 113.045 129.24 113.045 131.973V136.14Z" fill="#523333"/>
<path d="M61.9549 79.8985C67.7448 76.8172 80.1985 71.1888 96.9098 71.3048C114.019 71.4249 126.626 77.5006 132.353 80.7227C132.291 82.1308 132.374 84.566 133.476 87.2953C134.905 90.8239 138.143 95.0939 139.73 94.6093C141.291 94.133 141.97 88.8318 138.591 68.737C132.817 64.9723 117.232 55.9065 95.4105 56.126C74.5204 56.3372 59.619 64.9434 53.8001 68.737C52.2263 88.9975 53.4025 94.2573 55.0385 94.6093C56.7655 94.9779 59.909 90.0702 61.1721 86.0114C61.9425 83.5348 62.0212 81.3605 61.9549 79.8985Z" fill="#291919"/>
<path d="M103.4 98.2939C104.766 97.3372 106.394 96.7905 107.926 96.1651C118.061 92.2555 129.645 92.3176 139.717 96.4468L140.102 96.6C140.57 96.7864 140.831 97.2709 140.752 97.7472C140.4 100.046 140.168 102.233 139.792 104.469C138.893 111.05 136.284 116.91 131.459 121.553C123.416 125.699 113.228 124.783 105.98 119.399C104.406 113.104 103.673 106.515 103.329 100.017C103.296 99.4577 103.288 98.8489 103.395 98.3022L103.4 98.2939ZM104.704 99.1181C104.862 99.3251 104.795 99.7517 104.804 99.9837C104.746 106.415 105.247 112.839 106.307 119.188L106.224 119.06C109.794 121.648 114.06 123.284 118.454 123.657C122.77 124.092 127.57 123.048 131.227 121.213C134.403 118.401 136.81 114.715 138.085 110.669C139.377 106.681 139.551 102.075 137.261 98.4016L138.296 99.702C128.415 94.9765 116.648 94.6825 106.427 98.5797C105.996 98.7329 105.566 98.9151 105.139 99.0808C104.977 99.1429 104.891 99.1263 104.7 99.1181H104.704Z" fill="#291919"/>
<path d="M89.1235 99.1179C88.9329 99.1262 88.8418 99.1427 88.6845 99.0806C88.2579 98.9108 87.8272 98.7327 87.3964 98.5795C77.175 94.6864 65.4088 94.9805 55.527 99.706L56.5624 98.4055C54.2763 102.079 54.4502 106.68 55.7382 110.673C56.9476 114.661 59.6106 118.587 62.5511 121.184C66.4939 123.16 70.9751 124.05 75.3693 123.661C79.7635 123.288 84.0293 121.652 87.5994 119.064L87.5165 119.192C88.5768 112.847 89.0779 106.419 89.0199 99.9876C89.0323 99.7681 88.9537 99.354 89.1193 99.122L89.1235 99.1179ZM90.4281 98.2937C90.5357 98.8404 90.5316 99.4492 90.4943 100.008C90.1506 106.506 89.4175 113.1 87.8437 119.391C80.596 124.775 70.4077 125.694 62.3648 121.544C56.2808 115.572 54.5455 109.397 53.5473 101.185C53.3941 100.07 53.2657 98.9315 53.0711 97.7388C52.9882 97.2418 53.2699 96.7696 53.7213 96.5915C56.7446 95.3574 59.8922 94.4214 63.102 93.883C71.4928 92.4293 80.2564 93.5972 88.0259 97.0264C88.8418 97.395 89.7157 97.7388 90.4281 98.2854V98.2937Z" fill="#291919"/>
<path d="M104.472 109.656C102.124 108.707 99.6556 108.214 97.1293 108.181C94.4621 108.148 91.8446 108.629 89.3555 109.614L89.0491 108.844C91.6376 107.817 94.3503 107.312 97.1376 107.353C99.7675 107.386 102.339 107.904 104.779 108.889L104.468 109.66L104.472 109.656Z" fill="#291919"/>
<path d="M108.734 46.4756C104.953 50.029 100.107 52.2779 95.0791 53.3713C99.5769 52.1412 103.888 49.9545 107.284 46.7531C107.251 46.8276 107.21 46.8897 107.168 46.9601C107.628 46.8069 108.154 46.6412 108.734 46.4756Z" fill="black"/>
<path d="M67.5128 61.6205C65.0237 58.4687 61.9341 55.7229 58.3972 53.8219C58.8983 53.8012 59.2835 53.8136 59.5154 53.8219C59.4616 53.7639 59.4036 53.7101 59.3456 53.6562C62.5595 55.7312 65.3095 58.506 67.5128 61.6205Z" fill="black"/>
<path d="M62.4353 70.4929C59.6356 67.6849 56.3058 65.3366 52.6322 63.8498C52.7109 63.6469 52.7937 63.4522 52.8766 63.2617C56.5253 64.9639 59.7598 67.5068 62.4353 70.4929Z" fill="black"/>
<path d="M139.249 62.3711C139.402 62.5781 139.568 62.7977 139.738 63.0379C135.074 63.4437 130.56 65.2205 126.638 67.7758C130.825 64.7193 135.774 62.5781 140.993 62.1309V62.1681C140.347 62.2096 139.763 62.2841 139.249 62.3711Z" fill="black"/>
<path d="M79.0057 46.833C79.4364 46.9531 79.8506 47.0732 80.2481 47.1975C80.1943 47.1271 80.1446 47.0566 80.0908 46.9862C81.4451 48.5228 83.0313 49.877 84.7915 50.9828C82.671 49.935 80.7079 48.531 79.0057 46.833Z" fill="black"/>
<path d="M125.354 52.4893C122.227 53.8435 119.316 55.7404 116.793 58.0969C118.748 55.9847 121.014 54.1459 123.507 52.6549C123.478 52.6881 123.453 52.7212 123.428 52.7543C123.822 52.6839 124.484 52.5721 125.354 52.4893Z" fill="black"/>
<defs>
<filter id="filter0_d_2838_5000" x="1.21143" y="11.6377" width="188.127" height="226.124" filterUnits="userSpaceOnUse" color-interpolation-filters="sRGB">
<feFlood flood-opacity="0" result="BackgroundImageFix"/>
<feColorMatrix in="SourceAlpha" type="matrix" values="0 0 0 0 0 0 0 0 0 0 0 0 0 0 0 0 0 0 127 0" result="hardAlpha"/>
<feOffset/>
<feGaussianBlur stdDeviation="20"/>
<feColorMatrix type="matrix" values="0 0 0 0 0 0 0 0 0 0 0 0 0 0 0 0 0 0 0.5 0"/>
<feBlend mode="normal" in2="BackgroundImageFix" result="effect1_dropShadow_2838_5000"/>
<feBlend mode="normal" in="SourceGraphic" in2="effect1_dropShadow_2838_5000" result="shape"/>
</filter>
<filter id="filter1_d_2838_5000" x="0.94043" y="0.569336" width="192.887" height="253.25" filterUnits="userSpaceOnUse" color-interpolation-filters="sRGB">
<feFlood flood-opacity="0" result="BackgroundImageFix"/>
<feColorMatrix in="SourceAlpha" type="matrix" values="0 0 0 0 0 0 0 0 0 0 0 0 0 0 0 0 0 0 127 0" result="hardAlpha"/>
<feOffset/>
<feGaussianBlur stdDeviation="20"/>
<feColorMatrix type="matrix" values="0 0 0 0 0 0 0 0 0 0 0 0 0 0 0 0 0 0 0.5 0"/>
<feBlend mode="normal" in2="BackgroundImageFix" result="effect1_dropShadow_2838_5000"/>
<feBlend mode="normal" in="SourceGraphic" in2="effect1_dropShadow_2838_5000" result="shape"/>
</filter>
</defs>
</g>
</svg>

