<svg xmlns="http://www.w3.org/2000/svg" width="185.903" height="186.082" viewBox="0 0 185.903 186.082" fill="none">
<g transform="translate(-3.148,-33.049)">
<path d="M155.754 125.269C155.754 145.182 145.926 162.799 130.861 173.525C121.201 180.402 109.392 184.444 96.6345 184.444C83.877 184.444 72.1336 180.423 62.4897 173.583C47.3771 162.862 37.5146 145.219 37.5146 125.269C37.5146 92.5856 63.9833 66.0908 96.6345 66.0908C129.286 66.0908 155.754 92.5856 155.754 125.269Z" fill="#2441FF"/>
<g filter="url(#filter0_d_2838_5349)">
<path d="M135.15 92.6795C136.201 91.6195 136.651 90.4329 136.854 89.7157C136.282 89.5469 135.426 89.2648 134.433 88.8192C130.292 86.9576 128.008 84.1441 126.81 82.8942C124.892 80.8955 121.589 78.5699 115.514 77.3095C115.253 77.2541 114.987 77.2013 114.716 77.1512C114.713 77.1512 114.708 77.1486 114.705 77.1486C114.724 77.1407 114.755 77.1301 114.797 77.1143C114.821 77.1038 114.845 77.0932 114.869 77.0827C114.966 77.0431 115.095 76.9825 115.245 76.9034C115.248 76.9007 115.251 76.9007 115.253 76.8981C115.943 76.5342 117.06 75.7458 117.395 74.3668C117.556 73.7076 117.487 73.1222 117.395 72.7188C111.489 72.7926 103.57 73.7049 95.0645 77.2383C92.6094 78.2613 90.3861 79.3846 88.392 80.5316C88.3736 80.5396 88.3578 80.5501 88.3393 80.5606C88.5395 80.2047 88.7371 79.8513 88.9373 79.4954C90.2017 77.2356 91.4688 74.9759 92.7332 72.7188C88.695 74.3035 85.2915 75.3292 82.8707 75.9831C76.3773 77.7366 73.2057 77.8289 70.7638 80.5606C68.983 82.5488 68.4351 84.9931 68.2534 86.7545C68.0374 86.417 67.3446 85.4229 66.0116 84.9589C64.1097 84.2997 62.4739 85.2674 62.2447 85.4071C61.5861 87.1632 60.622 89.2753 59.1943 91.5114C57.4767 94.2115 55.6223 96.2471 54.0839 97.7052C54.8531 97.9294 56.8419 98.3882 59.0151 97.5259C59.8054 97.2122 60.4297 96.7982 60.8907 96.4264C60.9566 96.371 61.0198 96.3209 61.0777 96.2682C60.9276 96.6479 60.7669 97.0803 60.6062 97.5576C59.8212 99.878 59.0099 103.319 59.2153 107.49C59.3971 111.124 60.2927 114.17 61.2621 116.495C61.1884 116.975 61.1489 117.468 61.1489 117.969C61.1489 122.842 64.7683 126.834 69.3755 127.224V127.232C69.5784 138.349 77.4547 147.288 87.1408 147.288H87.9258C88.3683 148.844 88.471 150.486 88.255 152.095C88.1892 152.583 88.0943 153.068 87.9732 153.545C87.9547 153.54 87.9363 153.54 87.9179 153.543L83.0946 154.37C83.0524 154.378 83.0156 154.405 82.9971 154.447C82.3017 155.982 81.9961 157.68 82.083 159.357C72.1836 162.001 64.7815 167.246 62.4923 173.582C72.0809 180.383 83.7795 184.396 96.4159 184.441C96.4159 184.515 96.4738 184.575 96.5476 184.575C96.6213 184.575 96.6793 184.517 96.6793 184.443C109.421 184.433 121.214 180.393 130.864 173.524C128.54 167.188 121.104 161.949 111.178 159.325C111.26 157.659 110.952 155.971 110.261 154.447C110.243 154.407 110.209 154.378 110.164 154.37L105.341 153.543C105.322 153.54 105.306 153.543 105.291 153.543C104.766 151.507 104.774 149.295 105.341 147.288H106.218C115.893 147.288 123.764 138.362 123.98 127.259H123.986C128.938 127.259 132.953 123.1 132.953 117.969C132.953 117.094 132.834 116.247 132.615 115.443C134.37 111.712 136.074 105.9 133.532 100.305C132.615 98.2853 131.343 96.7296 130.1 95.5615C129.749 95.2345 129.404 94.9366 129.07 94.6676C129.064 94.665 129.062 94.6597 129.057 94.6571C129.541 94.7125 132.816 95.0341 135.152 92.6768L135.15 92.6795ZM96.0971 151.251C100.075 150.26 103.107 148.612 105.106 147.293C103.107 148.612 100.072 150.26 96.0945 151.251H96.0971Z" fill="black"/>
</g>
<path d="M130.861 173.526C121.201 180.402 109.392 184.445 96.6346 184.445C83.8771 184.445 72.1337 180.423 62.4898 173.584C65.8063 164.402 79.8573 157.507 96.6873 157.507C113.517 157.507 127.505 164.37 130.861 173.526Z" fill="#99D3FF"/>
<path d="M129.054 94.6597C129.054 94.6597 129.062 94.6676 129.067 94.6703C129.402 94.9392 129.747 95.2372 130.097 95.5641C131.34 96.7323 132.613 98.288 133.529 100.308C137.607 109.289 130.75 118.824 130.3 119.427C107.92 119.691 85.5365 119.955 63.1561 120.218C61.8601 118.098 59.5209 113.621 59.2153 107.49C59.0099 103.319 59.8212 99.878 60.6062 97.5576C60.7669 97.0803 60.9276 96.6479 61.0777 96.2682C61.0198 96.3209 60.9566 96.371 60.8907 96.4264C60.4297 96.7982 59.8054 97.2122 59.0151 97.5259C56.8419 98.3882 54.8531 97.9294 54.0839 97.7052C55.6223 96.2471 57.4767 94.2115 59.1943 91.5114C60.622 89.2753 61.5861 87.1632 62.2447 85.4071C62.4739 85.2674 64.1097 84.2997 66.0116 84.9589C67.3446 85.4229 68.0374 86.417 68.2534 86.7545C68.4351 84.9931 68.983 82.5488 70.7638 80.5606C73.2057 77.8289 76.3773 77.7366 82.8707 75.9831C85.2915 75.3292 88.695 74.3035 92.7332 72.7188C91.4688 74.9759 90.2017 77.2356 88.9373 79.4954C88.7371 79.8513 88.5395 80.2047 88.3393 80.5606C88.3578 80.5501 88.3736 80.5396 88.392 80.5316C90.3861 79.3846 92.6094 78.2613 95.0645 77.2383C103.57 73.7049 111.489 72.7926 117.395 72.7188C117.487 73.1222 117.556 73.7076 117.395 74.3668C117.06 75.7458 115.943 76.5342 115.253 76.8981C115.251 76.8981 115.248 76.8981 115.245 76.9034C115.095 76.9825 114.966 77.0431 114.869 77.0827C114.845 77.0932 114.821 77.1038 114.797 77.1143C114.755 77.1301 114.724 77.1407 114.705 77.1486C114.708 77.1486 114.713 77.1512 114.716 77.1512C114.987 77.2013 115.253 77.2541 115.514 77.3095C121.589 78.5699 124.892 80.8955 126.81 82.8942C128.008 84.1441 130.292 86.9576 134.433 88.8192C135.426 89.2648 136.282 89.5469 136.854 89.7157C136.651 90.4329 136.201 91.6195 135.15 92.6795C132.813 95.0368 129.539 94.7151 129.054 94.6597Z" fill="#523333"/>
<path d="M107.172 143.707H86.0978C86.3454 143.994 86.5588 144.279 86.7353 144.566C86.7827 144.643 86.8222 144.719 86.867 144.796C93.0416 145.563 99.2162 146.33 105.391 147.1C103.399 148.445 100.265 150.209 96.0947 151.248C93.0126 152.015 90.2941 152.155 88.2552 152.1C88.2552 152.1 88.2552 152.097 88.2552 152.094C88.0866 153.347 87.731 154.576 87.191 155.723C86.9039 156.295 86.5825 156.867 86.1004 157.439C90.518 160.643 94.04 161.199 96.5478 161.031C101.332 160.709 107.174 157.439 107.174 157.439C104.198 153.674 104.097 147.427 107.174 143.704L107.172 143.707Z" fill="#F2BCA2"/>
<path d="M105.393 147.1C103.402 148.445 100.267 150.209 96.0973 151.248C93.0152 152.017 90.2993 152.157 88.2578 152.102C88.2578 152.099 88.2552 152.097 88.2552 152.097C88.5923 149.594 88.1577 147.002 86.8696 144.798C93.0442 145.565 99.2188 146.332 105.393 147.1Z" fill="#E3917B"/>
<path d="M123.981 112.051V126.788C123.981 126.947 123.978 127.102 123.975 127.26C123.759 138.364 115.888 147.29 106.213 147.29H87.1383C77.4523 147.29 69.576 138.351 69.3731 127.234V127.226C69.3731 127.081 69.3679 126.934 69.3679 126.788V112.051C69.684 108.982 70.6876 102.999 74.5731 97.5515C81.3351 88.0721 91.5902 87.5553 95.2228 87.3733C105.965 86.8328 114.79 92.5784 118.778 97.5515C121.994 101.567 123.182 105.952 123.182 105.952C123.701 107.877 123.981 109.926 123.981 112.051Z" fill="#F2BCA2"/>
<path d="M70.1158 127.259C75.0681 127.259 79.0827 123.1 79.0827 117.969C79.0827 112.839 75.0681 108.68 70.1158 108.68C65.1635 108.68 61.1489 112.839 61.1489 117.969C61.1489 123.1 65.1635 127.259 70.1158 127.259Z" fill="#F2BCA2"/>
<path d="M123.981 127.259C128.933 127.259 132.947 123.1 132.947 117.969C132.947 112.839 128.933 108.68 123.981 108.68C119.028 108.68 115.014 112.839 115.014 117.969C115.014 123.1 119.028 127.259 123.981 127.259Z" fill="#F2BCA2"/>
<path d="M118.905 107.537C116.723 106.59 114.418 106.013 112.111 105.815C109.803 105.614 107.493 105.796 105.299 106.329L104.851 103.481C109.877 103.044 115.003 104.272 119.221 106.943L118.907 107.537H118.905Z" fill="#3D0000"/>
<path d="M73.7986 106.943C78.016 104.274 83.1422 103.045 88.1683 103.48L87.7205 106.328C85.5262 105.795 83.2159 105.611 80.9084 105.814C78.6008 106.012 76.2932 106.589 74.1147 107.536L73.8012 106.943H73.7986Z" fill="#3D0000"/>
<path d="M97.4803 120.257L97.0457 125.103H95.9709L95.5389 120.257H97.4803Z" fill="#FF9873"/>
<path d="M87.989 131.101L96.8295 135.583L96.192 135.588L104.579 131.101L105.412 132.746L96.8427 136.875L96.5266 137.028L96.2052 136.88L87.1909 132.764L87.989 131.101Z" fill="#FF9873"/>
<path d="M83.021 117.31C83.0394 119.591 83.15 121.862 83.5847 124.113H78.3162C78.7509 121.862 78.8589 119.591 78.8799 117.31V117.247C78.872 114.945 78.7719 112.654 78.3162 110.381H83.5847C83.129 112.654 83.0262 114.945 83.021 117.247V117.31Z" fill="#3D0000"/>
<path d="M114.139 117.31C114.157 119.591 114.268 121.862 114.703 124.113H109.434C109.869 121.862 109.977 119.591 109.998 117.31V117.247C109.99 114.945 109.887 112.654 109.434 110.381H114.703C114.247 112.654 114.144 114.945 114.139 117.247V117.31Z" fill="#3D0000"/>
<path d="M83.5847 124.116H78.3162C78.7509 121.865 78.8589 119.594 78.8799 117.313H83.021C83.0394 119.594 83.15 121.865 83.5847 124.116Z" fill="#800000"/>
<path d="M114.703 124.116H109.434C109.869 121.865 109.977 119.594 109.998 117.313H114.139C114.157 119.594 114.268 121.865 114.703 124.116Z" fill="#800000"/>
<path d="M96.5158 160.875C94.9721 160.479 92.6962 159.683 90.3965 157.98C89.1848 157.083 88.2496 156.142 87.541 155.314C87.6727 154.768 87.8044 154.222 87.9361 153.674C86.3293 153.951 84.7197 154.225 83.1129 154.502C82.7151 155.396 82.2726 156.709 82.1988 158.325C82.1198 160.052 82.4938 161.468 82.8389 162.407C83.724 163.694 85.9104 166.423 90.1278 168.021C91.6293 168.59 93.0439 168.886 94.2188 169.041C93.929 168.306 93.3547 166.507 94.0897 164.345C94.685 162.597 95.8599 161.437 96.5132 160.875H96.5158Z" fill="#99D3FF"/>
<path d="M96.3897 160.904C96.2843 160.914 96.258 160.957 96.1553 160.928L95.826 160.848C92.4726 160.007 89.4011 158.177 87.0593 155.609C86.9486 155.49 86.9302 155.316 87.0013 155.179L87.81 153.642C87.81 153.637 87.9602 153.803 87.9602 153.803L83.1369 154.631L83.2344 154.554C82.6917 155.775 82.373 157.096 82.3282 158.431C82.2571 159.717 82.5495 161.241 82.9472 162.33C85.5024 166.067 89.7962 168.353 94.2375 168.909L94.0979 169.089C93.8134 168.371 93.6501 167.609 93.6106 166.837C93.4789 164.601 94.5747 162.438 96.2158 160.964L96.2685 160.917C96.287 160.901 96.3054 160.88 96.308 160.885C96.3186 160.885 96.3423 160.906 96.3897 160.906V160.904ZM96.6452 160.843C96.6136 160.951 96.4872 161.083 96.395 161.16C94.8118 162.581 93.7502 164.667 93.8767 166.823C93.9135 167.564 94.0742 168.3 94.3455 168.991C94.3851 169.081 94.3034 169.186 94.2059 169.17C89.6909 168.603 85.297 166.27 82.7181 162.452C81.7539 159.881 81.8646 156.946 82.9947 154.446C83.0131 154.404 83.05 154.378 83.0921 154.37L87.9154 153.542C87.9918 153.529 88.0655 153.589 88.0655 153.666V153.703L88.084 155.44C88.084 155.44 87.9628 154.942 87.9654 154.947C89.0349 156.311 90.3257 157.513 91.7772 158.494C93.1417 159.417 94.6564 160.144 96.229 160.645C96.3476 160.674 96.5399 160.769 96.6426 160.841L96.6452 160.843Z" fill="#9992FF"/>
<path d="M96.516 160.874C98.086 160.513 100.462 159.74 102.854 157.979C104.068 157.082 105.006 156.141 105.709 155.313C105.578 154.767 105.446 154.221 105.314 153.673C106.921 153.95 108.531 154.224 110.138 154.501C110.535 155.395 110.978 156.708 111.052 158.324C111.131 160.051 110.757 161.467 110.412 162.406C109.526 163.693 107.34 166.422 103.123 168.02C101.621 168.589 100.207 168.885 99.0317 169.04C99.2345 168.526 99.922 166.609 99.1608 164.344C98.468 162.287 97.0033 161.204 96.5186 160.874H96.516Z" fill="#99D3FF"/>
<path d="M96.387 160.851C96.4898 160.778 96.6926 160.677 96.8138 160.654C98.4259 160.176 99.9801 159.459 101.379 158.534C102.867 157.545 104.182 156.327 105.264 154.934L105.141 155.451L105.185 153.708C105.185 153.708 105.185 153.671 105.185 153.669C105.185 153.592 105.259 153.532 105.335 153.545L110.159 154.373C110.204 154.381 110.24 154.41 110.256 154.449C111.386 156.949 111.497 159.884 110.533 162.455C107.954 166.273 103.56 168.606 99.045 169.173C98.9475 169.186 98.8658 169.084 98.9054 168.994C100.025 166.246 99.0766 162.884 96.6689 161.149C96.5714 161.081 96.4213 160.983 96.3844 160.851H96.387ZM96.6452 160.899C96.6689 160.891 96.6873 160.87 96.69 160.854C96.6979 160.841 96.6794 160.828 96.7084 160.849L96.827 160.936C99.3295 162.739 100.315 166.236 99.1503 169.089L99.0107 168.91C103.452 168.353 107.748 166.067 110.301 162.331C110.696 161.242 110.991 159.718 110.92 158.431C110.875 157.097 110.557 155.776 110.014 154.555L110.111 154.631L105.288 153.803C105.288 153.803 105.438 153.637 105.438 153.642L106.273 155.174C106.355 155.322 106.326 155.501 106.218 155.617C103.831 158.246 100.662 160.084 97.2168 160.862L96.8796 160.936C96.769 160.965 96.7506 160.912 96.6426 160.899H96.6452Z" fill="#9992FF"/>
<path d="M96.5451 184.576C96.4713 184.576 96.4134 184.518 96.4134 184.444V161.222C96.4134 161.148 96.4713 161.09 96.5451 161.09C96.6189 161.09 96.6768 161.148 96.6768 161.222V184.444C96.6768 184.518 96.6189 184.576 96.5451 184.576Z" fill="#9992FF"/>
<path opacity="0.64" d="M120.261 127.462C114.755 128.295 112.032 131.14 110.064 129.912C108.986 129.242 109.574 128.25 108.499 127.19C106.371 125.091 102.938 127.863 96.8742 127.802C90.9367 127.744 87.9995 125.023 84.9781 127.122C83.74 127.984 83.9744 128.62 82.7337 129.163C80.434 130.173 78.3978 128.517 73.9644 127.668C72.0361 127.299 70.4213 127.227 69.3729 127.225V127.233C69.5758 138.349 77.4521 147.288 87.1381 147.288H106.213C115.888 147.288 123.759 138.363 123.975 127.259C123.177 127.225 121.857 127.219 120.261 127.462ZM107.011 135.117C107.011 136.857 105.588 138.281 103.85 138.281H89.1665C87.4279 138.281 86.0054 136.857 86.0054 135.117V132.464C86.0054 130.724 87.4279 129.3 89.1665 129.3H103.85C105.588 129.3 107.011 130.724 107.011 132.464V135.117Z" fill="#523333"/>
<path d="M72.6001 99.0326C76.367 96.8519 84.9994 92.5302 96.7849 92.4907C108.428 92.4511 117.003 96.612 120.796 98.7478C121.628 96.1163 122.463 93.4874 123.296 90.8558C119.624 88.459 109.711 82.687 95.8313 82.8267C82.5443 82.9612 73.0663 88.4405 69.3652 90.8558L72.5974 99.0326H72.6001Z" fill="#523333"/>
<path d="M60.6063 97.556C60.7669 97.0788 60.9276 96.6463 61.0778 96.2666C62.8085 94.732 63.7831 92.3668 63.4143 90.0068C64.115 92.8124 62.8691 95.821 60.6063 97.556Z" fill="#3D2424"/>
<path d="M88.3395 80.5604C88.3579 80.5498 88.3737 80.5393 88.3922 80.5314C86.996 81.5518 85.484 82.4088 83.8955 83.0759C82.7549 83.5585 81.5722 83.9408 80.3709 84.2256C79.1697 84.5103 77.9475 84.6949 76.7199 84.7819C77.9422 84.6501 79.1566 84.4233 80.3393 84.0964C81.5221 83.772 82.6785 83.3528 83.7875 82.836C85.6578 81.9711 87.3938 80.8399 88.9375 79.4951C88.7372 79.8511 88.5397 80.2044 88.3395 80.5604Z" fill="#3D2424"/>
<path d="M115.246 76.9033C115.095 76.9825 114.966 77.0433 114.869 77.0829C114.995 77.0248 115.122 76.9641 115.246 76.9033Z" fill="#3D2424"/>
<path d="M115.514 77.3086C111.347 79.1702 106.626 79.687 102.153 78.8063C106.384 79.484 110.817 78.9118 114.716 77.1504C114.987 77.2005 115.253 77.2532 115.514 77.3086Z" fill="#3D2424"/>
<path d="M130.097 95.5637L130.092 95.5769C125.39 93.9553 121.317 90.7067 118.643 86.5273C120.047 88.5445 121.773 90.3375 123.749 91.7931C125.382 92.9981 127.176 93.9658 129.067 94.6698C129.402 94.9388 129.747 95.2368 130.097 95.5637Z" fill="#3D2424"/>
<path d="M167.736 125.564C167.736 149.506 155.907 170.687 137.776 183.583C126.15 191.852 111.938 196.712 96.584 196.712C81.2302 196.712 67.0969 191.877 55.4903 183.653C37.3022 170.763 25.4325 149.55 25.4325 125.564C25.4325 86.2674 57.2879 54.4121 96.584 54.4121C135.88 54.4121 167.736 86.2674 167.736 125.564Z" fill="#2441FF"/>
<g filter="url(#filter1_d_2838_5349)">
<path d="M114.084 166.506C114.182 164.502 113.811 162.473 112.981 160.641C112.959 160.593 112.917 160.558 112.864 160.549L107.059 159.553C107.036 159.55 107.017 159.553 106.998 159.553C106.368 157.106 106.377 154.446 107.059 152.033H108.114C119.759 152.033 129.232 141.302 129.492 127.952H129.498C135.458 127.952 140.29 122.952 140.29 116.783C140.29 112.328 137.77 108.483 134.124 106.688C134.568 102.938 134.53 99.7517 134.53 99.7517C134.476 95.4242 134.358 90.3358 131.584 84.8607C130.868 83.4499 130.123 82.3054 129.505 81.4431C129.375 81.2592 129.248 81.0912 129.13 80.9327C129.524 80.8661 129.971 80.809 130.468 80.7773C130.912 80.7488 131.394 80.7425 131.911 80.771C132.792 80.8154 133.566 80.9454 134.203 81.0975C133.41 79.728 132.041 77.8036 129.784 76.1867C125.596 73.1939 120.97 73.1337 118.5 73.3683H118.494C117.828 73.4317 117.321 73.5173 117.02 73.5712C117.039 73.5458 117.058 73.5205 117.08 73.4951C117.48 72.9625 118.148 72.227 119.147 71.6056C120.659 70.6672 122.121 70.4897 122.863 70.4516C121.506 69.7256 119.829 69.0028 117.838 68.4987C112.87 67.2369 108.498 67.9915 105.772 68.765C105.328 68.8918 104.925 69.0186 104.573 69.1359C104.605 69.082 104.637 69.0345 104.662 68.9774C104.662 68.9774 104.664 68.9753 104.668 68.9711C105.077 68.2768 105.486 67.573 105.892 66.8597C106.396 65.9815 106.887 65.1096 107.366 64.2441C103.356 65.5947 99.3453 66.9452 95.3348 68.2958C94.016 67.3289 91.6034 65.8198 88.2206 65.0621C84.9901 64.3361 82.2826 64.6151 80.6943 64.8972C81.7437 66.3175 82.7962 67.7347 83.8456 69.155C83.8868 69.2089 83.9248 69.2628 83.9661 69.3166C83.6617 69.2215 83.3447 69.1296 83.015 69.0377C80.8021 68.4258 78.0217 67.9027 74.8038 67.8424C68.0225 67.7156 62.7217 69.7129 59.7511 71.1142C61.1366 71.092 63.7616 71.2664 66.2947 72.915C66.9573 73.3461 67.5057 73.8058 67.9623 74.2592V74.2623C68.0067 74.3036 68.051 74.3448 68.0923 74.3892C67.9147 74.3828 67.6199 74.3733 67.2363 74.3892C65.7462 74.443 62.9341 74.8457 60.5691 77.0047C59.041 78.4028 58.3023 79.9784 57.9504 80.9327C58.3879 80.752 59.4214 80.3969 60.7308 80.6061C61.8626 80.7868 62.6488 81.3036 63.0229 81.5889C63.0197 81.5985 63.0166 81.6048 63.0134 81.6143C62.95 81.7601 62.8866 81.9091 62.8263 82.0645C61.1429 86.1542 58.8508 93.4142 59.7511 102.367C59.7511 102.367 59.9255 104.101 60.4264 106.511C56.5745 108.216 53.8765 112.173 53.8765 116.783C53.8765 122.641 58.2325 127.441 63.7774 127.91V127.92C64.0216 141.286 73.5008 152.033 85.1581 152.033H86.1029C86.6355 153.904 86.7591 155.879 86.4991 157.813C86.4199 158.399 86.3058 158.983 86.1599 159.557C86.1377 159.55 86.1155 159.55 86.0933 159.553L80.2885 160.549C80.2378 160.558 80.1934 160.59 80.1712 160.641C79.3342 162.486 78.9665 164.528 79.0711 166.544C67.157 169.724 58.2484 176.029 55.4934 183.648C67.0334 191.824 81.1128 196.649 96.3208 196.703C96.3208 196.792 96.3906 196.865 96.4793 196.865C96.5681 196.865 96.6378 196.795 96.6378 196.706C111.973 196.694 126.166 191.837 137.779 183.578C134.983 175.96 126.033 169.66 114.087 166.506H114.084ZM106.783 152.033C104.377 153.619 100.724 155.6 95.9372 156.792C100.724 155.6 104.373 153.619 106.78 152.033H106.783Z" fill="black"/>
</g>
<path d="M137.776 183.582C126.15 191.85 111.938 196.71 96.584 196.71C81.2301 196.71 67.0968 191.875 55.4903 183.652C59.4817 172.613 76.3922 164.322 96.6474 164.322C116.903 164.322 133.737 172.575 137.776 183.582Z" fill="#FBD3FF"/>
<path d="M109.265 147.729H83.9028C84.2008 148.074 84.4576 148.417 84.67 148.762C84.7271 148.854 84.7746 148.946 84.8285 149.038C92.2597 149.961 99.691 150.883 107.122 151.809C104.725 153.426 100.953 155.547 95.9341 156.796C92.2249 157.718 88.9531 157.886 86.4993 157.82C86.4993 157.82 86.4993 157.817 86.4993 157.814C86.2964 159.319 85.8684 160.797 85.2185 162.176C84.8729 162.864 84.4861 163.552 83.9059 164.24C89.2226 168.092 93.4613 168.761 96.4794 168.558C102.237 168.171 109.269 164.24 109.269 164.24C105.686 159.713 105.566 152.202 109.269 147.726L109.265 147.729Z" fill="#E6AA8F"/>
<path d="M107.125 151.811C104.729 153.428 100.956 155.548 95.9372 156.798C92.228 157.723 88.9594 157.891 86.5024 157.825C86.5024 157.822 86.4992 157.818 86.4992 157.818C86.905 154.81 86.3819 151.693 84.8316 149.043C92.2628 149.966 99.6941 150.888 107.125 151.811Z" fill="#E3917B"/>
<path d="M133.382 111.042C131.467 119.266 121.186 144.102 98.3499 144.635C73.9542 145.205 62.3667 113.261 61.8785 111.86C60.2299 107.133 59.7512 102.368 59.7512 102.368C58.8508 93.415 61.143 86.1549 62.8264 82.0652C62.8866 81.9099 62.95 81.7609 63.0134 81.615C63.0166 81.6055 63.0198 81.5992 63.023 81.5897C62.6489 81.3043 61.8626 80.7876 60.7308 80.6069C59.4215 80.3976 58.3879 80.7527 57.9504 80.9334C58.3023 79.9792 59.041 78.4035 60.5691 77.0054C62.9342 74.8464 65.7463 74.4438 67.2363 74.3899H67.2395C67.6231 74.374 67.9179 74.3835 68.0955 74.3899C68.0543 74.3455 68.0099 74.3043 67.9655 74.2631C67.9655 74.2631 67.9655 74.2631 67.9623 74.2631C67.5058 73.8097 66.9573 73.35 66.2947 72.9189C63.7616 71.2703 61.1366 71.0959 59.7512 71.1181C62.7218 69.7168 68.0226 67.7195 74.8039 67.8464C78.0217 67.9066 80.8021 68.4297 83.015 69.0416C83.3447 69.1335 83.6618 69.2254 83.9661 69.3206C83.9249 69.2667 83.8868 69.2128 83.8456 69.1589C82.7963 67.7386 81.7437 66.3214 80.6943 64.9011C82.2827 64.619 84.9901 64.34 88.2207 65.066C91.6034 65.8237 94.016 67.3328 95.3349 68.2997C99.3453 66.9492 103.356 65.5986 107.366 64.248C106.888 65.1135 106.396 65.9854 105.892 66.8636C105.486 67.5769 105.077 68.2807 104.668 68.975C104.668 68.975 104.666 68.9771 104.662 68.9813C104.637 69.0384 104.605 69.0859 104.573 69.1398C104.925 69.0225 105.328 68.8957 105.772 68.7689C108.498 67.9954 112.87 67.2408 117.838 68.5026C119.829 69.0067 121.506 69.7295 122.863 70.4555C122.121 70.4936 120.659 70.6711 119.147 71.6095C118.149 72.2309 117.48 72.9664 117.08 73.499C117.058 73.5244 117.039 73.5498 117.02 73.5751C117.321 73.5212 117.828 73.4356 118.494 73.3722C118.494 73.3722 118.497 73.3722 118.5 73.3722C120.97 73.1376 125.596 73.1978 129.784 76.1906C132.041 77.8075 133.41 79.7319 134.203 81.1014C133.566 80.9493 132.792 80.8193 131.911 80.7749C131.394 80.7464 130.912 80.7527 130.468 80.7812C129.971 80.813 129.524 80.87 129.131 80.9366C129.248 81.0951 129.375 81.2631 129.505 81.447C130.123 82.3093 130.868 83.4538 131.584 84.8646C134.358 90.3397 134.476 95.4281 134.53 99.7556C134.53 99.7556 134.602 105.811 133.382 111.045V111.042Z" fill="#291919"/>
<path d="M64.6683 127.951C70.6284 127.951 75.4601 122.951 75.4601 116.782C75.4601 110.614 70.6284 105.613 64.6683 105.613C58.7082 105.613 53.8765 110.614 53.8765 116.782C53.8765 122.951 58.7082 127.951 64.6683 127.951Z" fill="#E6AA8F"/>
<path d="M129.495 127.951C135.455 127.951 140.287 122.951 140.287 116.782C140.287 110.614 135.455 105.613 129.495 105.613C123.535 105.613 118.703 110.614 118.703 116.782C118.703 122.951 123.535 127.951 129.495 127.951Z" fill="#E6AA8F"/>
<path d="M129.495 109.671V127.39C129.495 127.58 129.492 127.767 129.489 127.957C129.229 141.307 119.756 152.039 108.111 152.039H85.155C73.4977 152.039 64.0185 141.291 63.7743 127.925V127.916C63.7743 127.741 63.768 127.564 63.768 127.39V109.671C64.1484 105.98 65.3563 98.7869 70.0326 92.2371C78.1708 80.8398 90.5128 80.2184 94.8847 79.9996C107.813 79.3497 118.434 86.2579 123.234 92.2371C127.105 97.0655 128.535 102.338 128.535 102.338C129.159 104.652 129.495 107.115 129.495 109.671Z" fill="#E6AA8F"/>
<path d="M69.5349 104.142C71.0598 102.639 73.1396 101.523 75.3303 101.374C76.592 101.282 78.266 101.412 79.5246 101.447C80.9132 101.485 84.2198 101.514 85.6497 101.536L85.5672 103.806C83.18 103.558 79.6895 103.235 77.3434 102.899C74.6265 102.417 72.2265 102.953 70.0739 104.741L69.5349 104.139V104.142Z" fill="#291919"/>
<path d="M122.79 104.742C120.644 102.957 118.231 102.418 115.52 102.9C113.187 103.236 109.671 103.56 107.297 103.807L107.214 101.537C108.669 101.515 111.935 101.49 113.339 101.448C114.604 101.413 116.265 101.283 117.534 101.372C119.724 101.521 121.804 102.637 123.329 104.14L122.79 104.742Z" fill="#291919"/>
<path d="M97.6015 119.535L97.0784 125.362H95.7849L95.265 119.535H97.6015Z" fill="#EB8C6A"/>
<path d="M86.179 132.571L96.8186 137.961L96.0514 137.967L106.146 132.571L107.148 134.55L96.8344 139.514L96.454 139.698L96.0672 139.521L85.2184 134.572L86.179 132.571Z" fill="#EB8C6A"/>
<path d="M80.1999 115.994C80.222 118.736 80.3552 121.466 80.8783 124.173H74.5377C75.0608 121.466 75.1907 118.736 75.2161 115.994V115.918C75.2066 113.15 75.0861 110.395 74.5377 107.662H80.8783C80.3298 110.395 80.2062 113.15 80.1999 115.918V115.994Z" fill="#3D0000"/>
<path d="M117.651 115.994C117.673 118.736 117.806 121.466 118.329 124.173H111.989C112.512 121.466 112.642 118.736 112.667 115.994V115.918C112.658 113.15 112.534 110.395 111.989 107.662H118.329C117.781 110.395 117.657 113.15 117.651 115.918V115.994Z" fill="#3D0000"/>
<path d="M80.8783 124.175H74.5377C75.0608 121.467 75.1907 118.737 75.2161 115.995H80.1999C80.222 118.737 80.3552 121.467 80.8783 124.175Z" fill="#525428"/>
<path d="M118.329 124.175H111.989C112.512 121.467 112.642 118.737 112.667 115.995H117.651C117.673 118.737 117.806 121.467 118.329 124.175Z" fill="#525428"/>
<path d="M96.4414 168.371C94.5836 167.895 91.8445 166.938 89.0768 164.89C87.6184 163.812 86.493 162.68 85.6401 161.685C85.7987 161.029 85.9572 160.372 86.1157 159.713C84.1818 160.046 82.2447 160.375 80.3108 160.708C79.8321 161.783 79.2995 163.362 79.2107 165.305C79.1156 167.382 79.5658 169.084 79.9811 170.213C81.0463 171.76 83.6777 175.041 88.7534 176.963C90.5605 177.647 92.2629 178.002 93.6769 178.189C93.3282 177.305 92.637 175.143 93.5216 172.543C94.2381 170.441 95.652 169.046 96.4383 168.371H96.4414Z" fill="#FBD3FF"/>
<path d="M96.2894 168.405C96.1626 168.418 96.1309 168.469 96.0072 168.434L95.611 168.339C91.5751 167.328 87.8785 165.127 85.0601 162.039C84.927 161.897 84.9048 161.688 84.9904 161.523L85.9637 159.674C85.9637 159.668 86.1444 159.868 86.1444 159.868L80.3395 160.863L80.4568 160.771C79.8037 162.239 79.4201 163.828 79.3662 165.432C79.2806 166.979 79.6325 168.811 80.1112 170.121C83.1865 174.613 88.3541 177.362 93.6992 178.031L93.5312 178.246C93.1888 177.384 92.9923 176.468 92.9447 175.539C92.7862 172.85 94.105 170.251 96.0802 168.478L96.1436 168.421C96.1658 168.402 96.188 168.377 96.1911 168.383C96.2038 168.383 96.2323 168.409 96.2894 168.409V168.405ZM96.5969 168.333C96.5589 168.463 96.4067 168.621 96.2957 168.713C94.3904 170.422 93.1127 172.929 93.2649 175.523C93.3093 176.414 93.5027 177.298 93.8292 178.129C93.8768 178.237 93.7785 178.363 93.6612 178.344C88.2273 177.663 82.9392 174.857 79.8354 170.266C78.6751 167.175 78.8082 163.647 80.1683 160.641C80.1905 160.591 80.2349 160.559 80.2856 160.549L86.0905 159.554C86.1824 159.538 86.2712 159.611 86.2712 159.703V159.747L86.2934 161.837C86.2934 161.837 86.1475 161.237 86.1507 161.244C87.4379 162.883 88.9913 164.328 90.7382 165.508C92.3804 166.617 94.2033 167.492 96.096 168.095C96.2387 168.13 96.4701 168.244 96.5938 168.329L96.5969 168.333Z" fill="#D092FF"/>
<path d="M96.4414 168.371C98.3309 167.937 101.191 167.008 104.069 164.89C105.531 163.812 106.659 162.68 107.506 161.685C107.347 161.029 107.189 160.372 107.03 159.713C108.964 160.046 110.901 160.375 112.835 160.708C113.314 161.783 113.847 163.362 113.935 165.305C114.03 167.382 113.58 169.084 113.165 170.213C112.1 171.76 109.468 175.041 104.393 176.963C102.586 177.647 100.883 178.002 99.4691 178.189C99.7132 177.571 100.541 175.266 99.6244 172.543C98.7906 170.07 97.0279 168.767 96.4446 168.371H96.4414Z" fill="#FBD3FF"/>
<path d="M96.286 168.342C96.4097 168.253 96.6538 168.133 96.7996 168.104C98.7398 167.53 100.61 166.668 102.294 165.555C104.085 164.366 105.67 162.902 106.97 161.228L106.821 161.849L106.875 159.753C106.875 159.753 106.875 159.709 106.875 159.706C106.875 159.614 106.964 159.541 107.056 159.557L112.86 160.552C112.914 160.562 112.959 160.597 112.978 160.644C114.338 163.65 114.471 167.178 113.311 170.269C110.207 174.86 104.919 177.666 99.4849 178.347C99.3676 178.363 99.2693 178.24 99.3168 178.132C100.664 174.828 99.5229 170.786 96.6252 168.7C96.5079 168.618 96.3272 168.5 96.2828 168.342H96.286ZM96.5967 168.399C96.6252 168.389 96.6474 168.364 96.6538 168.345C96.6633 168.329 96.6411 168.313 96.676 168.339L96.8186 168.443C99.8304 170.612 101.016 174.816 99.6148 178.246L99.4468 178.03C104.792 177.361 109.96 174.613 113.035 170.12C113.51 168.811 113.865 166.979 113.78 165.431C113.726 163.827 113.342 162.239 112.689 160.771L112.807 160.863L107.002 159.868C107.002 159.868 107.182 159.668 107.182 159.674L108.187 161.516C108.286 161.694 108.251 161.909 108.121 162.049C105.249 165.21 101.435 167.419 97.2878 168.354L96.882 168.443C96.7489 168.478 96.7267 168.415 96.5967 168.399Z" fill="#D092FF"/>
<path d="M96.4761 196.868C96.3874 196.868 96.3176 196.798 96.3176 196.709V168.788C96.3176 168.7 96.3874 168.63 96.4761 168.63C96.5649 168.63 96.6347 168.7 96.6347 168.788V196.709C96.6347 196.798 96.5649 196.868 96.4761 196.868Z" fill="#D092FF"/>
<path opacity="0.22" d="M125.019 128.199C118.393 129.201 115.115 132.622 112.746 131.144C111.45 130.339 112.157 129.147 110.863 127.873C108.302 125.349 104.171 128.681 96.8726 128.608C89.7267 128.538 86.1918 125.267 82.5554 127.79C81.0653 128.827 81.3475 129.591 79.8543 130.244C77.0866 131.458 74.6359 129.467 69.3003 128.447C66.9796 128.003 65.0362 127.917 63.7744 127.914V127.923C64.0185 141.289 73.4978 152.037 85.1551 152.037H108.111C119.756 152.037 129.229 141.305 129.489 127.955C128.528 127.914 126.94 127.908 125.019 128.199ZM109.072 137.403C109.072 139.495 107.36 141.207 105.268 141.207H87.5962C85.5038 141.207 83.7918 139.495 83.7918 137.403V134.213C83.7918 132.121 85.5038 130.409 87.5962 130.409H105.268C107.36 130.409 109.072 132.121 109.072 134.213V137.403Z" fill="#523333"/>
<path d="M69.9629 94.35C74.395 91.9913 83.9281 87.6829 96.7204 87.7716C109.817 87.8636 119.467 92.5144 123.852 94.9809C123.804 96.0588 123.868 97.923 124.711 100.012C125.805 102.713 128.284 105.982 129.498 105.611C130.694 105.246 131.213 101.188 128.626 85.806C124.207 82.9242 112.277 75.9844 95.5727 76.1524C79.5816 76.3141 68.1748 82.902 63.7205 85.806C62.5158 101.315 63.4161 105.342 64.6684 105.611C65.9904 105.893 68.3967 102.136 69.3637 99.0294C69.9533 97.1336 70.0136 95.4692 69.9629 94.35Z" fill="#291919"/>
<path d="M101.688 108.434C102.735 107.702 103.98 107.283 105.153 106.804C112.911 103.812 121.779 103.859 129.489 107.02L129.784 107.137C130.142 107.28 130.342 107.651 130.281 108.015C130.012 109.775 129.834 111.449 129.546 113.161C128.858 118.198 126.861 122.684 123.167 126.238C117.01 129.412 109.211 128.711 103.663 124.59C102.459 119.771 101.898 114.727 101.634 109.753C101.609 109.325 101.603 108.859 101.685 108.44L101.688 108.434ZM102.687 109.065C102.807 109.223 102.757 109.55 102.763 109.727C102.719 114.651 103.102 119.568 103.914 124.428L103.85 124.33C106.583 126.311 109.849 127.564 113.212 127.849C116.516 128.182 120.19 127.383 122.99 125.978C125.421 123.826 127.263 121.004 128.24 117.907C129.229 114.854 129.362 111.328 127.609 108.516L128.401 109.512C120.837 105.894 111.83 105.669 104.006 108.653C103.676 108.77 103.346 108.909 103.02 109.036C102.896 109.084 102.83 109.071 102.684 109.065H102.687Z" fill="#291919"/>
<path d="M90.7601 109.064C90.6142 109.07 90.5445 109.083 90.424 109.035C90.0975 108.905 89.7677 108.769 89.438 108.652C81.6137 105.672 72.6068 105.897 65.0424 109.514L65.835 108.519C64.085 111.331 64.2181 114.853 65.2041 117.909C66.1298 120.962 68.1683 123.968 70.4193 125.955C73.4374 127.468 76.8677 128.149 80.2314 127.851C83.5951 127.566 86.8606 126.314 89.5934 124.332L89.53 124.431C90.3416 119.574 90.7252 114.653 90.6808 109.73C90.6903 109.562 90.6301 109.245 90.7569 109.067L90.7601 109.064ZM91.7587 108.433C91.8411 108.852 91.838 109.318 91.8094 109.746C91.5463 114.72 90.9852 119.767 89.7804 124.583C84.2324 128.704 76.4334 129.408 70.2766 126.231C65.6194 121.66 64.291 116.933 63.527 110.646C63.4097 109.793 63.3114 108.921 63.1624 108.008C63.099 107.628 63.3146 107.266 63.6601 107.13C65.9745 106.185 68.3839 105.469 70.8409 105.057C77.264 103.944 83.9724 104.838 89.9199 107.463C90.5445 107.745 91.2134 108.008 91.7587 108.427V108.433Z" fill="#291919"/>
<path d="M102.509 117.13C100.712 116.404 98.8223 116.026 96.8885 116.001C94.8468 115.976 92.8431 116.343 90.9378 117.098L90.7032 116.508C92.6846 115.722 94.7612 115.335 96.8948 115.367C98.9079 115.392 100.877 115.789 102.744 116.543L102.506 117.133L102.509 117.13Z" fill="#291919"/>
<path d="M105.772 68.7666C102.877 71.4867 99.1679 73.2082 95.3191 74.0452C98.7621 73.1036 102.062 71.4297 104.662 68.979C104.637 69.0361 104.605 69.0836 104.573 69.1375C104.925 69.0202 105.328 68.8934 105.772 68.7666Z" fill="black"/>
<path d="M74.2174 80.3582C72.312 77.9456 69.947 75.8437 67.2395 74.3885C67.6231 74.3727 67.918 74.3822 68.0955 74.3885C68.0543 74.3441 68.0099 74.3029 67.9655 74.2617C70.4257 75.85 72.5308 77.9742 74.2174 80.3582Z" fill="black"/>
<path d="M70.3306 87.1506C68.1874 85.0011 65.6385 83.2036 62.8264 82.0654C62.8867 81.9101 62.9501 81.7611 63.0135 81.6152C65.8065 82.9182 68.2825 84.8648 70.3306 87.1506Z" fill="black"/>
<path d="M129.131 80.9339C129.248 81.0924 129.375 81.2604 129.505 81.4443C125.935 81.755 122.479 83.1151 119.477 85.0711C122.682 82.7314 126.471 81.0924 130.465 80.75V80.7785C129.971 80.8102 129.524 80.8673 129.131 80.9339Z" fill="black"/>
<path d="M83.0151 69.0391C83.3448 69.131 83.6618 69.2229 83.9662 69.318C83.925 69.2642 83.8869 69.2103 83.8457 69.1564C84.8824 70.3325 86.0966 71.3692 87.444 72.2157C85.8208 71.4136 84.3181 70.3389 83.0151 69.0391Z" fill="black"/>
<path d="M118.494 73.3691C116.101 74.4058 113.872 75.8578 111.941 77.6617C113.437 76.0449 115.172 74.6373 117.08 73.496C117.058 73.5213 117.039 73.5467 117.02 73.572C117.321 73.5181 117.828 73.4325 118.494 73.3691Z" fill="black"/>
<path d="M189.081 125.93C189.081 157.206 173.63 184.876 149.945 201.723C134.758 212.524 116.192 218.873 96.1345 218.873C76.0773 218.873 57.6147 212.557 42.4528 201.814C18.6932 184.975 3.1875 157.264 3.1875 125.93C3.1875 74.5968 44.801 32.9834 96.1345 32.9834C147.468 32.9834 189.081 74.5968 189.081 125.93Z" fill="#2441FF"/>
<g filter="url(#filter2_d_2838_5349)">
<path d="M118.995 179.421C119.124 176.804 118.639 174.153 117.554 171.759C117.525 171.697 117.471 171.652 117.401 171.639L109.818 170.339C109.789 170.335 109.764 170.339 109.739 170.339C108.915 167.142 108.927 163.667 109.818 160.511H111.193C126.404 160.511 138.779 146.492 139.119 129.053C139.119 129.053 139.127 129.053 139.131 129.053C146.917 129.053 153.229 122.522 153.229 114.462C153.229 110.151 151.423 106.279 148.553 103.608C149.713 100.116 149.965 96.6872 150.118 94.575C151.895 70.2564 134.302 56.3121 134.302 56.3121C122.748 47.1553 109.756 46.9565 104.583 47.2589C103.962 47.2961 103.457 47.3375 103.076 47.3748C103.163 47.321 103.27 47.2464 103.399 47.1512C103.399 47.1512 103.401 47.1512 103.407 47.1512C103.978 46.7329 104.885 45.9087 105.444 44.5586C106.223 42.6743 105.801 40.9928 105.66 40.5C104.533 41.055 102.595 41.9619 100.102 42.8482C91.2558 45.9916 86.8576 44.7781 80.9642 47.8345C79.1254 48.7912 76.3796 50.5513 73.5966 53.9639C72.0974 52.7214 69.7409 51.1932 66.7383 50.982C59.5114 50.4685 54.0281 57.948 51.1498 61.8741C40.1087 76.9407 42.8089 94.5585 43.0284 95.8589C43.5005 98.6585 44.2129 101.235 45.0619 103.574C42.167 106.246 40.3447 110.135 40.3447 114.462C40.3447 122.116 46.0351 128.386 53.2744 128.999V129.011C53.5933 146.472 65.9763 160.511 81.2045 160.511H82.4427C83.1385 162.955 83.3 165.539 82.9604 168.061C82.8569 168.827 82.7078 169.589 82.5173 170.339C82.4883 170.331 82.4593 170.331 82.4303 170.335L74.8473 171.635C74.781 171.648 74.7231 171.689 74.6941 171.755C73.6007 174.166 73.1203 176.833 73.257 179.467C57.6933 183.621 46.0558 191.858 42.4569 201.81C55.6185 211.136 71.3105 217.125 88.3071 218.541C90.7878 218.748 93.2893 218.856 95.8197 218.864C95.857 218.898 95.9025 218.918 95.9564 218.918C96.0102 218.918 96.0516 218.898 96.0889 218.869C96.1055 218.869 96.1262 218.869 96.1427 218.869C98.814 218.869 101.456 218.757 104.069 218.533C121.083 217.1 136.787 211.083 149.953 201.719C146.3 191.767 134.609 183.538 119.004 179.417L118.995 179.421ZM109.458 160.515C106.314 162.586 101.543 165.179 95.2854 166.736C101.539 165.179 106.31 162.586 109.453 160.52L109.458 160.515Z" fill="black"/>
</g>
<path d="M149.945 201.722C136.779 211.086 121.074 217.103 104.061 218.536C101.448 218.76 98.8057 218.872 96.1344 218.872C93.4632 218.872 90.8872 218.76 88.3029 218.544C71.3063 217.128 55.6143 211.14 42.4527 201.813C47.6668 187.392 69.7574 176.562 96.2172 176.562C122.677 176.562 144.668 187.343 149.945 201.722Z" fill="#AFB7BD"/>
<path d="M95.948 218.923C95.832 218.923 95.7409 218.832 95.7409 218.716V182.242C95.7409 182.126 95.832 182.035 95.948 182.035C96.0639 182.035 96.1551 182.126 96.1551 182.242V218.716C96.1551 218.832 96.0639 218.923 95.948 218.923Z" fill="#8E9499"/>
<path d="M150.118 94.5792C149.837 98.4432 149.232 106.705 143.339 111.692C143.339 111.692 143.065 112.321 142.511 112.346C112.468 113.617 82.4261 114.885 52.3881 116.156C51.7875 116.181 51.4769 115.494 51.4769 115.494C48.4909 111.443 44.5358 104.796 43.0283 95.8589C42.8088 94.5585 40.1086 76.9407 51.1498 61.8741C54.0281 57.948 59.5114 50.4685 66.7382 50.982C69.7408 51.1932 72.0973 52.7214 73.5965 53.9639C76.3796 50.5513 79.1254 48.7912 80.9642 47.8345C86.8575 44.7781 91.2557 45.9916 100.102 42.8482C102.595 41.9619 104.533 41.055 105.66 40.5C105.801 40.9928 106.223 42.6743 105.444 44.5586C104.885 45.9087 103.978 46.7329 103.407 47.1512C103.407 47.1512 103.404 47.1512 103.399 47.1512C103.27 47.2464 103.162 47.321 103.075 47.3748C103.456 47.3375 103.962 47.2961 104.583 47.2589C109.756 46.9565 122.747 47.1553 134.302 56.3121C134.302 56.3121 151.895 70.2564 150.118 94.575V94.5792Z" fill="#3D1D1D"/>
<path d="M112.7 154.892H79.5682C79.9575 155.343 80.2929 155.791 80.5704 156.242C80.645 156.362 80.7071 156.482 80.7775 156.602C90.4851 157.807 100.193 159.013 109.9 160.222C106.769 162.334 101.841 165.105 95.2851 166.736C90.4395 167.942 86.1655 168.161 82.96 168.074C82.96 168.074 82.96 168.07 82.96 168.066C82.695 170.033 82.1359 171.963 81.2869 173.764C80.8355 174.663 80.3302 175.562 79.5723 176.461C86.5176 181.492 92.0547 182.366 95.9974 182.101C103.518 181.596 112.704 176.461 112.704 176.461C108.024 170.547 107.867 160.735 112.704 154.888L112.7 154.892Z" fill="#E0A589"/>
<path d="M109.904 160.217C106.774 162.329 101.845 165.1 95.2892 166.732C90.4437 167.941 86.1739 168.16 82.9642 168.073C82.9642 168.069 82.9601 168.065 82.9601 168.065C83.4902 164.135 82.8069 160.064 80.7817 156.602C90.4893 157.807 100.197 159.012 109.904 160.217Z" fill="#D97D5B"/>
<path d="M139.127 105.169V128.315C139.127 128.564 139.123 128.808 139.119 129.057C138.779 146.496 126.404 160.515 111.193 160.515H81.2043C65.9762 160.515 53.5932 146.476 53.2743 129.015V129.003C53.2701 128.775 53.266 128.543 53.266 128.315V105.169C53.4068 103.806 53.6304 102.083 54.0239 100.116C54.1191 99.669 54.2102 99.2258 54.3055 98.7785C55.3864 93.9745 57.4447 88.0025 61.4495 82.3949C72.0807 67.5064 88.2034 66.6947 93.9145 66.4089C97.2318 66.2432 100.433 66.4545 103.485 66.9721C107.287 67.6058 110.853 68.7033 114.117 70.1031C114.344 70.1983 114.568 70.2977 114.792 70.3971C121.923 73.5736 127.551 78.1624 130.948 82.3949C136.004 88.7024 137.872 95.5896 137.872 95.5896C137.889 95.6435 137.901 95.7015 137.918 95.7553C137.918 95.7594 137.922 95.7677 137.922 95.7719C138.021 96.1777 138.121 96.5794 138.22 96.9853C138.812 99.5944 139.127 102.34 139.127 105.169Z" fill="#E0A589"/>
<path d="M54.4423 129.054C62.2281 129.054 68.5398 122.521 68.5398 114.463C68.5398 106.405 62.2281 99.873 54.4423 99.873C46.6564 99.873 40.3447 106.405 40.3447 114.463C40.3447 122.521 46.6564 129.054 54.4423 129.054Z" fill="#E0A589"/>
<path d="M139.127 129.054C146.913 129.054 153.225 122.521 153.225 114.463C153.225 106.405 146.913 99.873 139.127 99.873C131.341 99.873 125.029 106.405 125.029 114.463C125.029 122.521 131.341 129.054 139.127 129.054Z" fill="#E0A589"/>
<path d="M60.3189 97.3832C66.7506 92.7614 75.6879 92.1981 82.6746 95.9586L82.0782 97.0478C75.5305 93.2625 66.9121 93.6021 60.6419 97.8554L60.3189 97.3874V97.3832Z" fill="#5E3B3B"/>
<path d="M131.184 97.8509C124.913 93.6017 116.295 93.2621 109.747 97.0474L109.151 95.9582C116.138 92.1978 125.075 92.761 131.507 97.387L131.184 97.855V97.8509Z" fill="#5E3B3B"/>
<path d="M97.4638 118.059L96.7804 125.675H95.0907L94.4115 118.059H97.4638Z" fill="#D97D5B"/>
<path d="M82.5422 135.092L96.441 142.128L95.4388 142.141L108.625 135.092L109.934 137.676L96.4617 144.157L95.9647 144.398L95.4595 144.17L81.2874 137.701L82.5422 135.092Z" fill="#D97D5B"/>
<path d="M74.7313 113.436C74.7603 117.018 74.9343 120.584 75.6176 124.12H67.3347C68.018 120.584 68.1878 117.018 68.2209 113.436V113.336C68.2085 109.721 68.0511 106.122 67.3347 102.552H75.6176C74.9011 106.122 74.7396 109.721 74.7313 113.336V113.436Z" fill="#3D0000"/>
<path d="M123.654 113.436C123.683 117.018 123.857 120.584 124.541 124.12H116.258C116.941 120.584 117.111 117.018 117.144 113.436V113.336C117.132 109.721 116.97 106.122 116.258 102.552H124.541C123.824 106.122 123.663 109.721 123.654 113.336V113.436Z" fill="#3D0000"/>
<path d="M75.6176 124.121H67.3347C68.018 120.584 68.1878 117.018 68.2209 113.436H74.7313C74.7603 117.018 74.9343 120.584 75.6176 124.121Z" fill="#800000"/>
<path d="M124.541 124.121H116.258C116.941 120.584 117.111 117.018 117.144 113.436H123.654C123.683 117.018 123.857 120.584 124.541 124.121Z" fill="#800000"/>
<path d="M95.948 181.851C93.5211 181.23 89.9429 179.979 86.3274 177.304C84.4223 175.896 82.9521 174.417 81.8381 173.117C82.0451 172.26 82.2522 171.402 82.4593 170.541C79.933 170.976 77.4025 171.407 74.8762 171.841C74.2509 173.245 73.5551 175.308 73.4392 177.847C73.3149 180.559 73.903 182.783 74.4455 184.258C75.8371 186.279 79.2745 190.565 85.905 193.075C88.2656 193.969 90.4896 194.433 92.3367 194.677C91.8811 193.522 90.9783 190.698 92.1337 187.302C93.0697 184.556 94.9168 182.733 95.9439 181.851H95.948Z" fill="#AFB7BD"/>
<path d="M95.7491 181.902C95.5835 181.918 95.5421 181.985 95.3805 181.939L94.8629 181.815C89.5866 180.494 84.7618 177.619 81.08 173.586C80.9061 173.399 80.8771 173.126 80.9889 172.911L82.2604 170.496C82.2604 170.488 82.4964 170.749 82.4964 170.749L74.9134 172.049L75.0666 171.929C74.2135 173.847 73.7124 175.921 73.642 178.017C73.5301 180.038 73.9899 182.432 74.6152 184.142C78.6324 190.011 85.383 193.601 92.3655 194.475L92.146 194.757C91.6988 193.63 91.442 192.433 91.3799 191.22C91.1728 187.708 92.8957 184.312 95.4758 181.997L95.5586 181.922C95.5876 181.898 95.6166 181.864 95.6207 181.873C95.6373 181.873 95.6746 181.906 95.7491 181.906V181.902ZM96.1508 181.806C96.1011 181.976 95.9024 182.183 95.7574 182.303C93.2684 184.536 91.5994 187.812 91.7982 191.199C91.8561 192.363 92.1088 193.519 92.5353 194.604C92.5975 194.744 92.4691 194.91 92.3158 194.885C85.2174 193.995 78.3094 190.33 74.2549 184.333C72.7391 180.295 72.9131 175.685 74.6898 171.759C74.7187 171.693 74.7767 171.652 74.843 171.639L82.426 170.339C82.5461 170.318 82.6621 170.413 82.6621 170.533V170.591L82.6911 173.321C82.6911 173.321 82.5006 172.538 82.5047 172.546C84.1861 174.687 86.2155 176.576 88.4974 178.116C90.6427 179.566 93.024 180.709 95.4965 181.496C95.6829 181.541 95.9852 181.691 96.1467 181.802L96.1508 181.806Z" fill="#8E9499"/>
<path d="M95.9482 181.851C98.4165 181.284 102.152 180.071 105.913 177.304C107.822 175.896 109.296 174.417 110.402 173.117C110.195 172.26 109.988 171.402 109.781 170.541C112.307 170.976 114.837 171.407 117.364 171.841C117.989 173.245 118.685 175.308 118.801 177.847C118.925 180.559 118.337 182.783 117.794 184.258C116.403 186.279 112.966 190.565 106.335 193.075C103.974 193.969 101.75 194.433 99.9033 194.677C100.222 193.87 101.303 190.859 100.106 187.302C99.017 184.071 96.7144 182.369 95.9524 181.851H95.9482Z" fill="#AFB7BD"/>
<path d="M95.7451 181.815C95.9066 181.699 96.2255 181.541 96.416 181.504C98.9506 180.755 101.394 179.628 103.593 178.174C105.933 176.621 108.004 174.708 109.702 172.521L109.507 173.333L109.578 170.596C109.578 170.596 109.578 170.538 109.578 170.533C109.578 170.413 109.694 170.318 109.814 170.339L117.397 171.639C117.467 171.652 117.525 171.697 117.55 171.759C119.327 175.685 119.501 180.295 117.985 184.333C113.93 190.33 107.022 193.995 99.9239 194.885C99.7706 194.906 99.6422 194.744 99.7044 194.604C101.464 190.288 99.9735 185.008 96.1882 182.283C96.035 182.175 95.7989 182.022 95.741 181.815H95.7451ZM96.151 181.889C96.1882 181.877 96.2172 181.844 96.2255 181.819C96.2379 181.798 96.209 181.777 96.2545 181.811L96.4409 181.947C100.375 184.78 101.924 190.272 100.094 194.753L99.8742 194.471C106.857 193.597 113.611 190.007 117.624 184.138C118.246 182.428 118.71 180.034 118.598 178.013C118.527 175.917 118.026 173.842 117.173 171.925L117.326 172.045L109.743 170.745C109.743 170.745 109.979 170.484 109.979 170.492L111.292 172.898C111.421 173.13 111.375 173.412 111.205 173.594C107.453 177.723 102.471 180.61 97.0538 181.831L96.5237 181.947C96.3498 181.993 96.3208 181.91 96.151 181.889Z" fill="#8E9499"/>
<path d="M76.4791 75.6562C76.9595 74.5794 77.7422 73.2583 79.0427 72.1276C84.1781 67.6797 93.9892 69.2121 99.8825 74.0534C107.892 80.6259 106.617 91.6215 106.509 92.4374C115.181 87.3724 118.304 76.207 113.562 67.4271C108.774 58.5644 97.5674 55.0897 88.5515 59.7323C88.2491 59.6619 82.2233 58.3739 78.0777 62.6727C74.8556 66.0148 74.1681 71.2828 76.4749 75.6562H76.4791Z" fill="#3D1D1D"/>
<path d="M137.922 95.7717C137.835 95.9415 137.739 96.1155 137.644 96.2853C134.865 101.209 130.695 103.653 128.765 104.622C128.661 100.779 127.949 95.4611 125.249 89.8743C122.93 85.0743 119.745 81.3304 116.349 78.419C116.133 78.2326 115.914 78.0463 115.694 77.8723C107.995 71.5483 99.435 69.3948 97.4596 68.9268C99.4682 68.2766 101.477 67.6222 103.485 66.972C105.759 66.2348 108.033 65.4976 110.311 64.7605C110.389 64.7315 110.468 64.7066 110.551 64.6818C111.458 64.3836 112.369 64.0895 113.28 63.7955C124.077 62.8513 134 68.0612 138.075 76.6216C138.481 77.4747 142.689 86.7226 137.922 95.7717Z" fill="#3D1D1D"/>
<path d="M76.479 75.6573C75.3277 74.5681 73.8616 73.6238 72.1512 73.5741C66.5602 73.4084 61.9052 82.8634 60.4516 89.2661C58.9316 95.9463 60.319 101.815 61.6236 105.476C60.8906 105.066 50.8723 99.2222 50.0813 87.3072C49.34 76.117 57.3745 69.1883 58.2027 68.4967C63.8517 64.3304 70.681 64.6037 74.0729 68.1239C76.6033 70.7496 76.5453 74.4852 76.479 75.6573Z" fill="#3D1D1D"/>
<path d="M116.349 78.4178L115.682 78.4053C115.69 78.2273 115.694 78.0492 115.694 77.8711C115.914 78.045 116.133 78.2314 116.349 78.4178Z" fill="#E0A589"/>
<path d="M116.51 78.4243H116.349C116.134 78.2338 115.914 78.0474 115.695 77.8735C115.74 75.1732 115.198 72.5061 114.117 70.1041C113.214 68.0872 111.934 66.2567 110.311 64.7616C109.019 63.5647 107.507 62.579 105.796 61.875C107.59 62.5335 109.18 63.4943 110.551 64.6829C112.365 66.2484 113.789 68.2114 114.792 70.3981C115.931 72.8747 116.523 75.6329 116.51 78.4243Z" fill="#260F0F"/>
<path d="M54.3055 98.7795C54.202 99.2351 54.1067 99.6824 54.0239 100.117L53.9866 100.142C48.7104 92.6833 47.7454 82.545 53.1583 74.8916C48.3377 82.3131 49.3233 91.7556 54.3055 98.7795Z" fill="#260F0F"/>
<path d="M104.583 47.263C99.4767 50.5637 92.8462 51.5204 87.1973 49.0686C92.548 51.1352 98.636 50.1951 103.399 47.1553C103.27 47.2505 103.163 47.3251 103.076 47.3789C103.457 47.3416 103.962 47.3002 104.583 47.263Z" fill="#260F0F"/>
<path d="M138.22 96.9852C138.125 96.5711 138.025 96.1611 137.918 95.7552C140.473 89.9489 141.185 83.2107 138.945 77.1973C138.117 74.9651 136.911 72.8654 135.4 71.0059C136.961 72.8198 138.237 74.8905 139.135 77.1228C141.72 83.4924 140.987 90.7813 138.22 96.9852Z" fill="#260F0F"/>
<defs>
<filter id="filter0_d_2838_5349" x="14.0839" y="32.7188" width="162.77" height="191.856" filterUnits="userSpaceOnUse" color-interpolation-filters="sRGB">
<feFlood flood-opacity="0" result="BackgroundImageFix"/>
<feColorMatrix in="SourceAlpha" type="matrix" values="0 0 0 0 0 0 0 0 0 0 0 0 0 0 0 0 0 0 127 0" result="hardAlpha"/>
<feOffset/>
<feGaussianBlur stdDeviation="20"/>
<feColorMatrix type="matrix" values="0 0 0 0 0 0 0 0 0 0 0 0 0 0 0 0 0 0 0.5 0"/>
<feBlend mode="normal" in2="BackgroundImageFix" result="effect1_dropShadow_2838_5349"/>
<feBlend mode="normal" in="SourceGraphic" in2="effect1_dropShadow_2838_5349" result="shape"/>
</filter>
<filter id="filter1_d_2838_5349" x="13.8765" y="24.2441" width="166.413" height="212.621" filterUnits="userSpaceOnUse" color-interpolation-filters="sRGB">
<feFlood flood-opacity="0" result="BackgroundImageFix"/>
<feColorMatrix in="SourceAlpha" type="matrix" values="0 0 0 0 0 0 0 0 0 0 0 0 0 0 0 0 0 0 127 0" result="hardAlpha"/>
<feOffset/>
<feGaussianBlur stdDeviation="20"/>
<feColorMatrix type="matrix" values="0 0 0 0 0 0 0 0 0 0 0 0 0 0 0 0 0 0 0.5 0"/>
<feBlend mode="normal" in2="BackgroundImageFix" result="effect1_dropShadow_2838_5349"/>
<feBlend mode="normal" in="SourceGraphic" in2="effect1_dropShadow_2838_5349" result="shape"/>
</filter>
<filter id="filter2_d_2838_5349" x="0.344727" y="0.5" width="192.884" height="258.418" filterUnits="userSpaceOnUse" color-interpolation-filters="sRGB">
<feFlood flood-opacity="0" result="BackgroundImageFix"/>
<feColorMatrix in="SourceAlpha" type="matrix" values="0 0 0 0 0 0 0 0 0 0 0 0 0 0 0 0 0 0 127 0" result="hardAlpha"/>
<feOffset/>
<feGaussianBlur stdDeviation="20"/>
<feColorMatrix type="matrix" values="0 0 0 0 0 0 0 0 0 0 0 0 0 0 0 0 0 0 0.5 0"/>
<feBlend mode="normal" in2="BackgroundImageFix" result="effect1_dropShadow_2838_5349"/>
<feBlend mode="normal" in="SourceGraphic" in2="effect1_dropShadow_2838_5349" result="shape"/>
</filter>
</defs>
</g>
</svg>
