<svg width="226" height="346" viewBox="0 0 226 346" fill="none" xmlns="http://www.w3.org/2000/svg">
<path d="M72.0707 181.805C59.7144 171.865 47.3737 161.909 35.0174 151.969C33.0441 144.549 31.0866 137.129 29.1133 129.709C28.1423 123.431 27.1557 117.139 26.1847 110.861C24.0862 112.192 21.9877 113.507 19.9048 114.837V127.455C13.2646 127.58 6.64015 127.705 0 127.815C0.281893 139.539 0.563786 151.28 0.84568 163.005C7.20394 163.271 13.5622 163.521 19.9205 163.787C37.4761 178.753 55.0318 193.734 72.5718 208.699C72.3996 199.729 72.243 190.775 72.0707 181.805Z" fill="#FE71F4"/>
<path d="M129.279 285.388C126.273 298.49 123.266 311.593 120.259 324.695L121.12 337.03L89.3915 346V341.695L101.403 324.695C95.7341 298.709 90.0806 272.74 84.4114 246.754C99.3674 259.637 114.339 272.505 129.295 285.388H129.279Z" fill="#FE71F4"/>
<path d="M146.725 285.388C149.732 298.49 152.739 311.593 155.746 324.695L154.885 337.03L186.613 346V341.695L174.601 324.695C180.271 298.709 185.924 272.74 191.593 246.754C176.637 259.637 161.666 272.505 146.71 285.388H146.725Z" fill="#FE71F4"/>
<path d="M137.955 62.4437L159.708 44.1286L161.54 0L118.943 24.6081L115.936 49.764C106.916 52.1591 97.8953 54.5541 88.8747 56.9492C86.4942 72.0083 84.1138 87.0831 81.7334 102.142C74.2319 110.345 66.7304 118.548 59.2133 126.75C64.1934 133.2 69.1735 139.649 74.1536 146.114L103.878 125.592L141.244 128.504L154.446 108.232L190.262 120.16L220.989 91.1531L178.391 73.3546L152.692 88.6955L147.931 74.2155L137.94 62.4594L137.955 62.4437Z" fill="#FE71F4"/>
<path d="M145.034 126.046C144.549 126.5 144.063 126.922 143.562 127.314C134.588 134.436 121.512 133.622 113.493 125.138C105.115 116.278 105.428 102.346 114.135 93.8613L112.867 92.4211C103.972 98.4948 91.7249 97.3834 84.0825 89.306C76.0798 80.8372 76.0015 67.7348 83.6127 59.1877C84.0355 58.7024 84.4897 58.2328 84.9751 57.7788C86.3063 56.5265 87.7627 55.4464 89.2975 54.6011L118.145 87.3962L120.165 89.6817L148.495 121.882C147.54 123.369 146.381 124.778 145.034 126.046Z" fill="black"/>
<path d="M126.179 226.811C107.777 253.313 89.3758 279.815 70.9588 306.317L0 335.34L92.2574 338.236C114.793 311.89 137.313 285.56 159.849 259.214C148.636 248.413 137.407 237.612 126.194 226.811H126.179Z" fill="#1A2EB5"/>
<path d="M139.302 100.42L52.6201 148.447V244.656L139.302 292.683L226 244.656V148.447L139.302 100.42Z" fill="#2441FF"/>
<path d="M95.7967 142.201L87.841 146.615V174.135L78.5855 179.254V151.734L76.9255 152.657L68.7662 157.181V199.995H78.5855V189.82L87.841 184.701V199.995H97.6603V141.199L95.7967 142.201Z" fill="white"/>
<path d="M156.169 172.554L175.15 149.949L175.212 149.871L177.201 147.492L181.649 142.201L180.693 141.668L180.49 141.559L172.879 137.348L172.8 137.301L152.003 125.78L151.471 125.482L149.748 124.527L142.168 120.332V199.995H152.003V182.525L168.243 199.995H181.664L156.169 172.554ZM166.38 144.971L166.458 145.018L166.395 145.097L152.019 162.222V137.004L166.38 144.971Z" fill="white"/>
<path d="M209.822 157.166L200.269 151.875L199.988 151.718L194.209 148.509L186.895 144.455L184.374 143.062V199.979H194.506L199.988 199.165L200.269 199.118V199.165L209.822 197.741L210.104 197.694V157.291L209.822 157.134V157.166ZM199.988 189.836L194.209 190.697V159.592L199.988 162.801L200.269 162.958V189.804L199.988 189.851V189.836Z" fill="white"/>
<path d="M99.3673 204.034H88.4205H78.5855H68.7662V210.437L78.5855 211.548V241.353L88.4205 246.801V212.644L99.3673 213.865V204.034Z" fill="white"/>
<path d="M181.383 251.685L180.098 252.405V250.871L181.383 251.685Z" fill="white"/>
<path d="M200.285 204.034V219.516L189.918 225.261V204.034H180.098V240.398V241.228V252.405L180.318 252.28L181.383 251.685L187.287 248.413L187.569 248.257L189.918 246.957V240.398V235.827L200.285 230.082V241.212L210.12 235.765V204.034H200.285Z" fill="white"/>
<path d="M156.247 235.827L168.932 213.865L170.483 211.204L176.7 209.904V204.034H168.165H163.263L157.594 213.865L147.931 230.568L143.014 239.099L142.92 239.256H142.935H142.92V261.782V266.932V272.99L145.519 271.55L145.535 271.565L146.381 271.096L152.755 267.574L154.149 266.807L164.798 260.936V260.889L166.035 260.201L176.7 254.33V243.107L171.939 245.721L170.765 246.378L162.12 251.153L161.212 251.654L156.889 254.049L153.882 255.708L152.755 256.318V241.886L156.247 235.827Z" fill="white"/>
<path d="M122.06 127.658L107.668 135.673L100.683 200.011H110.565L112.444 182.666L112.554 181.633L121.731 176.546L122.952 182.666L126.398 200.011H136.421L122.06 127.674V127.658ZM113.791 170.378L116.171 148.447L119.852 167.012L113.791 170.378Z" fill="white"/>
<path d="M136.515 213.865V204.034H116.391H109.531H106.571V246.785V256.851L112.319 260.044L116.391 262.298V262.314L136.499 273.397H136.515V262.173L129.796 258.447L116.391 251.074V236.72L132.834 245.924V233.698L116.391 228.204V211.376L136.515 213.865Z" fill="white"/>
</svg>
