<svg width="88" height="97" viewBox="0 0 88 97" fill="none" xmlns="http://www.w3.org/2000/svg">
<g clip-path="url(#clip0_1193_4283)">
<path d="M44.0024 0L0 24.23V72.77L44.0024 97L88 72.77V24.23L44.0024 0Z" fill="#2441FF"/>
<path d="M21.9159 21.083L17.876 23.3067V37.1908L13.1818 39.7726V25.8885L12.3378 26.3596L8.1936 28.6399V50.241H13.1818V45.1104L17.876 42.524V50.241H22.8642V20.5742L21.9159 21.083Z" fill="white"/>
<path d="M52.5563 36.3945L62.1866 24.9885L62.2198 24.9461L63.2345 23.7495L65.4868 21.0782L65.0031 20.8144L64.9036 20.7578L61.0439 18.633L61.0012 18.6095L50.4416 12.7958L50.176 12.645L49.2988 12.1598L45.4534 10.0444V50.2314H50.4416V41.4167L58.6825 50.2314H65.4915L52.5516 36.3898L52.5563 36.3945ZM57.7342 22.4774L57.7769 22.501L57.7437 22.5434L50.4463 31.1838V18.4587L57.7389 22.4774H57.7342Z" fill="white"/>
<path d="M79.7922 28.6303L74.9463 25.9637L74.804 25.8836L71.8689 24.2677L68.1562 22.223L66.8807 21.521V50.2408H72.0254L74.804 49.8309L74.9463 49.8074V49.8309L79.7922 49.1148L79.9345 49.096V28.7151L79.7922 28.635V28.6303ZM74.804 45.1102L71.8689 45.5437V29.8505L74.804 31.4665L74.9463 31.5465V45.0914L74.804 45.115V45.1102Z" fill="white"/>
<path d="M23.7319 52.2808H18.17H13.1818H8.1936V55.508L13.1818 56.0639V71.1069L18.17 73.8536V56.6198L23.7319 57.237V52.2808Z" fill="white"/>
<path d="M65.3587 76.3174L64.7043 76.6755V75.9028L65.3587 76.3174Z" fill="white"/>
<path d="M74.951 52.2808V60.0873L69.6925 62.9847V52.2808H64.7043V70.617V71.041V76.6756L64.8087 76.6191L65.3587 76.3176L68.3507 74.6686L68.4977 74.5886L69.6925 73.929V70.617V68.3179L74.951 65.4204V71.0316L79.9392 68.2849V52.2808H74.951Z" fill="white"/>
<path d="M52.599 68.3132L59.0381 57.237L59.8205 55.8896L62.9784 55.2394V52.2808H58.6446H56.1552L53.277 57.237L48.3789 65.6654L45.8848 69.9621L45.8374 70.0422L45.8421 70.0469H45.8374V81.4104V84.0063V87.0639L47.1556 86.3384L47.1603 86.3431V86.3478L47.5965 86.1076L50.8256 84.3361L51.5274 83.9451L56.9376 80.9817V80.9582L57.5682 80.6142L62.9784 77.6461V71.9879L60.5649 73.3118L59.9675 73.6369L55.5815 76.0443L55.1168 76.2987L52.9214 77.5048L51.3946 78.3434L50.8256 78.6544V71.3708L52.599 68.3132Z" fill="white"/>
<path d="M35.2494 13.7425L27.9473 17.78L24.4005 50.2359H29.4172L30.375 41.4871L30.4319 40.9641L35.0882 38.4012L35.7046 41.4871L37.4495 50.2359H42.5373L35.2494 13.7378V13.7425ZM31.0483 35.2965L32.2527 24.2345L34.1256 33.6051L31.0483 35.3012V35.2965Z" fill="white"/>
<path d="M42.5846 57.237V52.2808H32.3711H28.8908H27.3829V73.8442V78.9276L30.3038 80.5342L32.3711 81.6696V81.6743L42.5799 87.276H42.5846V81.6083L39.1754 79.7332L32.3711 76.0066V68.7702L40.7212 73.406V67.2437L32.3711 64.4688V55.9791L42.5846 57.237Z" fill="white"/>
</g>
<defs>
<clipPath id="clip0_1193_4283">
<rect width="88" height="97" fill="white"/>
</clipPath>
</defs>
</svg>
