<svg xmlns="http://www.w3.org/2000/svg" width="185.903" height="186.082" viewBox="0 0 185.903 186.082" fill="none">
<g transform="translate(-18.448,-29.549)">
<path d="M170.875 121.84C170.875 141.748 161.049 159.36 145.987 170.084C136.33 176.959 124.524 181.001 111.769 181.001C99.0147 181.001 87.2742 176.981 77.6326 170.142C62.5238 159.424 52.6636 141.785 52.6636 121.84C52.6636 89.1641 79.1259 62.6758 111.769 62.6758C144.412 62.6758 170.875 89.1641 170.875 121.84Z" fill="#2441FF"/>
<g filter="url(#filter0_d_2838_5204)">
<path d="M150.275 89.2557C151.326 88.1959 151.776 87.0097 151.979 86.2926C151.407 86.1239 150.551 85.8418 149.559 85.3963C145.419 83.5352 143.135 80.7224 141.937 79.4728C140.02 77.4746 136.717 75.1495 130.644 73.8894C130.383 73.834 130.117 73.7813 129.846 73.7312C129.844 73.7312 129.838 73.7286 129.836 73.7286C129.854 73.7207 129.886 73.7101 129.928 73.6943C129.951 73.6838 129.975 73.6732 129.999 73.6627C130.096 73.6231 130.225 73.5625 130.375 73.4834C130.378 73.4808 130.381 73.4808 130.383 73.4781C131.073 73.1144 132.19 72.3261 132.524 70.9474C132.685 70.2884 132.617 69.7031 132.524 69.2998C126.62 69.3736 118.703 70.2857 110.2 73.8182C107.745 74.8411 105.522 75.9641 103.529 77.1108C103.51 77.1187 103.495 77.1293 103.476 77.1398C103.676 76.7839 103.874 76.4307 104.074 76.0748C105.338 73.8156 106.605 71.5564 107.869 69.2998C103.832 70.8841 100.429 71.9096 98.0087 72.5634C91.517 74.3165 88.3461 74.4087 85.9048 77.1398C84.1245 79.1275 83.5767 81.5712 83.395 83.3322C83.179 82.9948 82.4864 82.0009 81.1538 81.5369C79.2524 80.8779 77.6169 81.8454 77.3878 81.9851C76.7294 83.7408 75.7655 85.8524 74.3381 88.0879C72.621 90.7873 70.767 92.8224 69.2289 94.2802C69.9979 94.5043 71.9863 94.963 74.159 94.101C74.9491 93.7873 75.5732 93.3734 76.0341 93.0017C76.1 92.9463 76.1632 92.8962 76.2211 92.8435C76.071 93.2231 75.9103 93.6555 75.7497 94.1326C74.9649 96.4525 74.1537 99.8927 74.3592 104.063C74.5409 107.696 75.4363 110.741 76.4055 113.066C76.3317 113.545 76.2922 114.038 76.2922 114.539C76.2922 119.411 79.9108 123.402 84.5169 123.792V123.8C84.7197 134.914 92.5941 143.851 102.278 143.851H103.063C103.505 145.406 103.608 147.049 103.392 148.657C103.326 149.144 103.231 149.629 103.11 150.107C103.092 150.101 103.073 150.101 103.055 150.104L98.2326 150.932C98.1905 150.94 98.1536 150.966 98.1352 151.008C97.4399 152.542 97.1344 154.24 97.2213 155.917C87.3243 158.561 79.9239 163.804 77.6353 170.139C87.2216 176.938 98.9173 180.95 111.551 180.995C111.551 181.069 111.609 181.129 111.682 181.129C111.756 181.129 111.814 181.071 111.814 180.997C124.553 180.987 136.343 176.948 145.99 170.081C143.667 163.746 136.233 158.508 126.309 155.885C126.391 154.219 126.083 152.532 125.393 151.008C125.374 150.969 125.34 150.94 125.295 150.932L120.473 150.104C120.455 150.101 120.439 150.104 120.423 150.104C119.899 148.069 119.907 145.857 120.473 143.851H121.35C131.023 143.851 138.893 134.927 139.108 123.827H139.114C144.065 123.827 148.078 119.669 148.078 114.539C148.078 113.664 147.96 112.818 147.741 112.014C149.495 108.284 151.199 102.473 148.658 96.8795C147.741 94.8602 146.469 93.3049 145.226 92.137C144.876 91.8101 144.531 91.5123 144.197 91.2434C144.191 91.2407 144.189 91.2355 144.183 91.2328C144.668 91.2882 147.941 91.6098 150.277 89.253L150.275 89.2557ZM111.232 147.813C115.209 146.822 118.24 145.174 120.239 143.856C118.24 145.174 115.206 146.822 111.229 147.813H111.232Z" fill="black"/>
</g>
<path d="M145.987 170.083C136.33 176.958 124.524 181 111.769 181C99.0148 181 87.2743 176.979 77.6328 170.141C80.9484 160.962 94.996 154.068 111.822 154.068C128.648 154.068 142.632 160.93 145.987 170.083Z" fill="#99D3FF"/>
<path d="M144.181 91.2355C144.181 91.2355 144.189 91.2434 144.194 91.246C144.528 91.5149 144.873 91.8128 145.224 92.1397C146.467 93.3075 147.739 94.8628 148.655 96.8822C152.732 105.861 145.877 115.393 145.426 115.997C123.052 116.261 100.674 116.524 78.299 116.788C77.0033 114.668 74.6647 110.192 74.3592 104.063C74.1537 99.8927 74.9649 96.4525 75.7497 94.1326C75.9103 93.6555 76.071 93.2231 76.2211 92.8435C76.1632 92.8962 76.1 92.9463 76.0341 93.0017C75.5732 93.3734 74.9491 93.7873 74.159 94.101C71.9863 94.963 69.9979 94.5043 69.2289 94.2802C70.767 92.8224 72.621 90.7873 74.3381 88.0879C75.7655 85.8524 76.7294 83.7408 77.3878 81.9851C77.6169 81.8454 79.2524 80.8779 81.1538 81.5369C82.4864 82.0009 83.179 82.9948 83.395 83.3322C83.5767 81.5712 84.1245 79.1275 85.9048 77.1398C88.3461 74.4087 91.517 74.3165 98.0087 72.5634C100.429 71.9096 103.832 70.8841 107.869 69.2998C106.605 71.5564 105.338 73.8156 104.074 76.0748C103.874 76.4307 103.676 76.7839 103.476 77.1398C103.495 77.1293 103.51 77.1187 103.529 77.1108C105.522 75.9641 107.745 74.8411 110.2 73.8182C118.703 70.2857 126.62 69.3736 132.524 69.2998C132.617 69.7031 132.685 70.2884 132.524 70.9474C132.19 72.3261 131.073 73.1144 130.383 73.4781C130.381 73.4781 130.378 73.4781 130.375 73.4834C130.225 73.5625 130.096 73.6231 129.999 73.6627C129.975 73.6732 129.951 73.6838 129.928 73.6943C129.886 73.7101 129.854 73.7207 129.836 73.7286C129.838 73.7286 129.844 73.7312 129.846 73.7312C130.117 73.7813 130.383 73.834 130.644 73.8894C136.717 75.1495 140.02 77.4746 141.937 79.4728C143.135 80.7224 145.419 83.5352 149.559 85.3963C150.551 85.8418 151.407 86.1239 151.979 86.2926C151.776 87.0097 151.326 88.1959 150.275 89.2557C147.939 91.6124 144.665 91.2908 144.181 91.2355Z" fill="#523333"/>
<path d="M122.303 140.271H101.235C101.482 140.559 101.696 140.843 101.872 141.131C101.92 141.207 101.959 141.283 102.004 141.36C108.177 142.127 114.35 142.894 120.523 143.664C118.532 145.008 115.398 146.772 111.229 147.811C108.148 148.578 105.43 148.718 103.392 148.662C103.392 148.662 103.392 148.66 103.392 148.657C103.223 149.909 102.868 151.138 102.328 152.284C102.041 152.856 101.719 153.428 101.237 154C105.654 157.203 109.175 157.76 111.682 157.591C116.465 157.269 122.306 154 122.306 154C119.33 150.236 119.23 143.991 122.306 140.269L122.303 140.271Z" fill="#F2BCA2"/>
<path d="M120.526 143.666C118.535 145.01 115.401 146.774 111.232 147.812C108.151 148.582 105.435 148.722 103.394 148.666C103.394 148.664 103.392 148.661 103.392 148.661C103.729 146.159 103.294 143.568 102.006 141.364C108.18 142.131 114.353 142.899 120.526 143.666Z" fill="#E3917B"/>
<path d="M139.108 108.623V123.357C139.108 123.515 139.106 123.671 139.103 123.829C138.887 134.93 131.018 143.853 121.345 143.853H102.275C92.5915 143.853 84.7171 134.917 84.5143 123.803V123.795C84.5143 123.65 84.509 123.502 84.509 123.357V108.623C84.8251 105.555 85.8285 99.5734 89.713 94.1271C96.4734 84.65 106.726 84.1333 110.358 83.9515C121.097 83.411 129.92 89.1553 133.907 94.1271C137.123 98.142 138.311 102.526 138.311 102.526C138.829 104.45 139.108 106.499 139.108 108.623Z" fill="#F2BCA2"/>
<path d="M85.2568 123.827C90.2079 123.827 94.2216 119.669 94.2216 114.54C94.2216 109.411 90.2079 105.253 85.2568 105.253C80.3058 105.253 76.2921 109.411 76.2921 114.54C76.2921 119.669 80.3058 123.827 85.2568 123.827Z" fill="#F2BCA2"/>
<path d="M139.109 123.827C144.06 123.827 148.073 119.669 148.073 114.54C148.073 109.411 144.06 105.253 139.109 105.253C134.157 105.253 130.144 109.411 130.144 114.54C130.144 119.669 134.157 123.827 139.109 123.827Z" fill="#F2BCA2"/>
<path d="M134.034 104.109C131.853 103.163 129.549 102.585 127.242 102.388C124.935 102.187 122.625 102.369 120.431 102.902L119.984 100.054C125.008 99.6169 130.133 100.845 134.35 103.516L134.036 104.109H134.034Z" fill="#3D0000"/>
<path d="M88.9387 103.517C93.155 100.849 98.28 99.6206 103.305 100.056L102.857 102.903C100.663 102.37 98.3537 102.186 96.0467 102.389C93.7397 102.586 91.4327 103.164 89.2547 104.11L88.9413 103.517H88.9387Z" fill="#3D0000"/>
<path d="M112.615 116.828L112.18 121.673H111.106L110.674 116.828H112.615Z" fill="#FF9873"/>
<path d="M103.126 127.667L111.964 132.148L111.327 132.154L119.712 127.667L120.544 129.312L111.977 133.44L111.661 133.593L111.34 133.446L102.328 129.33L103.126 127.667Z" fill="#FF9873"/>
<path d="M98.1589 113.882C98.1773 116.162 98.2879 118.432 98.7225 120.683H93.4553C93.8899 118.432 93.9978 116.162 94.0189 113.882V113.819C94.011 111.517 93.9109 109.226 93.4553 106.954H98.7225C98.2669 109.226 98.1642 111.517 98.1589 113.819V113.882Z" fill="#3D0000"/>
<path d="M129.269 113.882C129.288 116.162 129.398 118.432 129.833 120.683H124.566C125 118.432 125.108 116.162 125.129 113.882V113.819C125.121 111.517 125.019 109.226 124.566 106.954H129.833C129.377 109.226 129.275 111.517 129.269 113.819V113.882Z" fill="#3D0000"/>
<path d="M98.7225 120.684H93.4553C93.8899 118.433 93.9978 116.163 94.0189 113.883H98.1589C98.1773 116.163 98.2879 118.433 98.7225 120.684Z" fill="#800000"/>
<path d="M129.833 120.684H124.566C125 118.433 125.108 116.163 125.129 113.883H129.269C129.288 116.163 129.398 118.433 129.833 120.684Z" fill="#800000"/>
<path d="M111.651 157.436C110.107 157.04 107.832 156.244 105.533 154.541C104.321 153.645 103.386 152.704 102.678 151.876C102.81 151.33 102.941 150.785 103.073 150.236C101.467 150.513 99.8575 150.787 98.251 151.064C97.8533 151.958 97.4109 153.271 97.3372 154.887C97.2581 156.613 97.6321 158.029 97.9771 158.967C98.862 160.254 101.048 162.982 105.264 164.58C106.765 165.149 108.18 165.444 109.354 165.6C109.065 164.864 108.49 163.067 109.225 160.905C109.82 159.157 110.995 157.997 111.648 157.436H111.651Z" fill="#99D3FF"/>
<path d="M111.524 157.467C111.419 157.478 111.393 157.52 111.29 157.491L110.961 157.412C107.608 156.571 104.537 154.742 102.196 152.174C102.086 152.055 102.067 151.881 102.138 151.744L102.947 150.207C102.947 150.202 103.097 150.368 103.097 150.368L98.2748 151.196L98.3722 151.12C97.8297 152.34 97.511 153.661 97.4663 154.995C97.3952 156.281 97.6875 157.805 98.0852 158.894C100.64 162.629 104.932 164.915 109.373 165.471L109.233 165.65C108.949 164.933 108.785 164.171 108.746 163.399C108.614 161.163 109.71 159.002 111.351 157.528L111.403 157.481C111.422 157.465 111.44 157.444 111.443 157.449C111.453 157.449 111.477 157.47 111.524 157.47V157.467ZM111.78 157.407C111.748 157.515 111.622 157.647 111.53 157.723C109.947 159.144 108.885 161.229 109.012 163.386C109.049 164.126 109.209 164.862 109.481 165.553C109.52 165.642 109.439 165.748 109.341 165.732C104.827 165.165 100.434 162.832 97.856 159.015C96.8921 156.445 97.0028 153.511 98.1326 151.011C98.151 150.969 98.1879 150.943 98.23 150.935L103.052 150.107C103.128 150.094 103.202 150.155 103.202 150.231V150.268L103.221 152.005C103.221 152.005 103.1 151.507 103.102 151.512C104.171 152.875 105.462 154.077 106.913 155.058C108.277 155.981 109.791 156.708 111.364 157.209C111.482 157.238 111.674 157.333 111.777 157.404L111.78 157.407Z" fill="#9992FF"/>
<path d="M111.651 157.435C113.22 157.074 115.596 156.301 117.987 154.54C119.201 153.644 120.139 152.703 120.842 151.875C120.71 151.329 120.579 150.784 120.447 150.235C122.053 150.512 123.663 150.786 125.269 151.063C125.667 151.957 126.109 153.27 126.183 154.886C126.262 156.612 125.888 158.028 125.543 158.966C124.658 160.253 122.472 162.981 118.256 164.579C116.755 165.148 115.34 165.443 114.166 165.599C114.369 165.085 115.056 163.168 114.295 160.904C113.602 158.848 112.138 157.764 111.653 157.435H111.651Z" fill="#99D3FF"/>
<path d="M111.522 157.412C111.624 157.338 111.827 157.238 111.948 157.214C113.56 156.737 115.114 156.02 116.512 155.095C118 154.106 119.314 152.888 120.397 151.497L120.273 152.013L120.318 150.271C120.318 150.271 120.318 150.234 120.318 150.231C120.318 150.155 120.392 150.094 120.468 150.107L125.29 150.935C125.335 150.943 125.372 150.972 125.388 151.011C126.517 153.511 126.628 156.445 125.664 159.015C123.086 162.832 118.693 165.165 114.179 165.732C114.082 165.745 114 165.642 114.039 165.553C115.159 162.806 114.211 159.445 111.803 157.71C111.706 157.641 111.556 157.544 111.519 157.412H111.522ZM111.78 157.46C111.803 157.452 111.822 157.431 111.825 157.415C111.832 157.402 111.814 157.388 111.843 157.409L111.961 157.496C114.463 159.3 115.448 162.795 114.284 165.648L114.145 165.468C118.585 164.912 122.88 162.626 125.432 158.891C125.827 157.802 126.122 156.279 126.051 154.992C126.006 153.658 125.688 152.337 125.145 151.117L125.243 151.193L120.421 150.366C120.421 150.366 120.571 150.2 120.571 150.205L121.406 151.736C121.487 151.884 121.458 152.063 121.35 152.179C118.964 154.808 115.796 156.645 112.351 157.423L112.014 157.496C111.904 157.525 111.885 157.473 111.777 157.46H111.78Z" fill="#9992FF"/>
<path d="M111.68 181.132C111.606 181.132 111.548 181.074 111.548 181V157.783C111.548 157.709 111.606 157.651 111.68 157.651C111.753 157.651 111.811 157.709 111.811 157.783V181C111.811 181.074 111.753 181.132 111.68 181.132Z" fill="#9992FF"/>
<path opacity="0.64" d="M135.39 124.032C129.886 124.865 127.163 127.709 125.195 126.481C124.118 125.811 124.705 124.82 123.631 123.761C121.503 121.662 118.071 124.433 112.009 124.372C106.073 124.314 103.136 121.594 100.116 123.692C98.8778 124.554 99.1122 125.189 97.8718 125.732C95.5727 126.742 93.5369 125.087 89.1046 124.238C87.1768 123.869 85.5624 123.797 84.5143 123.795V123.803C84.7171 134.917 92.5915 143.853 102.275 143.853H121.345C131.018 143.853 138.887 134.93 139.103 123.829C138.305 123.795 136.986 123.79 135.39 124.032ZM122.143 131.685C122.143 133.425 120.721 134.848 118.983 134.848H104.303C102.565 134.848 101.143 133.425 101.143 131.685V129.033C101.143 127.293 102.565 125.869 104.303 125.869H118.983C120.721 125.869 122.143 127.293 122.143 129.033V131.685Z" fill="#523333"/>
<path d="M87.7404 95.6058C91.5065 93.4257 100.137 89.105 111.919 89.0655C123.56 89.0259 132.132 93.1858 135.925 95.3211C136.757 92.6902 137.592 90.0619 138.424 87.431C134.753 85.0347 124.842 79.2641 110.966 79.4039C97.6822 79.5383 88.2066 85.0163 84.5064 87.431L87.7378 95.6058H87.7404Z" fill="#523333"/>
<path d="M75.7497 94.1314C75.9103 93.6542 76.071 93.2219 76.2211 92.8423C77.9514 91.308 78.9258 88.9434 78.5571 86.584C79.2576 89.3889 78.0119 92.3968 75.7497 94.1314Z" fill="#3D2424"/>
<path d="M103.476 77.1402C103.494 77.1297 103.51 77.1191 103.529 77.1112C102.133 78.1314 100.621 78.9882 99.0332 79.6551C97.8929 80.1375 96.7104 80.5198 95.5095 80.8045C94.3085 81.0892 93.0866 81.2737 91.8593 81.3607C93.0813 81.2289 94.2954 81.0022 95.4779 80.6753C96.6603 80.3511 97.8165 79.9319 98.9252 79.4152C100.795 78.5506 102.531 77.4196 104.074 76.0752C103.874 76.4311 103.676 76.7843 103.476 77.1402Z" fill="#3D2424"/>
<path d="M130.376 73.4854C130.226 73.5646 130.096 73.6253 129.999 73.6649C130.125 73.6068 130.252 73.5461 130.376 73.4854Z" fill="#3D2424"/>
<path d="M130.644 73.8896C126.478 75.7508 121.758 76.2675 117.287 75.387C121.516 76.0645 125.948 75.4924 129.846 73.7314C130.117 73.7815 130.383 73.8343 130.644 73.8896Z" fill="#3D2424"/>
<path d="M145.224 92.1387L145.218 92.1519C140.517 90.5306 136.446 87.2828 133.773 83.1045C135.177 85.1212 136.902 86.9138 138.877 88.3689C140.51 89.5737 142.303 90.5412 144.194 91.245C144.528 91.5139 144.873 91.8118 145.224 92.1387Z" fill="#3D2424"/>
<path d="M182.853 122.131C182.853 146.068 171.027 167.243 152.901 180.137C141.278 188.403 127.069 193.262 111.719 193.262C96.3684 193.262 82.2386 188.429 70.6349 180.207C52.4511 167.319 40.5844 146.112 40.5844 122.131C40.5844 82.8447 72.432 50.9971 111.719 50.9971C151.005 50.9971 182.853 82.8447 182.853 122.131Z" fill="#2441FF"/>
<g filter="url(#filter1_d_2838_5204)">
<path d="M129.215 163.065C129.313 161.062 128.942 159.033 128.112 157.201C128.089 157.154 128.048 157.119 127.994 157.109L122.191 156.114C122.169 156.111 122.15 156.114 122.131 156.114C121.5 153.667 121.509 151.008 122.191 148.596H123.246C134.888 148.596 144.359 137.867 144.619 124.52H144.625C150.584 124.52 155.414 119.522 155.414 113.354C155.414 108.901 152.894 105.056 149.249 103.262C149.693 99.5125 149.655 96.3271 149.655 96.3271C149.601 92.0006 149.484 86.9135 146.711 81.4397C145.994 80.0292 145.249 78.885 144.631 78.0229C144.501 77.8391 144.375 77.6711 144.257 77.5126C144.65 77.4461 145.097 77.389 145.595 77.3573C146.039 77.3288 146.52 77.3225 147.037 77.351C147.918 77.3954 148.692 77.5253 149.329 77.6774C148.536 76.3082 147.167 74.3843 144.91 72.7678C140.723 69.7758 136.099 69.7155 133.63 69.9501H133.624C132.958 70.0135 132.451 70.0991 132.15 70.1529C132.169 70.1276 132.188 70.1022 132.21 70.0769C132.609 69.5444 133.278 68.809 134.276 68.1878C135.788 67.2496 137.249 67.0721 137.991 67.0341C136.635 66.3083 134.958 65.5856 132.967 65.0817C128.001 63.8202 123.63 64.5745 120.904 65.3479C120.46 65.4747 120.058 65.6015 119.706 65.7187C119.738 65.6649 119.769 65.6173 119.795 65.5603C119.795 65.5603 119.797 65.5581 119.801 65.5539C120.21 64.8598 120.619 64.1562 121.025 63.443C121.528 62.565 122.02 61.6934 122.498 60.8281C118.489 62.1784 114.479 63.5286 110.47 64.8788C109.151 63.9121 106.739 62.4034 103.357 61.6459C100.128 60.92 97.4209 61.199 95.833 61.4811C96.8821 62.901 97.9344 64.3178 98.9835 65.7378C99.0247 65.7916 99.0627 65.8455 99.1039 65.8994C98.7997 65.8043 98.4827 65.7124 98.1531 65.6205C95.9407 65.0088 93.161 64.4858 89.9439 64.4256C83.1643 64.2988 77.8648 66.2956 74.8949 67.6965C76.28 67.6743 78.9044 67.8487 81.4369 69.4968C82.0993 69.9279 82.6476 70.3875 83.104 70.8407V70.8439C83.1484 70.8851 83.1928 70.9263 83.234 70.9707C83.0565 70.9643 82.7617 70.9548 82.3782 70.9707C80.8885 71.0246 78.0771 71.4271 75.7126 73.5856C74.1849 74.9833 73.4464 76.5586 73.0946 77.5126C73.532 77.332 74.5653 76.977 75.8743 77.1862C77.0058 77.3668 77.7919 77.8835 78.1659 78.1687C78.1627 78.1782 78.1595 78.1846 78.1564 78.1941C78.093 78.3399 78.0296 78.4888 77.9694 78.6442C76.2863 82.7329 73.9948 89.9911 74.8949 98.9419C74.8949 98.9419 75.0692 100.676 75.57 103.085C71.719 104.79 69.0217 108.745 69.0217 113.354C69.0217 119.211 73.3767 124.01 78.9202 124.479V124.488C79.1643 137.851 88.6412 148.596 100.296 148.596H101.24C101.773 150.466 101.896 152.441 101.636 154.374C101.557 154.961 101.443 155.544 101.297 156.117C101.275 156.111 101.253 156.111 101.231 156.114L95.4273 157.109C95.3765 157.119 95.3322 157.151 95.31 157.201C94.4732 159.046 94.1056 161.087 94.2101 163.103C82.299 166.282 73.3925 172.586 70.6382 180.203C82.1754 188.377 96.2513 193.201 111.456 193.255C111.456 193.344 111.525 193.417 111.614 193.417C111.703 193.417 111.773 193.347 111.773 193.258C127.104 193.245 141.294 188.39 152.904 180.133C150.108 172.517 141.161 166.219 129.218 163.065H129.215ZM121.915 148.596C119.51 150.181 115.858 152.162 111.072 153.354C115.858 152.162 119.506 150.181 121.912 148.596H121.915Z" fill="black"/>
</g>
<path d="M152.901 180.138C141.278 188.404 127.069 193.263 111.719 193.263C96.3685 193.263 82.2387 188.429 70.6349 180.208C74.6254 169.171 91.5318 160.883 111.782 160.883C132.032 160.883 148.863 169.133 152.901 180.138Z" fill="#FBD3FF"/>
<path d="M124.397 144.294H99.0405C99.3384 144.64 99.5951 144.982 99.8075 145.327C99.8646 145.419 99.9121 145.511 99.966 145.603C107.395 146.526 114.825 147.448 122.254 148.373C119.858 149.99 116.086 152.11 111.069 153.359C107.361 154.281 104.09 154.449 101.636 154.383C101.636 154.383 101.636 154.38 101.636 154.377C101.433 155.882 101.006 157.359 100.356 158.738C100.01 159.426 99.6237 160.113 99.0436 160.801C104.359 164.652 108.597 165.321 111.614 165.118C117.37 164.731 124.4 160.801 124.4 160.801C120.818 156.275 120.698 148.766 124.4 144.291L124.397 144.294Z" fill="#E6AA8F"/>
<path d="M122.257 148.372C119.861 149.989 116.089 152.109 111.072 153.358C107.364 154.284 104.096 154.452 101.639 154.385C101.639 154.382 101.636 154.379 101.636 154.379C102.042 151.371 101.519 148.255 99.9691 145.605C107.398 146.528 114.828 147.45 122.257 148.372Z" fill="#E3917B"/>
<path d="M148.508 107.614C146.593 115.835 136.314 140.666 113.484 141.198C89.0944 141.769 77.5097 109.832 77.0216 108.431C75.3734 103.706 74.8948 98.9417 74.8948 98.9417C73.9946 89.9909 76.2862 82.7326 77.9692 78.6439C78.0295 78.4886 78.0929 78.3396 78.1563 78.1938C78.1594 78.1843 78.1626 78.178 78.1658 78.1685C77.7918 77.8832 77.0057 77.3666 75.8742 77.1859C74.5652 76.9767 73.5319 77.3317 73.0945 77.5124C73.4463 76.5583 74.1848 74.9831 75.7125 73.5853C78.077 71.4269 80.8884 71.0243 82.3781 70.9704H82.3813C82.7648 70.9546 83.0596 70.9641 83.237 70.9704C83.1958 70.9261 83.1515 70.8849 83.1071 70.8437C83.1071 70.8437 83.1071 70.8437 83.1039 70.8437C82.6475 70.3904 82.0992 69.9308 81.4367 69.4998C78.9043 67.8516 76.2799 67.6773 74.8948 67.6995C77.8647 66.2985 83.1641 64.3017 89.9438 64.4285C93.1609 64.4887 95.9406 65.0117 98.1529 65.6234C98.4826 65.7153 98.7995 65.8072 99.1038 65.9023C99.0626 65.8484 99.0246 65.7946 98.9834 65.7407C97.9342 64.3207 96.882 62.9039 95.8328 61.484C97.4208 61.2019 100.128 60.923 103.357 61.6488C106.739 62.4063 109.151 63.915 110.47 64.8817C114.479 63.5315 118.489 62.1813 122.498 60.8311C122.02 61.6963 121.528 62.568 121.024 63.4459C120.619 64.1591 120.21 64.8627 119.801 65.5568C119.801 65.5568 119.799 65.559 119.795 65.5632C119.769 65.6202 119.738 65.6678 119.706 65.7217C120.058 65.6044 120.46 65.4776 120.904 65.3508C123.63 64.5775 128.001 63.8231 132.967 65.0846C134.958 65.5885 136.634 66.3112 137.991 67.037C137.249 67.0751 135.788 67.2526 134.276 68.1907C133.278 68.812 132.609 69.5473 132.21 70.0798C132.188 70.1052 132.169 70.1305 132.15 70.1559C132.451 70.102 132.958 70.0164 133.623 69.953C133.623 69.953 133.627 69.953 133.63 69.953C136.099 69.7185 140.723 69.7787 144.91 72.7707C147.167 74.3872 148.536 76.3111 149.329 77.6804C148.691 77.5282 147.918 77.3983 147.037 77.3539C146.52 77.3254 146.039 77.3317 145.595 77.3602C145.097 77.3919 144.65 77.449 144.257 77.5156C144.374 77.674 144.501 77.842 144.631 78.0259C145.249 78.888 145.994 80.0322 146.71 81.4426C149.484 86.9164 149.601 92.0036 149.655 96.33C149.655 96.33 149.728 102.384 148.508 107.617V107.614Z" fill="#291919"/>
<path d="M79.8109 124.521C85.7696 124.521 90.6 119.522 90.6 113.355C90.6 107.188 85.7696 102.188 79.8109 102.188C73.8522 102.188 69.0217 107.188 69.0217 113.355C69.0217 119.522 73.8522 124.521 79.8109 124.521Z" fill="#E6AA8F"/>
<path d="M144.622 124.521C150.58 124.521 155.411 119.522 155.411 113.355C155.411 107.188 150.58 102.188 144.622 102.188C138.663 102.188 133.833 107.188 133.833 113.355C133.833 119.522 138.663 124.521 144.622 124.521Z" fill="#E6AA8F"/>
<path d="M144.622 106.243V123.957C144.622 124.147 144.619 124.334 144.615 124.524C144.356 137.871 134.885 148.6 123.243 148.6H100.292C88.638 148.6 79.161 137.856 78.917 124.493V124.483C78.917 124.309 78.9106 124.131 78.9106 123.957V106.243C79.291 102.553 80.4986 95.3615 85.1737 88.8132C93.3099 77.4187 105.649 76.7974 110.02 76.5787C122.945 75.929 133.563 82.8354 138.362 88.8132C142.232 93.6404 143.661 98.9114 143.661 98.9114C144.286 101.225 144.622 103.688 144.622 106.243Z" fill="#E6AA8F"/>
<path d="M84.676 100.714C86.2006 99.212 88.2798 98.0963 90.47 97.9473C91.7314 97.8554 93.405 97.9854 94.6633 98.0202C96.0515 98.0583 99.3574 98.0868 100.787 98.109L100.704 100.378C98.3178 100.131 94.8281 99.8079 92.4826 99.4719C89.7663 98.9901 87.367 99.5258 85.2148 101.313L84.676 100.711V100.714Z" fill="#291919"/>
<path d="M137.918 101.317C135.772 99.5322 133.36 98.9934 130.65 99.4752C128.317 99.8112 124.802 100.134 122.428 100.382L122.346 98.1123C123.801 98.0901 127.065 98.0647 128.47 98.0235C129.734 97.9887 131.395 97.8587 132.663 97.9475C134.853 98.0964 136.932 99.2121 138.457 100.714L137.918 101.317Z" fill="#291919"/>
<path d="M112.736 116.106L112.213 121.932H110.92L110.4 116.106H112.736Z" fill="#EB8C6A"/>
<path d="M101.316 129.139L111.953 134.527L111.186 134.533L121.278 129.139L122.28 131.116L111.969 136.08L111.589 136.264L111.202 136.086L100.356 131.139L101.316 129.139Z" fill="#EB8C6A"/>
<path d="M95.3384 112.566C95.3606 115.308 95.4937 118.037 96.0167 120.743H89.6776C90.2006 118.037 90.3305 115.308 90.3559 112.566V112.49C90.3464 109.723 90.2259 106.968 89.6776 104.236H96.0167C95.4684 106.968 95.3448 109.723 95.3384 112.49V112.566Z" fill="#3D0000"/>
<path d="M132.78 112.566C132.803 115.308 132.936 118.037 133.459 120.743H127.12C127.642 118.037 127.772 115.308 127.798 112.566V112.49C127.788 109.723 127.665 106.968 127.12 104.236H133.459C132.91 106.968 132.787 109.723 132.78 112.49V112.566Z" fill="#3D0000"/>
<path d="M96.0167 120.744H89.6776C90.2006 118.037 90.3305 115.308 90.3559 112.566H95.3384C95.3606 115.308 95.4937 118.037 96.0167 120.744Z" fill="#525428"/>
<path d="M133.459 120.744H127.12C127.642 118.037 127.772 115.308 127.798 112.566H132.78C132.803 115.308 132.936 118.037 133.459 120.744Z" fill="#525428"/>
<path d="M111.576 164.93C109.719 164.455 106.98 163.498 104.213 161.45C102.755 160.373 101.63 159.241 100.778 158.246C100.936 157.59 101.095 156.934 101.253 156.274C99.3196 156.607 97.383 156.937 95.4496 157.27C94.971 158.344 94.4385 159.923 94.3498 161.865C94.2547 163.942 94.7048 165.644 95.12 166.772C96.1849 168.319 98.8157 171.599 103.89 173.52C105.697 174.205 107.399 174.56 108.812 174.747C108.464 173.862 107.773 171.701 108.657 169.102C109.373 167 110.787 165.606 111.573 164.93H111.576Z" fill="#FBD3FF"/>
<path d="M111.424 164.965C111.297 164.978 111.266 165.028 111.142 164.993L110.746 164.898C106.711 163.887 103.015 161.688 100.197 158.6C100.064 158.458 100.042 158.249 100.128 158.084L101.101 156.236C101.101 156.23 101.281 156.429 101.281 156.429L95.478 157.424L95.5953 157.333C94.9423 158.8 94.5588 160.388 94.5049 161.992C94.4194 163.539 94.7712 165.371 95.2498 166.68C98.3242 171.171 103.491 173.919 108.834 174.588L108.666 174.803C108.324 173.941 108.128 173.025 108.08 172.096C107.922 169.409 109.24 166.81 111.215 165.038L111.278 164.981C111.3 164.962 111.323 164.936 111.326 164.943C111.338 164.943 111.367 164.968 111.424 164.968V164.965ZM111.731 164.892C111.693 165.022 111.541 165.18 111.43 165.272C109.525 166.981 108.248 169.488 108.4 172.08C108.445 172.971 108.638 173.855 108.964 174.686C109.012 174.794 108.914 174.92 108.796 174.901C103.364 174.22 98.077 171.415 94.974 166.825C93.814 163.735 93.9471 160.207 95.3068 157.203C95.329 157.152 95.3734 157.12 95.4241 157.111L101.228 156.115C101.319 156.1 101.408 156.173 101.408 156.264V156.309L101.43 158.398C101.43 158.398 101.285 157.798 101.288 157.805C102.575 159.443 104.128 160.889 105.874 162.068C107.516 163.177 109.338 164.052 111.231 164.654C111.373 164.689 111.605 164.803 111.728 164.889L111.731 164.892Z" fill="#D092FF"/>
<path d="M111.576 164.93C113.465 164.496 116.324 163.568 119.202 161.45C120.663 160.373 121.792 159.241 122.638 158.246C122.479 157.59 122.321 156.934 122.162 156.274C124.096 156.607 126.032 156.937 127.966 157.27C128.445 158.344 128.977 159.923 129.066 161.865C129.161 163.942 128.711 165.644 128.296 166.772C127.231 168.319 124.6 171.599 119.525 173.52C117.719 174.205 116.017 174.56 114.603 174.747C114.847 174.128 115.674 171.824 114.758 169.102C113.925 166.629 112.163 165.327 111.579 164.93H111.576Z" fill="#FBD3FF"/>
<path d="M111.421 164.901C111.544 164.812 111.788 164.692 111.934 164.663C113.874 164.09 115.744 163.228 117.427 162.115C119.218 160.927 120.803 159.462 122.102 157.789L121.953 158.41L122.007 156.315C122.007 156.315 122.007 156.271 122.007 156.267C122.007 156.175 122.096 156.103 122.188 156.118L127.991 157.114C128.045 157.123 128.089 157.158 128.108 157.206C129.468 160.21 129.601 163.738 128.441 166.828C125.338 171.418 120.051 174.223 114.619 174.904C114.502 174.92 114.403 174.797 114.451 174.689C115.798 171.386 114.657 167.345 111.76 165.259C111.643 165.177 111.462 165.06 111.418 164.901H111.421ZM111.731 164.958C111.76 164.949 111.782 164.923 111.788 164.904C111.798 164.889 111.776 164.873 111.811 164.898L111.953 165.003C114.964 167.171 116.15 171.373 114.749 174.803L114.581 174.587C119.925 173.919 125.091 171.171 128.165 166.679C128.641 165.37 128.996 163.538 128.91 161.992C128.856 160.388 128.473 158.8 127.82 157.332L127.937 157.424L122.134 156.429C122.134 156.429 122.314 156.229 122.314 156.236L123.319 158.077C123.417 158.255 123.383 158.47 123.253 158.61C120.381 161.77 116.568 163.979 112.422 164.914L112.017 165.003C111.883 165.037 111.861 164.974 111.731 164.958Z" fill="#D092FF"/>
<path d="M111.611 193.42C111.522 193.42 111.452 193.35 111.452 193.261V165.347C111.452 165.258 111.522 165.188 111.611 165.188C111.7 165.188 111.769 165.258 111.769 165.347V193.261C111.769 193.35 111.7 193.42 111.611 193.42Z" fill="#D092FF"/>
<path opacity="0.22" d="M140.146 124.768C133.522 125.77 130.245 129.19 127.877 127.713C126.581 126.908 127.287 125.716 125.994 124.442C123.433 121.919 119.303 125.25 112.007 125.177C104.863 125.107 101.329 121.836 97.6934 124.359C96.2037 125.396 96.4858 126.16 94.993 126.813C92.2259 128.027 89.7759 126.036 84.4415 125.015C82.1214 124.572 80.1785 124.486 78.917 124.483V124.492C79.161 137.855 88.638 148.6 100.292 148.6H123.243C134.885 148.6 144.356 137.871 144.615 124.524C143.655 124.483 142.067 124.477 140.146 124.768ZM124.204 133.969C124.204 136.061 122.492 137.773 120.4 137.773H102.733C100.641 137.773 98.9295 136.061 98.9295 133.969V130.781C98.9295 128.689 100.641 126.977 102.733 126.977H120.4C122.492 126.977 124.204 128.689 124.204 130.781V133.969Z" fill="#523333"/>
<path d="M85.104 90.9276C89.535 88.5695 99.0658 84.2621 111.855 84.3508C124.948 84.4428 134.596 89.0925 138.98 91.5584C138.932 92.636 138.996 94.4997 139.839 96.5885C140.932 99.2889 143.411 102.557 144.625 102.186C145.82 101.821 146.34 97.7644 143.753 82.3857C139.335 79.5046 127.408 72.5665 110.708 72.7344C94.7204 72.8961 83.3163 79.4824 78.8631 82.3857C77.6587 97.8911 78.5588 101.916 79.8108 102.186C81.1325 102.468 83.5382 98.7121 84.5049 95.6059C85.0945 93.7105 85.1547 92.0465 85.104 90.9276Z" fill="#291919"/>
<path d="M116.822 105.006C117.868 104.274 119.113 103.856 120.286 103.377C128.042 100.385 136.907 100.433 144.616 103.593L144.91 103.71C145.268 103.853 145.468 104.223 145.408 104.588C145.138 106.347 144.961 108.02 144.673 109.732C143.985 114.768 141.988 119.253 138.295 122.806C132.14 125.979 124.343 125.279 118.796 121.158C117.592 116.341 117.031 111.298 116.768 106.325C116.742 105.897 116.736 105.431 116.819 105.013L116.822 105.006ZM117.82 105.637C117.941 105.795 117.89 106.122 117.896 106.299C117.852 111.222 118.235 116.138 119.047 120.997L118.983 120.898C121.715 122.879 124.98 124.131 128.343 124.417C131.646 124.749 135.319 123.951 138.118 122.547C140.549 120.394 142.39 117.573 143.367 114.477C144.356 111.425 144.489 107.9 142.736 105.089L143.528 106.084C135.966 102.467 126.961 102.242 119.139 105.225C118.809 105.342 118.479 105.482 118.153 105.608C118.029 105.656 117.963 105.643 117.817 105.637H117.82Z" fill="#291919"/>
<path d="M105.896 105.636C105.75 105.642 105.681 105.655 105.56 105.608C105.234 105.478 104.904 105.341 104.574 105.224C96.752 102.245 87.7473 102.47 80.1848 106.086L80.9772 105.091C79.2276 107.902 79.3607 111.424 80.3464 114.479C81.2719 117.531 83.3099 120.536 85.5603 122.524C88.5777 124.035 92.0072 124.717 95.3701 124.419C98.733 124.134 101.998 122.882 104.73 120.901L104.666 120.999C105.478 116.143 105.861 111.224 105.817 106.302C105.826 106.134 105.766 105.817 105.893 105.639L105.896 105.636ZM106.895 105.005C106.977 105.424 106.974 105.89 106.945 106.318C106.682 111.291 106.121 116.337 104.917 121.151C99.3701 125.272 91.573 125.975 85.4177 122.799C80.7616 118.229 79.4336 113.503 78.6697 107.218C78.5524 106.365 78.4542 105.494 78.3052 104.581C78.2418 104.2 78.4574 103.839 78.8028 103.703C81.1166 102.758 83.5255 102.042 85.9819 101.63C92.4034 100.517 99.1101 101.411 105.056 104.036C105.681 104.318 106.349 104.581 106.895 104.999V105.005Z" fill="#291919"/>
<path d="M117.643 113.702C115.846 112.976 113.956 112.599 112.023 112.573C109.982 112.548 107.979 112.916 106.074 113.67L105.839 113.08C107.82 112.294 109.896 111.908 112.029 111.939C114.042 111.965 116.01 112.361 117.877 113.115L117.639 113.705L117.643 113.702Z" fill="#291919"/>
<path d="M120.904 65.3477C118.01 68.0671 114.302 69.7882 110.454 70.625C113.896 69.6836 117.196 68.0101 119.795 65.56C119.769 65.6171 119.738 65.6646 119.706 65.7185C120.058 65.6012 120.46 65.4744 120.904 65.3477Z" fill="black"/>
<path d="M89.3575 76.9388C87.4526 74.5268 85.0881 72.4254 82.3813 70.9705C82.7649 70.9547 83.0596 70.9642 83.2371 70.9705C83.1959 70.9262 83.1516 70.885 83.1072 70.8438C85.5667 72.4317 87.6713 74.5553 89.3575 76.9388Z" fill="black"/>
<path d="M85.4717 83.7284C83.3291 81.5794 80.7808 79.7823 77.9694 78.6444C78.0296 78.4891 78.093 78.3401 78.1564 78.1943C80.9487 79.497 83.4242 81.4431 85.4717 83.7284Z" fill="black"/>
<path d="M144.257 77.5129C144.375 77.6714 144.501 77.8394 144.631 78.0232C141.062 78.3338 137.608 79.6936 134.606 81.6492C137.81 79.3101 141.598 77.6714 145.592 77.3291V77.3576C145.097 77.3893 144.65 77.4464 144.257 77.5129Z" fill="black"/>
<path d="M98.153 65.623C98.4826 65.715 98.7995 65.8069 99.1038 65.902C99.0626 65.8481 99.0246 65.7942 98.9834 65.7403C100.02 66.9162 101.234 67.9527 102.581 68.7989C100.958 67.997 99.4556 66.9226 98.153 65.623Z" fill="black"/>
<path d="M133.623 69.9512C131.23 70.9876 129.002 72.4393 127.072 74.2427C128.568 72.6263 130.302 71.219 132.21 70.078C132.188 70.1033 132.169 70.1287 132.15 70.154C132.451 70.1001 132.958 70.0146 133.623 69.9512Z" fill="black"/>
<path d="M204.425 122.522C204.425 150.887 191.715 176.286 171.679 193.333C169.823 194.915 167.902 196.422 165.926 197.855C165.715 198.008 165.5 198.162 165.288 198.315C165.003 198.518 164.721 198.717 164.435 198.915C164.125 199.135 163.81 199.35 163.491 199.562H163.487C148.644 209.605 130.749 215.465 111.478 215.465C92.2081 215.465 74.3045 209.6 59.4615 199.557C58.9024 199.18 58.3475 198.795 57.7967 198.406C55.2994 196.638 52.8973 194.749 50.5905 192.741C30.9517 175.703 18.5314 150.564 18.5314 122.522C18.5314 71.1886 60.1449 29.5752 111.478 29.5752C162.812 29.5752 204.425 71.1886 204.425 122.522Z" fill="#FE71F4"/>
<g filter="url(#filter2_d_2838_5204)">
<path d="M174.325 141.473C173.269 136.789 172.279 130.822 171.94 123.636C173.845 121.147 174.984 118.004 174.984 114.583C174.984 111.481 174.048 108.611 172.453 106.246C172.548 105.31 172.656 104.366 172.776 103.405C177.253 101.136 180.02 96.6546 179.825 91.9872C179.643 87.7132 177.046 84.8307 175.837 83.7042C175.601 83.4847 175.418 83.3315 175.315 83.2445C175.327 83.0665 175.344 82.847 175.356 82.5902C175.485 79.9521 175.356 73.3672 170.801 67.2544C167.458 62.7692 163.305 60.6446 161.18 59.7459C161.143 59.7293 161.11 59.7169 161.072 59.7003C160.874 59.4021 160.617 59.0336 160.306 58.607C157.577 54.8507 150.561 46.5636 138.232 42.7825C125.481 38.8688 114.787 42.1488 111.072 43.5031H111.068C107.353 42.1488 96.6601 38.8688 83.9086 42.7825C71.5173 46.5843 64.4892 54.9376 61.7931 58.665C61.5032 59.0667 61.2589 59.4187 61.0684 59.7003C61.0228 59.721 60.9814 59.7376 60.9317 59.7625C60.9317 59.7625 60.9317 59.7625 60.9358 59.7625H60.9317C58.803 60.6653 54.6739 62.7899 51.3483 67.2544C46.8052 73.3547 46.6602 79.9231 46.7886 82.5778C46.8052 82.8387 46.8176 83.0623 46.8342 83.2445C46.7306 83.3315 46.5442 83.4889 46.2999 83.7167C45.0865 84.8514 42.5022 87.7297 42.3241 91.9872C42.1253 96.6546 44.8918 101.136 49.3729 103.405C49.5302 104.681 49.6669 105.927 49.7829 107.157C48.5363 109.332 47.8198 111.87 47.8198 114.587C47.8198 117.619 48.7144 120.435 50.2426 122.771C49.9485 130.35 48.9173 136.607 47.8198 141.478C44.1836 157.592 36.5467 172.986 43.4506 180.672C45.8485 183.344 49.4226 184.433 50.4993 188.566C50.8679 189.974 50.8514 191.386 50.5946 192.745C52.9014 194.753 55.3034 196.642 57.8007 198.41C57.8794 198.468 57.9623 198.522 58.0451 198.58C58.4882 198.891 58.9355 199.201 59.3828 199.504C59.4118 199.524 59.4366 199.541 59.4656 199.562C74.3086 209.601 92.208 215.469 111.478 215.469C130.749 215.469 148.64 209.605 163.483 199.566C163.483 199.566 163.483 199.566 163.487 199.566C164.096 199.16 164.688 198.742 165.284 198.319C165.495 198.166 165.711 198.013 165.922 197.859C165.922 197.859 165.922 197.859 165.922 197.855C167.897 196.422 169.819 194.919 171.674 193.337C171.302 191.796 171.223 190.177 171.641 188.566C172.718 184.433 176.292 183.344 178.694 180.672C185.594 172.986 177.957 157.592 174.321 141.478L174.325 141.473Z" fill="black"/>
</g>
<path d="M125.501 199.276C120.693 199.297 115.881 199.317 111.073 199.338H110.919C93.7654 199.413 76.6155 199.483 59.4616 199.557C58.9025 199.181 58.3475 198.795 57.7967 198.406C55.2994 196.638 52.8974 194.749 50.5906 192.741C50.8473 191.382 50.8639 189.97 50.4953 188.562C49.4185 184.429 45.8445 183.34 43.4465 180.668C36.5427 172.982 44.1796 157.588 47.8158 141.473C49.7457 132.93 51.4603 120.133 49.3688 103.405C44.8878 101.136 42.1213 96.6546 42.3201 91.9872C42.4981 87.7256 45.0824 84.8473 46.2959 83.7167C46.5402 83.4889 46.7266 83.3315 46.8301 83.2445C46.8136 83.0623 46.8011 82.8387 46.7846 82.5778C46.6562 79.9272 46.8011 73.3547 51.3443 67.2544C54.6699 62.7899 58.799 60.6653 60.9277 59.7624H60.9318C60.9815 59.7376 61.0229 59.721 61.0685 59.7003C61.259 59.4187 61.5033 59.0667 61.7932 58.665C64.4893 54.9376 71.5174 46.5843 83.9087 42.7825C96.6602 38.8688 107.354 42.1488 111.068 43.5031H111.073C111.188 43.5486 111.296 43.59 111.4 43.6273C111.354 50.6305 111.309 57.6337 111.259 64.6369C111.205 64.6411 111.147 64.6411 111.093 64.6452H111.073C106.061 64.8813 96.5815 66.0575 86.8698 72.1081C71.0453 81.969 66.0631 97.661 64.8745 101.856C71.712 104.3 94.896 113.498 111.073 138.202C111.714 139.175 112.34 140.169 112.953 141.192C128.251 166.645 126.392 191.506 125.501 199.276Z" fill="#523030"/>
<path d="M178.699 180.668C176.296 183.34 172.722 184.429 171.646 188.562C171.227 190.173 171.306 191.792 171.679 193.333C169.625 195.085 167.492 196.745 165.288 198.315C164.692 198.738 164.1 199.156 163.491 199.562H163.487C146.014 199.487 128.545 199.413 111.073 199.338H110.919L96.6437 199.276C95.7532 191.507 93.8937 166.645 109.192 141.192C109.805 140.169 110.431 139.175 111.073 138.202C127.249 113.498 150.433 104.3 157.266 101.856C156.078 97.661 151.096 81.969 135.271 72.1082C125.58 66.0699 116.113 64.8813 111.093 64.6452H111.073C111.006 64.6411 110.944 64.6411 110.882 64.637C110.836 57.6337 110.787 50.6305 110.741 43.6273C110.845 43.59 110.948 43.5486 111.068 43.5031H111.073C114.787 42.1488 125.481 38.8688 138.232 42.7825C150.561 46.5636 157.577 54.8507 160.306 58.607C160.617 59.0336 160.874 59.4021 161.072 59.7003C161.11 59.7169 161.143 59.7293 161.18 59.7459C163.305 60.6446 167.459 62.7692 170.801 67.2544C175.352 73.3672 175.485 79.9521 175.356 82.5902C175.344 82.847 175.327 83.0665 175.315 83.2445C175.418 83.3315 175.601 83.4847 175.837 83.7042C177.046 84.8307 179.643 87.7132 179.825 91.9872C180.02 96.6546 177.253 101.136 172.776 103.405C170.681 120.133 172.399 132.93 174.325 141.474C177.961 157.588 185.598 172.982 178.699 180.668Z" fill="#523030"/>
<path d="M165.926 197.856C165.715 198.009 165.5 198.163 165.288 198.316C165.003 198.519 164.721 198.717 164.435 198.916C128.889 198.746 93.3386 198.573 57.7966 198.407C59.3703 191.743 60.7122 184.347 61.5612 176.296C63.5946 157.038 62.1575 140.203 59.8714 127.021C94.2001 127.795 128.529 128.569 162.861 129.348C160.397 141.752 158.658 158.752 161.59 178.412C162.658 185.556 164.195 192.058 165.926 197.856Z" fill="#3D2424"/>
<path d="M61.9133 129.173C69.6992 129.173 76.0109 122.641 76.0109 114.583C76.0109 106.525 69.6992 99.9922 61.9133 99.9922C54.1275 99.9922 47.8158 106.525 47.8158 114.583C47.8158 122.641 54.1275 129.173 61.9133 129.173Z" fill="#FFD4BF"/>
<path d="M127.966 151.479H94.8338C95.2231 151.93 95.5586 152.377 95.836 152.829C95.9106 152.949 95.9727 153.069 96.0431 153.189C105.751 154.394 115.458 155.6 125.166 156.809C122.035 158.921 117.107 161.692 110.551 163.323C105.705 164.529 101.431 164.748 98.2257 164.661C98.2257 164.661 98.2257 164.657 98.2257 164.653C97.9606 166.62 97.4015 168.55 96.5525 170.351C96.1011 171.25 95.5958 172.149 94.8379 173.047C101.783 178.079 107.32 178.953 111.263 178.688C118.784 178.183 127.97 173.047 127.97 173.047C123.29 167.133 123.132 157.322 127.97 151.475L127.966 151.479Z" fill="#FFD4BF"/>
<path d="M125.17 156.809C122.039 158.921 117.111 161.692 110.555 163.323C105.709 164.533 101.44 164.752 98.2299 164.665C98.2299 164.661 98.2258 164.657 98.2258 164.657C98.7559 160.727 98.0725 156.656 96.0474 153.193C105.755 154.399 115.463 155.604 125.17 156.809Z" fill="#FFA3A3"/>
<path d="M160.886 129.173C168.672 129.173 174.984 122.641 174.984 114.583C174.984 106.525 168.672 99.9922 160.886 99.9922C153.1 99.9922 146.788 106.525 146.788 114.583C146.788 122.641 153.1 129.173 160.886 129.173Z" fill="#FFD4BF"/>
<path d="M126.147 156.809H96.1591C80.7322 156.809 68.2208 142.392 68.2208 124.605V101.458C68.7137 96.6373 70.2957 87.2403 76.4044 78.6882C87.0355 63.7955 103.158 62.9879 108.869 62.7022C125.762 61.8532 139.636 70.8774 145.902 78.6882C150.959 84.9956 152.827 91.8787 152.827 91.8787C153.643 94.9062 154.082 98.1241 154.082 101.458V124.605C154.082 142.388 141.574 156.809 126.143 156.809H126.147Z" fill="#FFD4BF"/>
<path d="M90.0504 109.961C90.0794 113.543 90.2533 117.109 90.9367 120.646H82.6537C83.3371 117.109 83.5069 113.543 83.54 109.961V109.862C83.5276 106.246 83.3702 102.647 82.6537 99.0771H90.9367C90.2202 102.647 90.0587 106.246 90.0504 109.862V109.961Z" fill="#3D0000"/>
<path d="M138.973 109.961C139.002 113.543 139.176 117.109 139.86 120.646H131.577C132.26 117.109 132.43 113.543 132.463 109.961V109.862C132.451 106.246 132.289 102.647 131.577 99.0771H139.86C139.143 102.647 138.982 106.246 138.973 109.862V109.961Z" fill="#3D0000"/>
<path d="M146.714 94.1401C139.972 90.8311 132.173 89.775 124.835 91.1997L124.607 89.7502C132.215 88.7811 140.096 90.3424 146.714 94.1401Z" fill="#3D2424"/>
<path d="M75.4764 94.1401C82.0986 90.3424 89.9757 88.7811 97.5836 89.7502L97.3558 91.1997C90.0171 89.7792 82.2187 90.8311 75.4764 94.1401Z" fill="#3D2424"/>
<path d="M112.779 114.583L112.099 122.195H110.41L109.726 114.583H112.779Z" fill="#FF9873"/>
<path d="M98.1014 131.613L112 138.654L110.994 138.662L124.18 131.613L125.493 134.198L112.021 140.683L111.52 140.923L111.019 140.696L96.8424 134.227L98.1014 131.613Z" fill="#FF6E6E"/>
<path d="M84.3104 105.964C81.6765 105.02 79.4732 103.049 78.3177 100.605L78.6449 100.353C80.4133 101.835 82.7036 102.614 84.9151 102.394L84.3104 105.968V105.964Z" fill="#3D0000"/>
<path d="M132.633 105.964C129.999 105.02 127.796 103.049 126.64 100.605L126.967 100.353C128.736 101.835 131.026 102.614 133.238 102.394L132.633 105.968V105.964Z" fill="#3D0000"/>
<path d="M105.324 111.758L104.947 111.021C106.807 110.077 108.89 109.563 110.973 109.547C111.015 109.547 111.056 109.547 111.093 109.547C113.773 109.547 115.91 110.346 117.239 111.021L116.862 111.758C115.616 111.125 113.607 110.371 111.089 110.371C111.052 110.371 111.015 110.371 110.973 110.371C109.018 110.388 107.064 110.868 105.316 111.754L105.324 111.758Z" fill="#E3A529"/>
<path d="M135.714 136.288C139.918 136.288 143.326 134.451 143.326 132.184C143.326 129.918 139.918 128.08 135.714 128.08C131.51 128.08 128.102 129.918 128.102 132.184C128.102 134.451 131.51 136.288 135.714 136.288Z" fill="#FFA3A3"/>
<path d="M86.4763 136.288C90.6803 136.288 94.0883 134.451 94.0883 132.184C94.0883 129.918 90.6803 128.08 86.4763 128.08C82.2723 128.08 78.8643 129.918 78.8643 132.184C78.8643 134.451 82.2723 136.288 86.4763 136.288Z" fill="#FFA3A3"/>
<path d="M90.9367 120.646H82.6537C83.3371 117.109 83.5069 113.543 83.54 109.961H90.0504C90.0794 113.543 90.2533 117.109 90.9367 120.646Z" fill="#800000"/>
<path d="M139.86 120.646H131.577C132.26 117.109 132.43 113.543 132.463 109.961H138.973C139.002 113.543 139.176 117.109 139.86 120.646Z" fill="#800000"/>
<path d="M165.288 198.317C150.102 209.118 131.535 215.466 111.478 215.466C91.4211 215.466 72.9585 209.151 57.7966 198.408C63.0107 183.987 85.1013 173.157 111.561 173.157C138.021 173.157 160.012 183.937 165.288 198.317Z" fill="#E03A3A"/>
<path d="M97.472 167.997C100.147 169.185 105.047 170.954 111.4 170.937C117.666 170.92 122.503 169.181 125.17 167.997C128.67 167.955 131.391 170.817 131.279 173.898C131.184 176.528 129.042 178.909 126.131 179.328C122.358 180.251 117.334 181.108 111.4 181.108C105.411 181.108 100.354 180.239 96.5608 179.303C93.3098 178.545 91.3343 175.393 91.9431 172.49C92.4567 170.047 94.7262 168.137 97.472 167.997Z" fill="#E03A3A"/>
<path d="M97.6624 166.977C103.73 170.849 111.433 171.942 118.353 169.983C120.631 169.342 122.822 168.389 124.748 167.047L125.158 166.956C126.864 167.225 128.396 167.967 129.527 169.081C133.341 172.775 131.361 178.726 126.16 179.488C116.767 181.704 106.711 181.795 97.2317 179.679C96.5318 179.517 95.7408 179.356 95.0988 179.02C92.5435 177.84 90.9367 174.8 91.707 172.033C92.4234 169.375 94.9414 167.325 97.6665 166.977H97.6624ZM97.2855 169.014C96.5318 168.869 95.7242 169.043 95.0077 169.333C92.3282 170.435 91.4088 173.752 92.85 176.204C93.405 177.214 94.2788 178.068 95.3142 178.589C95.9106 178.921 96.6684 179.095 97.3269 179.264C106.728 181.596 116.713 181.575 126.094 179.165C127.51 178.954 128.835 178.221 129.75 177.136C131.714 174.945 131.353 171.45 128.906 169.818C127.796 169.035 126.404 168.745 125.178 169.035C125.178 169.035 125.597 168.944 125.584 168.948C123.17 169.536 120.809 170.054 118.436 170.398C113.694 171.098 108.931 171.131 104.189 170.422C101.883 170.108 99.5468 169.553 97.2814 169.019L97.2855 169.014Z" fill="#9E2929"/>
<path d="M99.7952 168.94C98.2711 172.241 97.8363 176.076 98.6604 179.621L97.8446 179.762C97.4097 176.014 97.7907 172.2 99.029 168.634L99.7993 168.94H99.7952Z" fill="#9E2929"/>
<path d="M107.08 170.67C106.471 174.025 106.326 177.487 106.786 180.871L105.962 180.929C105.929 177.466 105.983 174.012 106.26 170.562L107.08 170.67Z" fill="#9E2929"/>
<path d="M116.386 170.575C116.448 174.05 116.452 177.467 116.386 180.942L115.562 180.859C116.175 177.5 116.179 174.013 115.562 170.654L116.386 170.571V170.575Z" fill="#9E2929"/>
<path d="M124.089 168.815C124.545 172.39 124.843 176.113 124.963 179.703L124.135 179.683C124.391 176.995 124.246 174.274 123.828 171.611C123.683 170.725 123.509 169.838 123.277 168.969L124.093 168.815H124.089Z" fill="#9E2929"/>
<path d="M60.2321 100.041C59.7061 88.9132 63.7274 77.6029 71.5507 69.6182L71.6666 69.7258C66.1254 75.8096 62.5844 83.6453 61.6526 91.8164C61.3213 94.5249 61.2798 97.2583 61.4745 99.9709L60.2321 100.041Z" fill="#3D2424"/>
<path d="M161.11 99.9717C161.731 91.813 159.946 83.439 155.784 76.3654C154.401 73.9964 152.761 71.7725 150.918 69.7307L151.034 69.623C152.951 71.6109 154.674 73.7976 156.152 76.1458C159.118 80.8547 161.068 86.1848 161.897 91.6929C162.323 94.4511 162.464 97.2549 162.352 100.046L161.11 99.9758V99.9717Z" fill="#3D2424"/>
<path d="M58.4261 87.688C55.6596 83.9979 50.6484 82.5733 46.3454 83.9192L46.2957 83.7163C46.5401 83.4885 46.7264 83.3311 46.83 83.2442C46.8134 83.0619 46.801 82.8383 46.7844 82.5774C51.2406 81.9023 56.024 83.8033 58.4261 87.688Z" fill="#3D2424"/>
<path d="M71.095 66.6612C69.4882 62.5032 65.2804 59.8154 60.9319 59.7616C60.9816 59.7367 61.023 59.7201 61.0686 59.6994C61.2591 59.4178 61.5034 59.0658 61.7933 58.6641C66.059 59.3888 69.8857 62.4411 71.095 66.6612Z" fill="#3D2424"/>
<path d="M161.18 59.7463V59.7629C156.674 59.6345 152.234 62.3637 150.57 66.6626C150.913 65.5609 151.414 64.5007 152.077 63.5399C153.928 60.7941 157.039 59.063 160.306 58.6074C160.617 59.034 160.874 59.4026 161.072 59.7008C161.11 59.7173 161.143 59.7298 161.18 59.7463Z" fill="#3D2424"/>
<path d="M175.837 83.7046L175.783 83.92C171.48 82.574 166.469 83.9987 163.702 87.6887C164.328 86.7196 165.102 85.8375 166.001 85.0879C168.556 82.9219 172.064 82.1102 175.356 82.5906C175.344 82.8474 175.327 83.0669 175.315 83.2449C175.418 83.3319 175.601 83.4851 175.837 83.7046Z" fill="#3D2424"/>
<path d="M161.271 103.546C160.899 87.1214 158.969 80.9962 155.771 76.0554C155.287 75.3058 143.778 58.0732 126.446 59.7008C123.128 60.0114 120.262 60.9557 117.923 62.0366C117.276 58.7524 115.33 56.3545 113.263 55.9114C110.605 55.3398 106.703 57.775 105.208 62.3348C102.765 61.1296 99.6752 60.0404 96.0556 59.6966C78.7235 58.0691 67.2144 75.3017 66.7299 76.0513C63.5368 80.9962 61.6027 87.1173 61.23 103.542C60.6502 129.141 59.9461 160.284 79.5601 172.767C82.8567 174.867 88.0791 177.298 95.9148 177.844C93.1773 176.44 89.1559 173.968 85.3416 169.81C83.8093 168.141 81.0055 164.774 78.4958 159.179C75.4477 152.383 73.9029 144.679 73.2154 123.285C72.4865 100.54 73.7952 95.6321 75.253 91.8054C76.454 88.6579 79.0052 82.1599 85.2008 76.0554C91.8644 69.4871 99.4433 66.6253 104.624 65.3373C104.624 65.3373 104.633 65.3373 104.637 65.3373C105.225 65.1924 105.78 65.0681 106.297 64.9563C107.801 64.6623 109.615 64.4428 111.677 64.4759C113.263 64.5007 114.692 64.6705 115.939 64.9025C121.016 65.9295 129.742 68.6091 137.3 76.0554C143.496 82.1599 146.047 88.6579 147.248 91.8054C148.706 95.6321 150.015 100.54 149.286 123.285C148.598 144.679 147.054 152.383 144.005 159.179C141.496 164.774 138.692 168.141 137.16 169.81C133.345 173.968 129.324 176.44 126.586 177.844C134.422 177.298 139.645 174.867 142.941 172.767C162.555 160.284 161.847 129.141 161.271 103.542V103.546Z" fill="#523030"/>
<path d="M105.751 111.389C105.751 118.977 100.777 126.154 93.7238 128.887C81.2455 133.973 67.4959 124.878 67.3509 111.389C67.177 97.677 81.2497 88.2055 93.906 93.461C101.025 96.3227 105.887 103.736 105.751 111.389ZM104.525 111.389C104.55 101.64 96.2086 93.3947 86.4762 93.461C76.6361 93.316 68.3241 101.558 68.2827 111.389C68.1295 118.633 72.7141 125.644 79.444 128.369C91.4956 133.476 104.686 124.373 104.525 111.389Z" fill="#E3A529"/>
<path d="M154.989 111.389C154.989 118.977 150.015 126.154 142.962 128.887C130.484 133.973 116.734 124.878 116.589 111.389C116.415 97.677 130.488 88.2055 143.144 93.461C150.263 96.3227 155.125 103.736 154.989 111.389ZM153.763 111.389C153.788 101.64 145.447 93.3947 135.714 93.461C125.874 93.316 117.562 101.558 117.521 111.389C117.368 118.633 121.952 125.644 128.682 128.369C140.734 133.476 153.924 124.373 153.763 111.389Z" fill="#E3A529"/>
<defs>
<filter id="filter0_d_2838_5204" x="29.2289" y="29.2998" width="162.75" height="191.829" filterUnits="userSpaceOnUse" color-interpolation-filters="sRGB">
<feFlood flood-opacity="0" result="BackgroundImageFix"/>
<feColorMatrix in="SourceAlpha" type="matrix" values="0 0 0 0 0 0 0 0 0 0 0 0 0 0 0 0 0 0 127 0" result="hardAlpha"/>
<feOffset/>
<feGaussianBlur stdDeviation="20"/>
<feColorMatrix type="matrix" values="0 0 0 0 0 0 0 0 0 0 0 0 0 0 0 0 0 0 0.5 0"/>
<feBlend mode="normal" in2="BackgroundImageFix" result="effect1_dropShadow_2838_5204"/>
<feBlend mode="normal" in="SourceGraphic" in2="effect1_dropShadow_2838_5204" result="shape"/>
</filter>
<filter id="filter1_d_2838_5204" x="29.0217" y="20.8281" width="166.392" height="212.589" filterUnits="userSpaceOnUse" color-interpolation-filters="sRGB">
<feFlood flood-opacity="0" result="BackgroundImageFix"/>
<feColorMatrix in="SourceAlpha" type="matrix" values="0 0 0 0 0 0 0 0 0 0 0 0 0 0 0 0 0 0 127 0" result="hardAlpha"/>
<feOffset/>
<feGaussianBlur stdDeviation="20"/>
<feColorMatrix type="matrix" values="0 0 0 0 0 0 0 0 0 0 0 0 0 0 0 0 0 0 0.5 0"/>
<feBlend mode="normal" in2="BackgroundImageFix" result="effect1_dropShadow_2838_5204"/>
<feBlend mode="normal" in="SourceGraphic" in2="effect1_dropShadow_2838_5204" result="shape"/>
</filter>
<filter id="filter2_d_2838_5204" x="0.660583" y="0.925781" width="220.821" height="254.543" filterUnits="userSpaceOnUse" color-interpolation-filters="sRGB">
<feFlood flood-opacity="0" result="BackgroundImageFix"/>
<feColorMatrix in="SourceAlpha" type="matrix" values="0 0 0 0 0 0 0 0 0 0 0 0 0 0 0 0 0 0 127 0" result="hardAlpha"/>
<feOffset/>
<feGaussianBlur stdDeviation="20"/>
<feColorMatrix type="matrix" values="0 0 0 0 0 0 0 0 0 0 0 0 0 0 0 0 0 0 0.5 0"/>
<feBlend mode="normal" in2="BackgroundImageFix" result="effect1_dropShadow_2838_5204"/>
<feBlend mode="normal" in="SourceGraphic" in2="effect1_dropShadow_2838_5204" result="shape"/>
</filter>
</defs>
</g>
</svg>
