<svg xmlns="http://www.w3.org/2000/svg" width="185.903" height="186.082" viewBox="0 0 185.903 186.082" fill="none">
<g transform="translate(-3.748,-28.549)">
<path d="M167.524 121.665C167.524 145.625 155.698 166.822 137.572 179.728C125.949 188.003 111.74 192.867 96.3904 192.867C81.0404 192.867 66.9107 188.028 55.3071 179.798C37.1235 166.898 25.2568 145.67 25.2568 121.665C25.2568 82.3392 57.1042 50.46 96.3904 50.46C135.677 50.46 167.524 82.3392 167.524 121.665Z" fill="#2441FF"/>
<g filter="url(#filter0_d_2838_5104)">
<path d="M142.732 82.4509C143.997 81.1755 144.539 79.7478 144.783 78.8848C144.095 78.6818 143.065 78.3423 141.87 77.8061C136.887 75.5662 134.139 72.1809 132.697 70.677C130.39 68.2721 126.415 65.4738 119.106 63.9573C118.793 63.8906 118.472 63.8272 118.146 63.7669C118.143 63.7669 118.136 63.7637 118.133 63.7637C118.156 63.7542 118.194 63.7415 118.244 63.7225C118.273 63.7098 118.301 63.6971 118.33 63.6844C118.447 63.6368 118.602 63.5639 118.783 63.4687C118.786 63.4655 118.789 63.4655 118.793 63.4623C119.623 63.0245 120.967 62.0759 121.369 60.4165C121.563 59.6234 121.48 58.919 121.369 58.4336C114.263 58.5224 104.736 59.6202 94.5014 63.8716C91.5474 65.1026 88.8723 66.4542 86.473 67.8343C86.4508 67.8438 86.4318 67.8565 86.4096 67.8692C86.6505 67.4409 86.8882 67.0157 87.1291 66.5874C88.6504 63.8684 90.175 61.1494 91.6963 58.4336C86.8375 60.3404 82.7424 61.5746 79.8296 62.3614C72.0168 64.4712 68.2007 64.5823 65.2625 67.8692C63.1199 70.2614 62.4607 73.2025 62.242 75.3219C61.9821 74.9158 61.1485 73.7197 59.5447 73.1613C57.2563 72.3681 55.288 73.5325 55.0123 73.7006C54.2199 75.8136 53.0599 78.355 51.342 81.0454C49.2755 84.2943 47.0441 86.7436 45.1931 88.4981C46.1186 88.7678 48.5116 89.3198 51.1265 88.2824C52.0773 87.9048 52.8285 87.4067 53.3832 86.9593C53.4624 86.8927 53.5385 86.8324 53.6082 86.769C53.4275 87.2258 53.2342 87.7462 53.0409 88.3204C52.0963 91.1124 51.1201 95.2528 51.3673 100.272C51.586 104.644 52.6637 108.308 53.8301 111.107C53.7413 111.684 53.6938 112.277 53.6938 112.88C53.6938 118.743 58.0487 123.547 63.5922 124.016V124.026C63.8362 137.402 73.3131 148.158 84.9674 148.158H85.912C86.4444 150.029 86.5681 152.006 86.3082 153.941C86.2289 154.528 86.1148 155.112 85.969 155.686C85.9468 155.68 85.9246 155.68 85.9025 155.683L80.0991 156.679C80.0483 156.689 80.004 156.721 79.9818 156.771C79.145 158.618 78.7774 160.661 78.882 162.679C66.9709 165.861 58.0645 172.172 55.3102 179.796C66.8473 187.978 80.9231 192.807 96.1273 192.861C96.1273 192.95 96.1971 193.023 96.2858 193.023C96.3746 193.023 96.4443 192.953 96.4443 192.864C111.775 192.851 125.965 187.991 137.575 179.726C134.78 172.102 125.832 165.798 113.889 162.641C113.988 160.636 113.617 158.605 112.786 156.771C112.764 156.724 112.723 156.689 112.669 156.679L106.866 155.683C106.843 155.68 106.824 155.683 106.805 155.683C106.175 153.234 106.184 150.572 106.866 148.158H107.921C119.563 148.158 129.033 137.418 129.293 124.058H129.3C135.258 124.058 140.089 119.054 140.089 112.88C140.089 111.827 139.946 110.809 139.683 109.841C141.794 105.351 143.844 98.3589 140.786 91.6264C139.683 89.1961 138.152 87.3242 136.656 85.9187C136.234 85.5253 135.819 85.1668 135.417 84.8432C135.41 84.84 135.407 84.8336 135.401 84.8305C135.984 84.8971 139.924 85.2842 142.735 82.4478L142.732 82.4509ZM95.7438 152.926C100.53 151.733 104.178 149.75 106.584 148.164C104.178 149.75 100.527 151.733 95.7407 152.926H95.7438Z" fill="black"/>
</g>
<path d="M137.572 179.728C125.949 188.003 111.74 192.866 96.3903 192.866C81.0403 192.866 66.9106 188.028 55.307 179.798C59.2974 168.751 76.2037 160.454 96.4537 160.454C116.704 160.454 133.534 168.713 137.572 179.728Z" fill="#99D3FF"/>
<path d="M135.398 84.8336C135.398 84.8336 135.407 84.8431 135.414 84.8463C135.816 85.1699 136.231 85.5285 136.653 85.9219C138.149 87.3274 139.68 89.1993 140.783 91.6296C145.689 102.436 137.439 113.908 136.897 114.635C109.969 114.952 83.0372 115.269 56.1089 115.587C54.5495 113.036 51.735 107.649 51.3673 100.272C51.1201 95.2528 52.0963 91.1124 53.0409 88.3204C53.2342 87.7462 53.4275 87.2258 53.6082 86.769C53.5385 86.8324 53.4624 86.8927 53.3832 86.9593C52.8285 87.4067 52.0773 87.9048 51.1265 88.2824C48.5116 89.3198 46.1186 88.7678 45.1931 88.4981C47.0441 86.7436 49.2755 84.2943 51.342 81.0454C53.0599 78.355 54.2199 75.8136 55.0123 73.7006C55.288 73.5325 57.2563 72.3681 59.5447 73.1613C61.1485 73.7197 61.9821 74.9158 62.242 75.3219C62.4607 73.2025 63.1199 70.2614 65.2625 67.8692C68.2007 64.5823 72.0168 64.4712 79.8296 62.3614C82.7424 61.5746 86.8375 60.3404 91.6963 58.4336C90.175 61.1494 88.6504 63.8684 87.1291 66.5874C86.8882 67.0157 86.6505 67.4409 86.4096 67.8692C86.4318 67.8565 86.4508 67.8438 86.473 67.8343C88.8723 66.4542 91.5474 65.1026 94.5014 63.8716C104.736 59.6202 114.263 58.5224 121.369 58.4336C121.48 58.919 121.563 59.6234 121.369 60.4165C120.967 62.0759 119.623 63.0245 118.793 63.4623C118.789 63.4623 118.786 63.4623 118.783 63.4687C118.602 63.5639 118.447 63.6368 118.33 63.6844C118.301 63.6971 118.273 63.7098 118.244 63.7225C118.194 63.7415 118.156 63.7542 118.133 63.7637C118.136 63.7637 118.143 63.7669 118.146 63.7669C118.472 63.8272 118.793 63.8906 119.106 63.9573C126.415 65.4738 130.39 68.2721 132.697 70.677C134.139 72.1809 136.887 75.5662 141.87 77.8061C143.065 78.3423 144.095 78.6818 144.783 78.8848C144.539 79.7478 143.997 81.1755 142.732 82.4509C139.921 85.2873 135.981 84.9003 135.398 84.8336Z" fill="#523333"/>
<path d="M109.068 143.848H83.7122C84.0101 144.194 84.2668 144.536 84.4792 144.882C84.5362 144.974 84.5838 145.066 84.6377 145.158C92.067 146.081 99.4964 147.005 106.926 147.931C104.53 149.549 100.758 151.672 95.7405 152.922C92.0322 153.845 88.7612 154.013 86.308 153.947C86.308 153.947 86.308 153.943 86.308 153.94C86.1051 155.447 85.6773 156.926 85.0275 158.306C84.682 158.994 84.2954 159.683 83.7153 160.371C89.0306 164.226 93.2683 164.896 96.2857 164.693C102.042 164.305 109.072 160.371 109.072 160.371C105.49 155.841 105.37 148.325 109.072 143.845L109.068 143.848Z" fill="#F2BCA2"/>
<path d="M106.929 147.932C104.533 149.55 100.761 151.672 95.7437 152.923C92.0354 153.849 88.7676 154.017 86.3112 153.95C86.3112 153.947 86.308 153.944 86.308 153.944C86.7137 150.933 86.1908 147.814 84.6409 145.162C92.0702 146.085 99.4996 147.009 106.929 147.932Z" fill="#E3917B"/>
<path d="M129.293 105.759V123.492C129.293 123.682 129.29 123.869 129.287 124.06C129.027 137.42 119.557 148.159 107.915 148.159H84.9644C73.31 148.159 63.8332 137.404 63.5891 124.028V124.018C63.5891 123.844 63.5828 123.666 63.5828 123.492V105.759C63.9631 102.066 65.1707 94.8675 69.8457 88.3127C77.9819 76.9069 90.3208 76.285 94.6916 76.0661C107.617 75.4157 118.235 82.329 123.033 88.3127C126.903 93.1447 128.333 98.4209 128.333 98.4209C128.957 100.737 129.293 103.202 129.293 105.759Z" fill="#F2BCA2"/>
<path d="M64.4828 124.057C70.4414 124.057 75.2718 119.053 75.2718 112.88C75.2718 106.706 70.4414 101.702 64.4828 101.702C58.5241 101.702 53.6937 106.706 53.6937 112.88C53.6937 119.053 58.5241 124.057 64.4828 124.057Z" fill="#F2BCA2"/>
<path d="M129.293 124.057C135.252 124.057 140.082 119.053 140.082 112.88C140.082 106.706 135.252 101.702 129.293 101.702C123.335 101.702 118.504 106.706 118.504 112.88C118.504 119.053 123.335 124.057 129.293 124.057Z" fill="#F2BCA2"/>
<path d="M123.186 100.326C120.561 99.1868 117.788 98.492 115.011 98.254C112.235 98.0129 109.455 98.2318 106.815 98.8727L106.276 95.4462C112.324 94.9195 118.491 96.398 123.566 99.6119L123.189 100.326H123.186Z" fill="#3D0000"/>
<path d="M68.9138 99.6138C73.9882 96.403 80.1561 94.9245 86.2036 95.448L85.6647 98.8745C83.0245 98.2336 80.2449 98.0115 77.4684 98.2558C74.6919 98.4938 71.9154 99.1886 69.2942 100.328L68.917 99.6138H68.9138Z" fill="#3D0000"/>
<path d="M97.408 115.633L96.885 121.464H95.5918L95.072 115.633H97.408Z" fill="#FF9873"/>
<path d="M85.988 128.679L96.6249 134.072L95.8578 134.079L105.95 128.679L106.951 130.658L96.6407 135.627L96.2604 135.811L95.8737 135.633L85.0276 130.681L85.988 128.679Z" fill="#FF9873"/>
<path d="M80.0103 112.088C80.0324 114.832 80.1656 117.564 80.6885 120.273H74.3495C74.8725 117.564 75.0024 114.832 75.0278 112.088V112.012C75.0183 109.242 74.8978 106.485 74.3495 103.75H80.6885C80.1402 106.485 80.0166 109.242 80.0103 112.012V112.088Z" fill="#3D0000"/>
<path d="M117.452 112.088C117.474 114.832 117.607 117.564 118.13 120.273H111.791C112.314 117.564 112.444 114.832 112.469 112.088V112.012C112.46 109.242 112.336 106.485 111.791 103.75H118.13C117.582 106.485 117.458 109.242 117.452 112.012V112.088Z" fill="#3D0000"/>
<path d="M80.6887 120.275H74.3496C74.8726 117.566 75.0025 114.834 75.0279 112.09H80.0104C80.0326 114.834 80.1657 117.566 80.6887 120.275Z" fill="#800000"/>
<path d="M118.13 120.275H111.791C112.314 117.566 112.444 114.834 112.469 112.09H117.452C117.474 114.834 117.607 117.566 118.13 120.275Z" fill="#800000"/>
<path d="M96.2477 164.506C94.3904 164.031 91.6519 163.072 88.8849 161.023C87.427 159.944 86.3018 158.811 85.4492 157.815C85.6077 157.158 85.7661 156.502 85.9246 155.842C83.9912 156.175 82.0546 156.505 80.1212 156.838C79.6426 157.914 79.1101 159.494 79.0214 161.438C78.9263 163.517 79.3764 165.22 79.7916 166.35C80.8565 167.898 83.4873 171.182 88.5617 173.104C90.3683 173.79 92.0703 174.145 93.4839 174.332C93.1353 173.447 92.4443 171.283 93.3286 168.682C94.0449 166.578 95.4585 165.182 96.2446 164.506H96.2477Z" fill="#99D3FF"/>
<path d="M96.0957 164.541C95.9689 164.554 95.9372 164.604 95.8136 164.57L95.4174 164.474C91.3826 163.462 87.6869 161.26 84.8692 158.17C84.7361 158.027 84.7139 157.818 84.7995 157.653L85.7725 155.803C85.7725 155.797 85.9532 155.997 85.9532 155.997L80.1498 156.993L80.2671 156.901C79.6141 158.37 79.2306 159.96 79.1767 161.565C79.0912 163.113 79.443 164.947 79.9216 166.257C82.996 170.753 88.1623 173.504 93.5062 174.173L93.3382 174.389C92.9959 173.526 92.7994 172.609 92.7518 171.68C92.5933 168.989 93.9119 166.388 95.8865 164.614L95.9499 164.557C95.972 164.538 95.9942 164.512 95.9974 164.519C96.0101 164.519 96.0386 164.544 96.0957 164.544V164.541ZM96.4031 164.468C96.3651 164.598 96.2129 164.757 96.102 164.849C94.1971 166.559 92.9198 169.068 93.0719 171.664C93.1163 172.555 93.3096 173.44 93.6361 174.272C93.6837 174.38 93.5854 174.506 93.4681 174.487C88.0356 173.805 82.7488 170.997 79.6458 166.403C78.4858 163.31 78.6189 159.779 79.9786 156.771C80.0008 156.72 80.0452 156.689 80.0959 156.679L85.8993 155.683C85.9912 155.667 86.08 155.74 86.08 155.832V155.876L86.1022 157.967C86.1022 157.967 85.9564 157.368 85.9595 157.374C87.2464 159.014 88.7994 160.461 90.5458 161.641C92.1876 162.752 94.0101 163.627 95.9023 164.23C96.0449 164.265 96.2763 164.379 96.3999 164.465L96.4031 164.468Z" fill="#9992FF"/>
<path d="M96.2477 164.506C98.1367 164.072 100.996 163.142 103.874 161.023C105.335 159.944 106.463 158.811 107.309 157.815C107.151 157.158 106.992 156.502 106.834 155.842C108.767 156.175 110.704 156.505 112.637 156.838C113.116 157.914 113.648 159.494 113.737 161.438C113.832 163.517 113.382 165.22 112.967 166.35C111.902 167.898 109.271 171.182 104.197 173.104C102.39 173.79 100.688 174.145 99.2746 174.332C99.5186 173.714 100.346 171.407 99.4299 168.682C98.5963 166.207 96.834 164.903 96.2509 164.506H96.2477Z" fill="#99D3FF"/>
<path d="M96.0926 164.476C96.2162 164.388 96.4603 164.267 96.6061 164.238C98.5458 163.664 100.416 162.801 102.099 161.688C103.89 160.498 105.471 159.032 106.774 157.357L106.625 157.979L106.679 155.882C106.679 155.882 106.679 155.837 106.679 155.834C106.679 155.742 106.768 155.669 106.859 155.685L112.663 156.681C112.717 156.691 112.761 156.725 112.78 156.773C114.14 159.781 114.273 163.312 113.113 166.405C110.01 170.999 104.723 173.807 99.2906 174.489C99.1734 174.505 99.0751 174.382 99.1227 174.274C100.47 170.968 99.3287 166.922 96.4317 164.835C96.3145 164.752 96.1338 164.635 96.0894 164.476H96.0926ZM96.4032 164.533C96.4317 164.524 96.4539 164.499 96.4571 164.48C96.4666 164.464 96.4444 164.448 96.4793 164.473L96.6219 164.578C99.6329 166.748 100.818 170.955 99.4174 174.388L99.2494 174.172C104.593 173.503 109.763 170.752 112.834 166.256C113.309 164.946 113.664 163.112 113.579 161.564C113.525 159.958 113.141 158.369 112.489 156.9L112.606 156.992L106.802 155.996C106.802 155.996 106.983 155.796 106.983 155.802L107.988 157.646C108.086 157.823 108.051 158.039 107.921 158.179C105.05 161.342 101.237 163.553 97.091 164.489L96.6853 164.578C96.5522 164.613 96.53 164.549 96.4 164.533H96.4032Z" fill="#9992FF"/>
<path d="M96.2825 193.026C96.1938 193.026 96.124 192.956 96.124 192.867V164.925C96.124 164.836 96.1938 164.767 96.2825 164.767C96.3712 164.767 96.441 164.836 96.441 164.925V192.867C96.441 192.956 96.3712 193.026 96.2825 193.026Z" fill="#9992FF"/>
<path opacity="0.64" d="M124.818 124.304C118.194 125.306 114.916 128.73 112.549 127.251C111.252 126.445 111.959 125.252 110.666 123.977C108.105 121.452 103.975 124.786 96.6788 124.713C89.5347 124.643 86.0007 121.369 82.3652 123.894C80.8756 124.932 81.1576 125.697 79.6648 126.35C76.8978 127.565 74.4478 125.573 69.1135 124.551C66.7934 124.107 64.8505 124.021 63.589 124.018V124.028C63.833 137.404 73.3099 148.159 84.9642 148.159H107.915C119.556 148.159 129.027 137.42 129.287 124.059C128.326 124.018 126.739 124.012 124.818 124.304ZM108.875 133.514C108.875 135.608 107.164 137.321 105.072 137.321H87.4048C85.3129 137.321 83.6013 135.608 83.6013 133.514V130.322C83.6013 128.228 85.3129 126.515 87.4048 126.515H105.072C107.164 126.515 108.875 128.228 108.875 130.322V133.514Z" fill="#523333"/>
<path d="M67.4716 90.0932C72.0041 87.4694 82.3906 82.2694 96.571 82.2218C110.58 82.1742 120.897 87.1807 125.461 89.7506C126.463 86.5842 127.468 83.421 128.469 80.2547C124.051 77.3707 112.124 70.4257 95.4236 70.5938C79.4366 70.7556 68.0326 77.3485 63.5795 80.2547L67.4685 90.0932H67.4716Z" fill="#523333"/>
<path d="M53.0409 88.3207C53.2342 87.7465 53.4276 87.2262 53.6082 86.7693C55.6906 84.9228 56.8633 82.0769 56.4196 79.2373C57.2627 82.6131 55.7635 86.2331 53.0409 88.3207Z" fill="#3D2424"/>
<path d="M86.4095 67.8677C86.4317 67.855 86.4507 67.8423 86.4729 67.8328C84.793 69.0606 82.9737 70.0918 81.0625 70.8945C79.6901 71.4751 78.267 71.9351 76.8217 72.2778C75.3764 72.6204 73.9057 72.8425 72.4287 72.9472C73.8994 72.7886 75.3605 72.5157 76.7836 72.1223C78.2068 71.7321 79.5982 71.2276 80.9325 70.6058C83.1829 69.5651 85.2716 68.204 87.129 66.5859C86.8881 67.0143 86.6504 67.4394 86.4095 67.8677Z" fill="#3D2424"/>
<path d="M118.784 63.4678C118.603 63.5631 118.447 63.6362 118.33 63.6838C118.482 63.6139 118.635 63.5409 118.784 63.4678Z" fill="#3D2424"/>
<path d="M119.106 63.956C114.092 66.1959 108.412 66.8178 103.03 65.7581C108.121 66.5735 113.455 65.885 118.146 63.7656C118.472 63.8259 118.792 63.8894 119.106 63.956Z" fill="#3D2424"/>
<path d="M136.653 85.9207L136.646 85.9366C130.989 83.9853 126.089 80.0766 122.872 75.0479C124.561 77.475 126.637 79.6324 129.014 81.3837C130.979 82.8337 133.138 83.998 135.413 84.8451C135.816 85.1688 136.231 85.5273 136.653 85.9207Z" fill="#3D2424"/>
<path d="M189.697 121.523C189.697 152.799 174.246 180.469 150.561 197.316C135.374 208.117 116.808 214.466 96.7513 214.466C76.6943 214.466 58.2318 208.151 43.0701 197.407C19.3107 180.568 3.80518 152.857 3.80518 121.523C3.80518 70.189 45.4183 28.5752 96.7513 28.5752C148.084 28.5752 189.697 70.189 189.697 121.523Z" fill="#FE71F4"/>
<g filter="url(#filter1_d_2838_5104)">
<path d="M119.612 175.012C119.74 172.394 119.256 169.744 118.171 167.35C118.142 167.288 118.088 167.242 118.017 167.23L110.435 165.93C110.406 165.925 110.381 165.93 110.356 165.93C109.532 162.732 109.544 159.258 110.435 156.106H111.814C127.025 156.106 139.4 142.087 139.739 124.647H139.748C147.533 124.647 153.845 118.116 153.845 110.057C153.845 104.333 150.66 99.384 146.026 96.9902C146.291 94.907 146.482 92.6996 146.56 90.3804C146.991 77.7902 144.026 67.6518 141.586 61.3485C140.77 60.1267 139.801 58.8843 138.65 57.6749C132.488 51.1935 124.528 49.2511 119.889 48.6009H119.885C119.566 48.5554 119.272 48.5181 118.987 48.485C119.185 48.3193 119.392 48.1412 119.612 47.9341C120.225 47.3668 120.904 46.6296 121.546 45.706C122.619 44.1571 123.174 42.6786 123.472 41.6432H123.468C120.825 42.0905 117.959 42.7117 114.92 43.5649C112.588 44.2192 110.406 44.9481 108.372 45.706C107.105 46.1823 105.896 46.671 104.744 47.1638C104.053 47.4579 103.382 47.7561 102.736 48.0543C102.818 47.9052 102.897 47.7519 102.98 47.5863C103.353 46.8408 103.73 45.9255 104.019 44.8487C104.529 42.9436 104.558 41.2829 104.483 40.1191C100.288 40.9474 95.4053 42.2562 90.1415 44.3518C86.8698 45.6605 83.9418 47.0769 81.3617 48.485C76.2967 46.7373 72.3002 46.6876 69.5752 46.9775C64.9782 47.462 62.6134 48.5885 56.3516 49.98C53.9413 50.5143 51.738 50.8953 49.8164 51.1604C47.8989 51.4296 46.2672 51.5911 44.9958 51.6905C46.0518 52.5768 47.6463 53.724 49.7998 54.6309C51.7463 55.451 53.5023 55.7989 54.8027 55.9562C54.8193 55.9604 54.8358 55.9645 54.8524 55.9645C54.608 56.1757 54.3471 56.4077 54.0738 56.6603C52.5497 58.0808 50.653 60.1681 49.0834 63.0175C47.5925 65.7384 44.9461 71.7892 47.8037 91.0223C48.0646 92.7948 48.3918 94.7911 48.8018 96.9736C44.1551 99.3591 40.9579 104.317 40.9579 110.052C40.9579 117.706 46.6482 123.976 53.8916 124.589V124.602C54.2105 142.062 66.5933 156.102 81.8214 156.102H83.0555C83.7513 158.545 83.9128 161.125 83.5732 163.652C83.4697 164.418 83.3206 165.18 83.1301 165.93C83.1011 165.921 83.0721 165.921 83.0431 165.925L75.4601 167.226C75.3939 167.238 75.3359 167.28 75.3069 167.346C74.2136 169.756 73.7332 172.423 73.8698 175.057C58.3063 179.211 46.6689 187.453 43.07 197.401C56.2315 206.727 71.9234 212.716 88.9198 214.132C91.504 214.348 94.1131 214.46 96.7512 214.46C99.3893 214.46 102.065 214.348 104.678 214.124C121.691 212.691 137.395 206.674 150.561 197.31C146.908 187.358 135.217 179.129 119.612 175.008V175.012ZM110.074 156.106C106.931 158.177 102.16 160.765 95.9064 162.322C102.16 160.765 106.927 158.177 110.07 156.106H110.074Z" fill="black"/>
</g>
<path d="M150.561 197.316C137.395 206.68 121.691 212.697 104.678 214.13C102.065 214.354 99.4226 214.466 96.7514 214.466C94.0802 214.466 91.5042 214.354 88.92 214.139C71.9235 212.722 56.2317 206.734 43.0702 197.407C48.2843 182.986 70.3746 172.156 96.8342 172.156C123.294 172.156 145.285 182.937 150.561 197.316Z" fill="#EDF7FF"/>
<path d="M146.556 90.3833C146.32 97.3203 145.111 103.259 143.777 107.91C113.28 109.198 82.7823 110.486 52.2889 111.774C51.0962 107.587 50.1685 103.706 49.4437 100.219C48.7149 96.7322 48.1889 93.6385 47.8037 91.0252C44.9462 71.7921 47.5925 65.7414 49.0834 63.0204C50.653 60.1711 52.5498 58.0837 54.0739 56.6632C54.3472 56.4106 54.6081 56.1787 54.8525 55.9674C54.8359 55.9674 54.8193 55.9633 54.8028 55.9592C53.5023 55.8018 51.7464 55.4539 49.7999 54.6339C47.6464 53.7269 46.0519 52.5797 44.9958 51.6934C46.2673 51.594 47.899 51.4325 49.8165 51.1633C51.7381 50.8982 53.9413 50.5172 56.3516 49.983C62.6135 48.5914 64.9782 47.4649 69.5752 46.9804C72.3003 46.6905 76.2968 46.7402 81.3617 48.4879C83.9419 47.0798 86.8698 45.6634 90.1416 44.3547C95.4053 42.2591 100.288 40.9504 104.483 40.1221C104.558 41.2858 104.529 42.9466 104.02 44.8517C103.73 45.9284 103.353 46.8437 102.98 47.5892C102.897 47.7548 102.818 47.9081 102.736 48.0572C103.382 47.759 104.053 47.4608 104.744 47.1668C105.896 46.6739 107.105 46.1852 108.372 45.7089C110.406 44.9511 112.588 44.2222 114.92 43.5678C117.96 42.7146 120.825 42.0934 123.468 41.6461H123.472C123.174 42.6815 122.619 44.16 121.546 45.7089C120.904 46.6325 120.225 47.3697 119.612 47.9329H119.608C119.388 48.1442 119.181 48.3222 118.982 48.4838C119.268 48.521 119.562 48.5583 119.881 48.6039H119.885C124.524 49.2541 132.484 51.1964 138.646 57.6779C139.797 58.8872 140.766 60.1296 141.582 61.3514C144.022 67.6547 146.987 77.7931 146.556 90.3833Z" fill="#291919"/>
<path d="M113.317 150.48H80.1857C80.575 150.931 80.9104 151.378 81.1879 151.83C81.2624 151.95 81.3246 152.07 81.395 152.19C91.1025 153.395 100.81 154.601 110.518 155.81C107.387 157.922 102.458 160.693 95.9024 162.324C91.0569 163.53 86.783 163.749 83.5775 163.662C83.5775 163.662 83.5775 163.658 83.5775 163.654C83.3124 165.621 82.7534 167.551 81.9044 169.353C81.453 170.251 80.9477 171.15 80.1898 172.049C87.135 177.081 92.6721 177.954 96.6147 177.689C104.136 177.184 113.321 172.049 113.321 172.049C108.641 166.135 108.484 156.323 113.321 150.476L113.317 150.48Z" fill="#CF9278"/>
<path d="M110.521 155.811C107.391 157.923 102.462 160.694 95.9064 162.325C91.0609 163.535 86.7911 163.754 83.5815 163.667C83.5815 163.663 83.5773 163.659 83.5773 163.659C84.1074 159.729 83.4241 155.658 81.3989 152.195C91.1064 153.4 100.814 154.606 110.521 155.811Z" fill="#BF6E50"/>
<path d="M139.743 100.761V123.908C139.743 124.157 139.739 124.401 139.735 124.649C139.396 142.089 127.021 156.108 111.809 156.108H81.8214C66.5934 156.108 54.2105 142.069 53.8916 124.608V124.596C53.8916 124.368 53.8833 124.136 53.8833 123.908V100.761C54.3803 95.9406 55.9582 86.5435 62.0668 77.9872C72.6978 63.0985 88.8204 62.2867 94.5314 62.001C111.42 61.152 125.294 70.1763 131.564 77.9872C136.621 84.2947 138.489 91.182 138.489 91.182C139.304 94.2053 139.743 97.4232 139.743 100.761Z" fill="#CF9278"/>
<path d="M55.0595 124.645C62.8453 124.645 69.1569 118.112 69.1569 110.054C69.1569 101.996 62.8453 95.4639 55.0595 95.4639C47.2737 95.4639 40.962 101.996 40.962 110.054C40.962 118.112 47.2737 124.645 55.0595 124.645Z" fill="#CF9278"/>
<path d="M139.744 124.645C147.529 124.645 153.841 118.112 153.841 110.054C153.841 101.996 147.529 95.4639 139.744 95.4639C131.958 95.4639 125.646 101.996 125.646 110.054C125.646 118.112 131.958 124.645 139.744 124.645Z" fill="#CF9278"/>
<path d="M60.7955 92.773C67.2934 87.9895 76.3673 87.331 83.5403 91.0791L82.4345 93.1002C76.0733 89.3024 67.5875 89.5467 61.3877 93.6427L60.7914 92.773H60.7955Z" fill="#291919"/>
<path d="M131.664 93.6425C125.464 89.5507 116.978 89.3063 110.617 93.1041L109.511 91.083C116.684 87.335 125.758 87.9935 132.256 92.7769L131.659 93.6466L131.664 93.6425Z" fill="#291919"/>
<path d="M98.0807 113.65L97.3974 121.262H95.7077L95.0285 113.65H98.0807Z" fill="#BF6E50"/>
<path d="M83.1593 130.68L97.0579 137.716L96.0557 137.729L109.242 130.68L110.551 133.264L97.0786 139.75L96.5816 139.99L96.0764 139.758L81.9044 133.293L83.1593 130.68Z" fill="#BF6E50"/>
<path d="M75.3483 109.024C75.3772 112.606 75.5512 116.172 76.2345 119.709H67.9517C68.635 116.172 68.8048 112.606 68.8379 109.024V108.924C68.8255 105.309 68.6681 101.71 67.9517 98.1396H76.2345C75.5181 101.71 75.3565 105.309 75.3483 108.924V109.024Z" fill="#3D0000"/>
<path d="M124.271 109.024C124.3 112.606 124.474 116.172 125.157 119.709H116.875C117.558 116.172 117.728 112.606 117.761 109.024V108.924C117.748 105.309 117.587 101.71 116.875 98.1396H125.157C124.441 101.71 124.279 105.309 124.271 108.924V109.024Z" fill="#3D0000"/>
<path d="M76.2345 119.709H67.9517C68.635 116.173 68.8048 112.607 68.8379 109.024H75.3483C75.3772 112.607 75.5512 116.173 76.2345 119.709Z" fill="#291919"/>
<path d="M125.157 119.709H116.875C117.558 116.173 117.728 112.607 117.761 109.024H124.271C124.3 112.607 124.474 116.173 125.157 119.709Z" fill="#291919"/>
<path d="M104.678 214.132C102.065 214.355 99.4223 214.467 96.7511 214.467C94.0799 214.467 91.5039 214.355 88.9197 214.14L93.7237 186.437L99.2567 185.957L104.678 214.132Z" fill="#B54747"/>
<path d="M90.6302 187.745C91.7028 188.317 93.9599 189.335 96.9955 189.348C100.085 189.36 102.384 188.317 103.456 187.745V177.698C99.0538 177.698 94.6515 177.694 90.2533 177.689C90.3775 181.04 90.5059 184.39 90.6343 187.745H90.6302Z" fill="#B54747"/>
<path d="M97.0412 189.555H96.9915C94.1588 189.547 91.9141 188.664 90.5309 187.927L90.4274 187.869L90.0339 177.482L103.659 177.491V187.869L103.552 187.927C102.156 188.673 99.8947 189.555 97.0412 189.555ZM90.8332 187.617C92.1833 188.321 94.3162 189.132 96.9957 189.141C99.7166 189.17 101.883 188.333 103.249 187.621V177.905L90.4688 177.897L90.8332 187.617Z" fill="#7D3131"/>
<path d="M96.5649 177.445C94.138 176.824 90.5598 175.573 86.9443 172.898C85.0393 171.49 83.5691 170.011 82.455 168.711C82.6621 167.853 82.8692 166.996 83.0763 166.135C80.55 166.57 78.0196 167 75.4933 167.435C74.8679 168.839 74.1722 170.902 74.0562 173.44C73.932 176.153 74.5201 178.377 75.0626 179.851C76.4541 181.872 79.8915 186.159 86.5219 188.669C88.8825 189.563 91.1065 190.027 92.9536 190.271C92.498 189.116 91.5952 186.291 92.7506 182.895C93.6866 180.15 95.5337 178.327 96.5607 177.445H96.5649Z" fill="#EDF7FF"/>
<path d="M96.3662 177.492C96.2005 177.508 96.1591 177.575 95.9976 177.529L95.4799 177.405C90.2079 176.084 85.379 173.209 81.6972 169.176C81.5233 168.989 81.4943 168.716 81.6061 168.505L82.8775 166.09L83.1136 166.343L75.5306 167.643L75.6839 167.523C74.8307 169.441 74.3296 171.516 74.2592 173.611C74.1474 175.632 74.6071 178.026 75.2324 179.736C79.2496 185.605 86.0002 189.196 92.9826 190.069L92.7631 190.351C92.3158 189.225 92.0591 188.028 91.997 186.814C91.7899 183.302 93.5127 179.906 96.0928 177.591L96.1757 177.517C96.2046 177.492 96.2336 177.459 96.2378 177.467C96.2543 177.467 96.2916 177.5 96.3662 177.5V177.492ZM96.7679 177.396C96.7182 177.566 96.5194 177.773 96.3744 177.893C93.8854 180.126 92.2165 183.402 92.4152 186.789C92.4732 187.953 92.7258 189.109 93.1524 190.194C93.2145 190.334 93.0862 190.5 92.9329 190.475C85.8345 189.585 78.9266 185.92 74.8721 179.923C73.3564 175.885 73.5303 171.275 75.307 167.349C75.336 167.283 75.394 167.241 75.4602 167.229L83.0432 165.929C83.1633 165.908 83.2792 166.003 83.2792 166.123V166.181L83.3082 168.911C83.3082 168.911 83.1177 168.132 83.1219 168.136C84.8033 170.277 86.8326 172.166 89.1145 173.706C91.2598 175.156 93.6411 176.299 96.1135 177.086C96.2999 177.131 96.6022 177.28 96.7637 177.392L96.7679 177.396Z" fill="#8CCCFF"/>
<path d="M96.5649 177.445C99.0332 176.878 102.769 175.664 106.529 172.898C108.438 171.49 109.913 170.011 111.019 168.711C110.811 167.853 110.604 166.996 110.397 166.135C112.924 166.57 115.454 167 117.98 167.435C118.606 168.839 119.301 170.902 119.417 173.44C119.542 176.153 118.954 178.377 118.411 179.851C117.019 181.872 113.582 186.159 106.952 188.669C104.591 189.563 102.367 190.027 100.52 190.271C100.839 189.464 101.92 186.453 100.723 182.895C99.6337 179.665 97.3311 177.963 96.5691 177.445H96.5649Z" fill="#EDF7FF"/>
<path d="M96.3621 177.409C96.5236 177.293 96.8425 177.135 97.033 177.098C99.5675 176.348 102.011 175.222 104.21 173.768C106.55 172.215 108.621 170.302 110.319 168.115L110.124 168.927L110.194 166.189C110.194 166.189 110.194 166.131 110.194 166.127C110.194 166.007 110.31 165.912 110.43 165.933L118.013 167.233C118.084 167.245 118.142 167.291 118.167 167.353C119.943 171.279 120.117 175.889 118.602 179.927C114.547 185.924 107.639 189.589 100.541 190.479C100.388 190.5 100.259 190.338 100.321 190.198C102.081 185.882 100.59 180.602 96.8052 177.877C96.652 177.769 96.4159 177.616 96.3579 177.409H96.3621ZM96.7679 177.483C96.8052 177.471 96.8342 177.438 96.8425 177.413C96.8549 177.392 96.8259 177.371 96.8714 177.404L97.0578 177.541C100.992 180.374 102.541 185.866 100.711 190.347L100.491 190.065C107.474 189.191 114.224 185.601 118.241 179.732C118.862 178.022 119.326 175.628 119.214 173.607C119.144 171.511 118.643 169.436 117.79 167.519L117.943 167.639L110.36 166.338C110.36 166.338 110.596 166.077 110.596 166.086L111.909 168.492C112.037 168.724 111.992 169.006 111.822 169.188C108.07 173.317 103.088 176.203 97.6707 177.425L97.1406 177.541C96.9667 177.587 96.9377 177.504 96.7679 177.483Z" fill="#8CCCFF"/>
<path d="M59.8926 79.9091C66.8957 76.8775 73.8989 73.8501 80.9021 70.8185C81.2085 70.686 81.5605 70.7191 81.8339 70.9055C83.9129 72.3053 85.996 73.7093 88.075 75.1091C88.6424 75.4901 89.4127 75.1878 89.5701 74.5251C89.7233 73.8666 90.4853 73.5643 91.0527 73.9288C92.5975 74.9352 94.1464 75.9374 95.6911 76.9438C96.0514 77.1798 96.5277 77.1467 96.8548 76.8692C98.176 75.7427 99.5012 74.6121 100.822 73.4856C101.299 73.0798 102.027 73.2206 102.317 73.7755C102.479 74.0861 102.645 74.3926 102.806 74.7032C103.092 75.2416 103.796 75.3949 104.276 75.0138C106.119 73.556 107.966 72.0982 109.809 70.6404C110.083 70.4251 110.447 70.3712 110.77 70.4955L133.776 79.4867C134.302 79.6937 134.89 79.4121 135.06 78.8737C136.19 75.312 137.321 71.7462 138.451 68.1845C138.584 67.7621 138.422 67.3065 138.05 67.0704C131.829 63.1029 116.572 54.6501 95.5006 54.8613C75.3733 55.0642 60.8078 63.0615 54.5667 67.0373C54.1733 67.2899 54.0159 67.7828 54.1857 68.2176L58.6046 79.379C58.8075 79.8925 59.3956 80.1327 59.9009 79.9174L59.8926 79.9091Z" fill="#291919"/>
<path d="M119.881 48.6033C115.968 50.7362 111.52 51.8088 107.084 52.0076C111.482 51.5769 115.856 50.2682 119.608 47.9365C119.388 48.1436 119.181 48.3217 118.983 48.4832C119.268 48.5205 119.562 48.5577 119.881 48.6033Z" fill="black"/>
<path d="M104.744 47.167C100.847 50.2193 96.0969 52.025 91.2515 52.7746C95.4592 51.8924 99.5592 50.1944 102.98 47.5894C102.897 47.7551 102.818 47.9083 102.736 48.0574C103.382 47.7592 104.053 47.461 104.744 47.167Z" fill="black"/>
<path d="M54.0739 56.6641C54.3472 56.4115 54.6081 56.1796 54.8524 55.9684C54.8359 55.9684 54.8193 55.9642 54.8027 55.9601C59.1471 56.1257 63.5287 55.1359 67.5128 53.3965C63.3672 55.4755 58.7371 56.7304 54.0739 56.6641Z" fill="black"/>
<defs>
<filter id="filter0_d_2838_5104" x="5.19312" y="18.4336" width="179.59" height="214.589" filterUnits="userSpaceOnUse" color-interpolation-filters="sRGB">
<feFlood flood-opacity="0" result="BackgroundImageFix"/>
<feColorMatrix in="SourceAlpha" type="matrix" values="0 0 0 0 0 0 0 0 0 0 0 0 0 0 0 0 0 0 127 0" result="hardAlpha"/>
<feOffset/>
<feGaussianBlur stdDeviation="20"/>
<feColorMatrix type="matrix" values="0 0 0 0 0 0 0 0 0 0 0 0 0 0 0 0 0 0 0.5 0"/>
<feBlend mode="normal" in2="BackgroundImageFix" result="effect1_dropShadow_2838_5104"/>
<feBlend mode="normal" in="SourceGraphic" in2="effect1_dropShadow_2838_5104" result="shape"/>
</filter>
<filter id="filter1_d_2838_5104" x="0.957886" y="0.119141" width="192.887" height="254.341" filterUnits="userSpaceOnUse" color-interpolation-filters="sRGB">
<feFlood flood-opacity="0" result="BackgroundImageFix"/>
<feColorMatrix in="SourceAlpha" type="matrix" values="0 0 0 0 0 0 0 0 0 0 0 0 0 0 0 0 0 0 127 0" result="hardAlpha"/>
<feOffset/>
<feGaussianBlur stdDeviation="20"/>
<feColorMatrix type="matrix" values="0 0 0 0 0 0 0 0 0 0 0 0 0 0 0 0 0 0 0.5 0"/>
<feBlend mode="normal" in2="BackgroundImageFix" result="effect1_dropShadow_2838_5104"/>
<feBlend mode="normal" in="SourceGraphic" in2="effect1_dropShadow_2838_5104" result="shape"/>
</filter>
</defs>
</g>
</svg>
