<svg width="55" height="50" viewBox="0 0 55 50" fill="none" xmlns="http://www.w3.org/2000/svg">
<path d="M42.4982 25.8383C41.0945 18.2327 34.7485 13.3418 27.6281 13.3964C26.1075 13.3804 24.619 13.5912 23.1634 14.0289C15.5974 16.3021 11.7404 23.7929 12.5535 30.3075C12.952 33.4966 14.2059 36.2932 16.4057 38.636C17.4618 39.7628 18.6065 40.8076 19.7172 41.8835C22.2656 44.3515 24.8196 46.8149 27.3624 49.2895C27.5659 49.4872 27.6742 49.4844 27.8664 49.2867C28.3431 48.7972 28.8462 48.3341 29.337 47.8597C32.2698 45.0293 35.2252 42.2224 38.1287 39.3618C41.9226 35.622 43.4667 31.086 42.4992 25.8392L42.4982 25.8383ZM27.6705 35.6183C23.7438 35.6333 20.5237 32.4819 20.4992 28.6C20.4737 24.6542 23.6401 21.4651 27.6007 21.4472C31.5067 21.4302 34.6665 24.5911 34.6844 28.5323C34.7004 32.4057 31.5359 35.6032 27.6714 35.6192L27.6705 35.6183Z" fill="white"/>
<path d="M12.1106 16.9785C12.1238 20.0716 9.59616 22.6243 6.51077 22.6366C3.37545 22.6488 0.804445 20.1327 0.784661 17.0331C0.764877 13.8826 3.29254 11.3364 6.45518 11.3213C9.57355 11.3072 12.0965 13.8318 12.1106 16.9785Z" fill="white"/>
<path d="M25.1248 5.79489C25.138 8.88797 22.6103 11.4407 19.5249 11.453C16.3896 11.4652 13.8186 8.94915 13.7988 5.84949C13.779 2.699 16.3067 0.152815 19.4693 0.137754C22.5877 0.123635 25.1107 2.64817 25.1248 5.79489Z" fill="white"/>
<path d="M43.1387 16.8564C43.1255 19.9495 45.6532 22.5023 48.7386 22.5145C51.8739 22.5267 54.4449 20.0107 54.4647 16.911C54.4845 13.7605 51.9568 11.2143 48.7942 11.1993C45.6758 11.1852 43.1529 13.7097 43.1387 16.8564Z" fill="white"/>
<path d="M30.0369 5.79489C30.0237 8.88797 32.5514 11.4407 35.6368 11.453C38.7721 11.4652 41.3431 8.94915 41.3629 5.84949C41.3827 2.699 38.8541 0.152815 35.6924 0.137754C32.574 0.123635 30.051 2.64817 30.0369 5.79489Z" fill="white"/>
</svg>
